<svg xmlns="http://www.w3.org/2000/svg" xmlns:xlink="http://www.w3.org/1999/xlink" width="200" height="200" viewBox="0 0 200 200"><defs><clipPath id="clip-path"><path id="_Clipping_Path_" data-name="&lt;Clipping Path&gt;" d="M186.7,90.7l-79.4,45.7a12.3,12.3,0,0,1-11.1,0L16.7,89.9a4.6,4.6,0,0,1-2.1-2.2L30.1,146a65.1,65.1,0,0,0,49.9,43.5,123.8,123.8,0,0,0,41.4.5,65.4,65.4,0,0,0,51.9-44l15.7-57.6A4.4,4.4,0,0,1,186.7,90.7Z" fill="#a07a5c"/></clipPath><linearGradient id="linear-gradient" x1="102.02" y1="72.3" x2="102.02" y2="137.01" gradientUnits="userSpaceOnUse"><stop offset="0" stop-color="#409fb5"/><stop offset="1" stop-color="#53b5cc"/></linearGradient><radialGradient id="radial-gradient" cx="101.75" cy="138.03" r="60.07" gradientUnits="userSpaceOnUse"><stop offset="0" stop-color="#36949e"/><stop offset="1" stop-color="#2b858f"/></radialGradient><linearGradient id="linear-gradient-2" x1="74.06" y1="141.12" x2="74.06" y2="137.03" xlink:href="#linear-gradient"/><linearGradient id="linear-gradient-3" x1="155.89" y1="123.77" x2="155.89" y2="118.29" xlink:href="#linear-gradient"/><linearGradient id="linear-gradient-4" x1="69.51" y1="146.48" x2="69.51" y2="143.53" xlink:href="#linear-gradient"/><linearGradient id="linear-gradient-5" x1="67.29" y1="124.51" x2="67.29" y2="123.03" xlink:href="#linear-gradient"/><clipPath id="clip-path-3"><path id="_Clipping_Path_3" data-name="&lt;Clipping Path&gt;" d="M163,62.2V52.6L93.9,92.5H87v19.9l70.5-40.7A11,11,0,0,0,163,62.2Z" fill="#25354f"/></clipPath><clipPath id="clip-path-4"><path id="_Clipping_Path_4" data-name="&lt;Clipping Path&gt;" d="M61.5,112.4H87V92.5H45.6v4A15.9,15.9,0,0,0,61.5,112.4Z" fill="#1f2a3a"/></clipPath><clipPath id="clip-path-5"><path d="M125.7,11v8.6a1.1,1.1,0,0,0-.6-.9,5,5,0,0,0-4.4.4c-.8.5-1.3,1.1-1.3,1.6V12.1c0-.5.4-1.1,1.3-1.6a5,5,0,0,1,4.4-.4A1.1,1.1,0,0,1,125.7,11Z" fill="none"/></clipPath><clipPath id="clip-path-6"><path d="M127.8,10.6v8.6c0,.9-.7,1.9-2.1,2.7s-5.6,1.6-7.3.6a1.8,1.8,0,0,1-1-1.5V12.4a1.8,1.8,0,0,0,1,1.5c1.7,1,5,.7,7.3-.6S127.8,11.5,127.8,10.6Z" fill="none"/></clipPath><clipPath id="clip-path-7"><path d="M139.3,18.4V27a1.1,1.1,0,0,0-.6-.9,5,5,0,0,0-4.4.4c-.8.5-1.3,1.1-1.3,1.6V19.5c0-.5.4-1.1,1.3-1.6a5,5,0,0,1,4.4-.4A1.1,1.1,0,0,1,139.3,18.4Z" fill="none"/></clipPath><clipPath id="clip-path-8"><path d="M141.4,18v8.6c0,.9-.7,1.9-2.1,2.7s-5.6,1.6-7.3.6a1.8,1.8,0,0,1-1-1.5V19.8a1.8,1.8,0,0,0,1,1.5c1.7,1,5,.7,7.3-.6S141.4,18.9,141.4,18Z" fill="none"/></clipPath></defs><title>boat</title><g style="isolation:isolate"><g id="Boat-2" data-name="Boat"><g id="water_and_cork" data-name="water and cork"><path d="M187,84.4c3.1,1.8,3.1,4.6,0,6.4l-79.2,46a12.3,12.3,0,0,1-11.1,0l-79.7-46C14,89,14,86.1,17,84.4l79.2-46a12.2,12.2,0,0,1,11.1,0Z" fill="#52b3d1"/><path d="M14.5,87h0Z" fill="#b5885e"/><path id="_Clipping_Path_5" data-name="&lt;Clipping Path&gt;" d="M186.7,90.7l-79.4,45.7a12.3,12.3,0,0,1-11.1,0L16.7,89.9a4.6,4.6,0,0,1-2.1-2.2L30.1,146a65.1,65.1,0,0,0,49.9,43.5,123.8,123.8,0,0,0,41.4.5,65.4,65.4,0,0,0,51.9-44l15.7-57.6A4.4,4.4,0,0,1,186.7,90.7Z" fill="#a07a5c"/><g clip-path="url(#clip-path)"><path d="M141.5,170.2c-24.8,13.3-41.2,3.6-41.1-6.5l.3-60.4L201,50.3l-14.3,49.9C186.6,122.7,166.3,156.8,141.5,170.2Z" fill="#ceac91" opacity="0.2"/><path d="M191.9,55.5l-9.6,45.7c-.1,20.9-16.8,49.3-38.6,61.1-6.8,3.7-20.4,8.7-24.9,8.7-8.9-.1-15.5-4.9-15.5-11.6l.2-56.3Z" fill="#ceac91" opacity="0.3"/><path d="M182.7,60.7l-4.9,41.6c-.1,19.4-13.2,42-31.9,52.2-3.4,1.8-21.8,11.2-24.1,11-7.9,2.3-15.6-3-15.6-10.4l.2-52.3Z" fill="#ceac91" opacity="0.4"/><path d="M148.2,146.7,124.9,160a10.5,10.5,0,0,1-15.7-9.1l.2-48.3,64.2-36.7-.2,37.4A50.2,50.2,0,0,1,148.2,146.7Z" fill="#ceac91" opacity="0.5"/><path d="M238.2,84.4c4.9,2.8,4.9,7.4.1,10.3L111.3,168.4c-4.9,2.8-12.9,2.8-17.7,0L-34.1,94.7c-4.9-2.8-4.9-7.5-.1-10.3L92.7,10.7c4.9-2.8,12.9-2.8,17.7,0Z" fill="#36949e"/></g><path d="M188.8,88.3h0Z" fill="#b5885e"/><path d="M14.5,87h0Z" fill="#b5885e"/><path id="_Clipping_Path_6" data-name="&lt;Clipping Path&gt;" d="M186.7,90.7l-79.4,45.7a12.3,12.3,0,0,1-11.1,0L16.7,89.9a4.6,4.6,0,0,1-2.1-2.2L30.1,146a65.1,65.1,0,0,0,49.9,43.5,123.8,123.8,0,0,0,41.4.5,65.4,65.4,0,0,0,51.9-44l15.7-57.6A4.4,4.4,0,0,1,186.7,90.7Z" fill="#a07a5c"/><g clip-path="url(#clip-path)"><path d="M141.5,170.2c-24.8,13.3-41.2,3.6-41.1-6.5l.3-60.4L201,50.3l-14.3,49.9C186.6,122.7,166.3,156.8,141.5,170.2Z" fill="#ceac91" opacity="0.2"/><path d="M191.9,55.5l-9.6,45.7c-.1,20.9-16.8,49.3-38.6,61.1-6.8,3.7-20.4,8.7-24.9,8.7-8.9-.1-15.5-4.9-15.5-11.6l.2-56.3Z" fill="#ceac91" opacity="0.3"/><path d="M182.7,60.7l-4.9,41.6c-.1,19.4-13.2,42-31.9,52.2-3.4,1.8-21.8,11.2-24.1,11-7.9,2.3-15.6-3-15.6-10.4l.2-52.3Z" fill="#ceac91" opacity="0.4"/><path d="M148.2,146.7,124.9,160a10.5,10.5,0,0,1-15.7-9.1l.2-48.3,64.2-36.7-.2,37.4A50.2,50.2,0,0,1,148.2,146.7Z" fill="#ceac91" opacity="0.5"/><path d="M238.2,84.4c4.9,2.8,4.9,7.4.1,10.3L111.3,168.4c-4.9,2.8-12.9,2.8-17.7,0L-34.1,94.7c-4.9-2.8-4.9-7.5-.1-10.3L92.7,10.7c4.9-2.8,12.9-2.8,17.7,0Z" fill="#36949e"/></g><path d="M188.8,88.3h0Z" fill="#b5885e"/><polygon points="83.8 163.3 84.8 163.8 85.7 164.3 85.4 172.6 85 180.8 84.4 172 83.8 163.3" fill="#584434"/><polygon points="140.7 151.6 141.1 151.5 141.4 151.3 141.3 157 141.2 162.7 140.9 157.1 140.7 151.6" fill="#7c5f49"/><polygon points="113.6 167 114 166.8 114.5 166.7 114.3 173.4 114.1 180.1 113.9 173.6 113.6 167" fill="#7c5f49"/><polygon points="115.8 165.8 116.2 165.6 116.6 165.5 116.4 171.3 116.3 177.1 116 171.5 115.8 165.8" fill="#584434"/><path d="M77.6,172.5c0,1.3-.9,1.8-2.1,1.2a4.6,4.6,0,0,1-2.1-3.6c0-1.3.9-1.8,2.1-1.2A4.6,4.6,0,0,1,77.6,172.5Z" fill="#7c5f49" opacity="0.6"/><path d="M51.1,169.5c.4,1.3-.3,2-1.6,1.7a4.6,4.6,0,0,1-3-2.8c-.4-1.3.3-2,1.6-1.7A4.6,4.6,0,0,1,51.1,169.5Z" fill="#7c5f49" opacity="0.58"/><path d="M110.3,183.8c1.1,0,1.7.6,1.3,1.3a3,3,0,0,1-2.6,1.2c-1.1,0-1.7-.6-1.3-1.3A3,3,0,0,1,110.3,183.8Z" fill="#584434" opacity="0.5" style="mix-blend-mode:multiply"/><path d="M155.1,145.7a4.9,4.9,0,0,1-1.3,4.2c-1.1,1.1-2.3,1-2.6-.2a4.9,4.9,0,0,1,1.3-4.2C153.5,144.4,154.7,144.5,155.1,145.7Z" fill="#7c5f49" opacity="0.4"/><path d="M140.2,174.4a4.9,4.9,0,0,1-1.3,4.2c-1.1,1.1-2.3,1-2.6-.2a4.9,4.9,0,0,1,1.3-4.2C138.6,173.1,139.8,173.2,140.2,174.4Z" fill="#7c5f49" opacity="0.2"/><path d="M50.2,154c0,3.6-2.5,5-5.6,3.2a12.4,12.4,0,0,1-5.6-9.7c0-3.6,2.5-5,5.6-3.2A12.4,12.4,0,0,1,50.2,154Z" fill="#7c5f49" opacity="0.3"/><path d="M58.2,162.3c0,3.6-2.5,5-5.6,3.2a12.4,12.4,0,0,1-5.6-9.7c0-3.6,2.5-5,5.6-3.2A12.4,12.4,0,0,1,58.2,162.3Z" fill="#7c5f49"/><path d="M37.9,142.2c0,2.3-1.6,3.2-3.6,2.1a7.9,7.9,0,0,1-3.6-6.2c0-2.3,1.6-3.2,3.6-2.1A7.9,7.9,0,0,1,37.9,142.2Z" fill="#939393" opacity="0.5" style="mix-blend-mode:multiply"/><path d="M158,160.5c0,4.2-2.5,9-5.7,10.8s-5.7-.1-5.7-4.3,2.5-9,5.7-10.8S158,156.3,158,160.5Z" fill="#7c5f49" opacity="0.58"/><path d="M107.8,136.8l54.9-31.9-55.5-32a12.2,12.2,0,0,0-11.1,0L41.3,104.7l55.5,32A12.3,12.3,0,0,0,107.8,136.8Z" fill="url(#linear-gradient)"/><line x1="173.1" y1="146" x2="197.4" y2="137" fill="#36949e"/><path d="M162.7,105.3l-55,31.9a12,12,0,0,1-10.8,0L41.3,105.2,23.4,115.7,27,129.2l69.9,40.3a12,12,0,0,0,10.8,0l68.5-39.8,3.9-14.4Z" fill="url(#radial-gradient)"/><circle cx="74.1" cy="139.1" r="2" fill="url(#linear-gradient-2)"/><circle cx="155.9" cy="121" r="2.7" fill="url(#linear-gradient-3)"/><circle cx="134.9" cy="99.2" r="2" fill="#339e9e"/><circle cx="131.3" cy="106.9" r="1" fill="#339e9e"/><circle cx="69.5" cy="145" r="1.5" fill="url(#linear-gradient-4)"/><circle cx="67.3" cy="123.8" r="0.7" fill="url(#linear-gradient-5)"/></g><g id="Layer_23" data-name="Layer 23"><path d="M160.3,73.6,129,59.7a3.9,3.9,0,0,0-3.9,0L104.8,71.2l35.3,20.6,20.2-11.5A3.9,3.9,0,0,0,160.3,73.6Z" fill="#4ea1bb"/><path d="M54.8,99.5a3.8,3.8,0,0,0-1.3,5.4l.3,5.7a4,4,0,0,0,2.5,1.7l32.7,7.2a3.9,3.9,0,0,0,2.8-.4l48.4-27.4L104.8,71.2Z" fill="#4395a9"/><path d="M136.2,93.2l-16.9.7h-.3l-8.9,5.1a.6.6,0,0,0,.4,1l25.7-5.8A.6.6,0,0,0,136.2,93.2Z" fill="#1e8c9e"/><path d="M113.6,103.6l-12.1.5h-.2l-6.4,3.7a.4.4,0,0,0,.3.7l18.5-4.2A.4.4,0,0,0,113.6,103.6Z" fill="#1e8c9e"/><path d="M168.6,76.7l-20.3.8H148l-10.7,6.2a.7.7,0,0,0,.5,1.3l31-7A.7.7,0,0,0,168.6,76.7Z" fill="#1e8c9e"/></g><g id="smaller_boat" data-name="smaller boat"><polygon points="45.6 68.6 52.5 68.6 121.5 28.7 163 52.6 93.9 92.5 87 92.5 45.6 92.5 45.6 68.6" fill="#4d6282"/><polygon points="93.9 44.7 93.9 28.7 135.3 52.6 135.3 68.6 93.9 44.7" fill="#6f8fa5"/><polygon points="156.1 40.7 135.3 52.6 135.3 68.6 156 56.6 156.1 40.7" fill="#cad3dd"/><polygon points="114.6 16.7 156.1 40.7 135.3 52.6 93.9 28.7 114.6 16.7" fill="#25354f"/><polygon points="100.8 24.6 100.9 32.7 128.4 48.6 128.4 40.6 100.8 24.6" fill="#6f8fa5"/><polygon points="149.2 28.6 128.4 40.6 128.4 48.6 149.2 36.7 149.2 28.6" fill="#cad3dd"/><polygon points="121.5 12.7 100.8 24.6 128.4 40.6 149.2 28.6 121.5 12.7" fill="#25354f"/><path id="_Clipping_Path_7" data-name="&lt;Clipping Path&gt;" d="M163,62.2V52.6L93.9,92.5H87v19.9l70.5-40.7A11,11,0,0,0,163,62.2Z" fill="#25354f"/><g clip-path="url(#clip-path-3)"><polygon points="169.9 56.6 80 108.6 80.1 116.4 169.9 64.6 169.9 56.6" fill="#69727f"/></g><path id="_Clipping_Path_8" data-name="&lt;Clipping Path&gt;" d="M61.5,112.4H87V92.5H45.6v4A15.9,15.9,0,0,0,61.5,112.4Z" fill="#1f2a3a"/><g clip-path="url(#clip-path-4)"><polygon points="45.6 104.5 45.6 112.4 87 112.4 87 104.4 45.6 104.5" fill="#4b535b"/></g><path d="M137.9,57.3h0c-.7.4-1.3,0-1.3-1v-.7a3.1,3.1,0,0,1,1.3-2.5h0c.7-.4,1.3,0,1.3,1v.7A3.1,3.1,0,0,1,137.9,57.3Z" fill="#89dbef"/><path d="M141.8,55.1h0c-.7.4-1.3,0-1.3-1v-.7a3.1,3.1,0,0,1,1.3-2.5h0c.7-.4,1.3,0,1.3,1v.7A3.1,3.1,0,0,1,141.8,55.1Z" fill="#89dbef"/><path d="M145.7,52.9h0c-.7.4-1.3,0-1.3-1v-.7a3.1,3.1,0,0,1,1.3-2.5h0c.7-.4,1.3,0,1.3,1v.7A3.1,3.1,0,0,1,145.7,52.9Z" fill="#89dbef"/><path d="M149.6,50.6h0c-.7.4-1.3,0-1.3-1v-.7a3.1,3.1,0,0,1,1.3-2.5h0c.7-.4,1.3,0,1.3,1v.7A3.1,3.1,0,0,1,149.6,50.6Z" fill="#89dbef"/><path d="M153.4,48.4h0c-.7.4-1.3,0-1.3-1v-.7a3.1,3.1,0,0,1,1.3-2.5h0c.7-.4,1.3,0,1.3,1v.7A3.1,3.1,0,0,1,153.4,48.4Z" fill="#89dbef"/><path d="M131,45.2h0c-.7.4-1.3,0-1.3-1v-.7A3.1,3.1,0,0,1,131,41h0c.7-.4,1.3,0,1.3,1v.7A3.1,3.1,0,0,1,131,45.2Z" fill="#89dbef"/><path d="M134.9,42.9h0c-.7.4-1.3,0-1.3-1v-.7a3.1,3.1,0,0,1,1.3-2.5h0c.7-.4,1.3,0,1.3,1v.7A3.1,3.1,0,0,1,134.9,42.9Z" fill="#89dbef"/><path d="M138.8,40.7h0c-.7.4-1.3,0-1.3-1V39a3.1,3.1,0,0,1,1.3-2.5h0c.7-.4,1.3,0,1.3,1v.7A3.1,3.1,0,0,1,138.8,40.7Z" fill="#89dbef"/><path d="M142.7,38.5h0c-.7.4-1.3,0-1.3-1v-.7a3.1,3.1,0,0,1,1.3-2.5h0c.7-.4,1.3,0,1.3,1V36A3.1,3.1,0,0,1,142.7,38.5Z" fill="#89dbef"/><path d="M103.6,32.1l-.4-.2a3.1,3.1,0,0,1-1.3-2.5h0c0-.9.6-1.4,1.3-1l.4.2a3.1,3.1,0,0,1,1.3,2.5h0C104.9,32.1,104.4,32.5,103.6,32.1Z" fill="#89dbef"/><path d="M108.1,34.7l-.4-.2a3.1,3.1,0,0,1-1.3-2.5h0c0-.9.6-1.4,1.3-1l.4.2a3.1,3.1,0,0,1,1.3,2.5h0C109.4,34.6,108.8,35.1,108.1,34.7Z" fill="#89dbef"/><path d="M112.6,37.3l-.4-.2a3.1,3.1,0,0,1-1.3-2.5h0c0-.9.6-1.4,1.3-1l.4.2a3.1,3.1,0,0,1,1.3,2.5h0C113.9,37.2,113.3,37.7,112.6,37.3Z" fill="#89dbef"/><path d="M117.1,39.8l-.4-.2a3.1,3.1,0,0,1-1.3-2.5h0c0-.9.6-1.4,1.3-1l.4.2a3.1,3.1,0,0,1,1.3,2.5h0C118.4,39.8,117.8,40.2,117.1,39.8Z" fill="#89dbef"/><path d="M121.6,42.4l-.4-.2a3.1,3.1,0,0,1-1.3-2.5h0c0-.9.6-1.4,1.3-1l.4.2a3.1,3.1,0,0,1,1.3,2.5h0C122.9,42.4,122.3,42.8,121.6,42.4Z" fill="#89dbef"/><path d="M126.1,45l-.4-.2a3.1,3.1,0,0,1-1.3-2.5h0c0-.9.6-1.4,1.3-1l.4.2a3.1,3.1,0,0,1,1.3,2.5h0C127.4,45,126.8,45.4,126.1,45Z" fill="#89dbef"/><polygon points="148.7 30.3 145.3 32.3 145.3 39 148.7 37.1 148.7 30.3" fill="#989fa0"/><polygon points="133.6 61.7 130.2 59.8 130.2 65.6 133.6 67.5 133.6 61.7" fill="#7a7f7f" style="mix-blend-mode:multiply"/><path d="M125.1,23.2c-2.8,1.6-6.7,2-8.6.9s-1.3-3.4,1.5-5,6.7-2,8.6-.9S127.9,21.6,125.1,23.2Z" fill="#1e2a3e"/><g style="isolation:isolate"><g style="isolation:isolate"><g clip-path="url(#clip-path-5)"><g style="isolation:isolate"><path d="M125.7,11v8.6a1.1,1.1,0,0,0-.6-.9l-.6-.2V9.8l.6.2a1.1,1.1,0,0,1,.6.9" fill="#939393"/><path d="M124.4,9.8v8.6h-.6V9.7h.6" fill="#9f9f9f"/><path d="M123.9,9.7v8.6h-.7V9.7h.7" fill="#ababab"/><path d="M123.2,9.7v8.6l-1.4.3V10l1.4-.3" fill="#b7b7b7"/><path d="M121.7,10v8.6l-1,.5h-.1V10.5h.1l1-.5" fill="#c3c3c3"/><path d="M120.6,10.5v8.6a3,3,0,0,0-1,.9V11.4a3,3,0,0,1,1-.9" fill="#b7b7b7"/><path d="M119.7,11.4v8.6l-.2.5V11.9l.2-.5" fill="#ababab"/><path d="M119.4,11.9v0" fill="#9f9f9f"/></g></g></g><g style="isolation:isolate"><g clip-path="url(#clip-path-6)"><g style="isolation:isolate"><path d="M127.8,10.6v8.6a1.7,1.7,0,0,1,0,.3V11a1.7,1.7,0,0,0,0-.3" fill="#9f9f9f"/><path d="M127.8,11v8.6a2.4,2.4,0,0,1-.4.9V11.8a2.4,2.4,0,0,0,.4-.9" fill="#ababab"/><path d="M127.4,11.8v8.6a5,5,0,0,1-1.6,1.4V13.3a5,5,0,0,0,1.6-1.4" fill="#b7b7b7"/><path d="M125.8,13.3v8.6h-.1l-1.7.8V14.1l1.7-.8h.1" fill="#c3c3c3"/><path d="M123.9,14.1v8.6a9.9,9.9,0,0,1-2.4.5V14.5a9.9,9.9,0,0,0,2.4-.5" fill="#b7b7b7"/><path d="M121.6,14.5v8.6h-1.2V14.5h1.2" fill="#ababab"/><path d="M120.4,14.5v8.6l-1-.2V14.4l1,.2" fill="#9f9f9f"/><path d="M119.4,14.4V23l-1.1-.4a1.8,1.8,0,0,1-1-1.5V12.4a1.8,1.8,0,0,0,1,1.5l1.1.4" fill="#939393"/></g></g></g><path d="M126.8,9.1c1.7,1,1.2,2.9-1.1,4.2s-5.6,1.6-7.3.6-1.2-2.9,1.1-4.2S125.1,8.1,126.8,9.1ZM120,13a5,5,0,0,0,4.4-.4c1.4-.8,1.7-2,.7-2.5a5,5,0,0,0-4.4.4c-1.4.8-1.7,1.9-.7,2.5" fill="#dedede"/></g><path d="M127.8,12.2v1.7c0,.9-.7,1.9-2.1,2.7s-5.6,1.6-7.3.6a1.8,1.8,0,0,1-1-1.6V13.9a1.8,1.8,0,0,0,1,1.6c1.7,1,5,.7,7.3-.6S127.8,13,127.8,12.2Z" fill="#a81a1a"/><path d="M138.8,30.6c-2.8,1.6-6.7,2-8.6.9s-1.3-3.4,1.5-5,6.7-2,8.6-.9S141.6,29,138.8,30.6Z" fill="#1e2a3e"/><g style="isolation:isolate"><g style="isolation:isolate"><g clip-path="url(#clip-path-7)"><g style="isolation:isolate"><path d="M139.3,18.4V27a1.1,1.1,0,0,0-.6-.9l-.6-.2V17.2l.6.2a1.1,1.1,0,0,1,.6.9" fill="#939393"/><path d="M138.1,17.2v8.6h-.6V17.1h.6" fill="#9f9f9f"/><path d="M137.5,17.1v8.6h-.7V17.1h.7" fill="#ababab"/><path d="M136.8,17.1v8.6l-1.4.3V17.4l1.4-.3" fill="#b7b7b7"/><path d="M135.4,17.4V26l-1,.5h-.1V17.9h.1l1-.5" fill="#c3c3c3"/><path d="M134.3,17.9v8.6a3,3,0,0,0-1,.9V18.7a3,3,0,0,1,1-.9" fill="#b7b7b7"/><path d="M133.3,18.7v8.6l-.2.5V19.2l.2-.5" fill="#ababab"/><path d="M133.1,19.2v0" fill="#9f9f9f"/></g></g></g><g style="isolation:isolate"><g clip-path="url(#clip-path-8)"><g style="isolation:isolate"><path d="M141.4,18v8.6a1.7,1.7,0,0,1,0,.3V18.4a1.7,1.7,0,0,0,0-.3" fill="#9f9f9f"/><path d="M141.4,18.4v8.6a2.4,2.4,0,0,1-.4.9V19.2a2.4,2.4,0,0,0,.4-.9" fill="#ababab"/><path d="M141,19.2v8.6a5,5,0,0,1-1.6,1.4V20.6a5,5,0,0,0,1.6-1.4" fill="#b7b7b7"/><path d="M139.4,20.6v8.6h-.1l-1.7.8V21.5l1.7-.8h.1" fill="#c3c3c3"/><path d="M137.6,21.5v8.6a9.9,9.9,0,0,1-2.4.5V21.9a9.9,9.9,0,0,0,2.4-.5" fill="#b7b7b7"/><path d="M135.2,21.9v8.6H134V21.9h1.2" fill="#ababab"/><path d="M134,21.9v8.6l-1-.2V21.8l1,.2" fill="#9f9f9f"/><path d="M133.1,21.8v8.6l-1.1-.4a1.8,1.8,0,0,1-1-1.5V19.8a1.8,1.8,0,0,0,1,1.5l1.1.4" fill="#939393"/></g></g></g><path d="M140.4,16.5c1.7,1,1.2,2.9-1.1,4.2s-5.6,1.6-7.3.6-1.2-2.9,1.1-4.2S138.7,15.5,140.4,16.5Zm-6.7,3.9a5,5,0,0,0,4.4-.4c1.4-.8,1.7-1.9.7-2.5a5,5,0,0,0-4.4.4c-1.4.8-1.7,1.9-.7,2.5" fill="#dedede"/></g><path d="M141.4,19.5v1.7c0,.9-.7,1.9-2.1,2.7s-5.6,1.6-7.3.6a1.8,1.8,0,0,1-1-1.6V21.3a1.8,1.8,0,0,0,1,1.6c1.7,1,5,.7,7.3-.6S141.4,20.4,141.4,19.5Z" fill="#a81a1a"/><polygon points="45.6 68.6 52.5 68.6 47.4 92.5 45.6 92.5 45.6 68.6" fill="#637a91"/><polyline points="45.6 68.6 45.6 92.5 87 92.5" fill="none" stroke="#b1c3dd" stroke-miterlimit="10"/></g><g id="container-2" data-name="container"><polygon points="71.7 80.9 54.1 70.6 88.2 51 105.8 61.2 71.7 80.9" fill="#334256"/><polygon points="93.7 92.8 76.1 82.5 110.2 62.8 127.8 73.1 93.7 92.8" fill="#334256"/><g style="isolation:isolate"><polygon points="72.5 59.3 72.4 78.7 55.2 69 55.3 49.5 72.5 59.3" fill="#c2c2c2"/><polygon points="72.5 59.3 106.5 39.8 106.5 59.2 72.4 78.7 72.5 59.3" fill="#dbdbdb"/><polygon points="55.3 49.5 89.4 30 106.5 39.8 72.5 59.3 55.3 49.5" fill="#e5e5e5"/></g><g id="cork_logo" data-name="cork logo"><g style="isolation:isolate"><path d="M60.6,55.7q-2.2-1.2-3.1-.7t-.9,3.2a8.9,8.9,0,0,0,.8,4.2,7.8,7.8,0,0,0,3.1,2.8,11.1,11.1,0,0,0,2.9,1.1V63.1L61.1,62a1.7,1.7,0,0,1-.7-.7,2.4,2.4,0,0,1-.2-1.1c0-.5.1-.8.2-.9s.4-.1.8.1l2.2,1.4V57.8l-.4-.4a16.8,16.8,0,0,0-2.4-1.7" fill="#582e77"/><path d="M68.1,60q-2.1-1.2-3.2-.7t-1.1,3.1a7.9,7.9,0,0,0,1,4.2,8.6,8.6,0,0,0,3.2,2.9q2.1,1.2,3.2.7t1.1-3a8,8,0,0,0-1-4.2A8.5,8.5,0,0,0,68.1,60" fill="#582e77"/></g><g opacity="0.6" style="isolation:isolate"><path d="M78.5,58.4a6,6,0,0,0-1.7,2v-.8l-3.5,2v9.1l3.5-2V63.7l.3-.3a6.3,6.3,0,0,1,1.4-1.3V58.4" fill="#582e77"/><polyline points="82.6 53.2 79.1 55.3 79 67.3 82.6 65.3 82.6 62.7 83 62.4 83.8 64.6 87.3 62.6 86.1 58.6 87.2 53.6 83.7 55.6 83 58.9 82.6 59.2 82.6 53.2" fill="#582e77"/></g><g opacity="0.4" style="isolation:isolate"><polyline points="72 47.2 68.5 49.2 79.3 55.4 82.8 53.4 72 47.2" fill="#582e77"/></g></g><g id="labels" opacity="0.17"><path d="M71.5,62l-4.3-2.5a.6.6,0,0,1-.3-.5v-.2c0-.2.1-.3.3-.2l4.3,2.5a.6.6,0,0,1,.3.5v.2C71.7,62,71.6,62.1,71.5,62Z" fill="#fff"/><path d="M71.5,63.2l-2.4-1.4a.6.6,0,0,1-.3-.5h0c0-.2.1-.3.3-.2l2.4,1.4a.6.6,0,0,1,.3.5h0C71.7,63.2,71.6,63.3,71.5,63.2Z" fill="#fff"/><path d="M71.5,64.4,69.1,63a.6.6,0,0,1-.3-.5h0c0-.2.1-.3.3-.2l2.4,1.4a.6.6,0,0,1,.3.5h0C71.7,64.4,71.6,64.5,71.5,64.4Z" fill="#fff"/><path d="M71.5,67.5l-2.4-1.4a.6.6,0,0,1-.3-.5h0c0-.2.1-.3.3-.2l2.4,1.4a.6.6,0,0,1,.3.5h0C71.7,67.5,71.6,67.6,71.5,67.5Z" fill="#fff"/><path d="M71.5,68.7l-2.4-1.4a.6.6,0,0,1-.3-.5h0c0-.2.1-.3.3-.2l2.4,1.4a.6.6,0,0,1,.3.5h0C71.7,68.7,71.6,68.8,71.5,68.7Z" fill="#fff"/><path d="M71.5,75.5l-2.4-1.4a.6.6,0,0,1-.3-.5h0c0-.2.1-.3.3-.2l2.4,1.4a.6.6,0,0,1,.3.5h0C71.7,75.5,71.6,75.6,71.5,75.5Z" fill="#fff"/><path d="M71.5,76.6l-2.4-1.4a.6.6,0,0,1-.3-.5h0c0-.2.1-.3.3-.2l2.4,1.4a.6.6,0,0,1,.3.5h0C71.7,76.6,71.6,76.7,71.5,76.6Z" fill="#fff"/><path d="M60.4,59.8,57.2,58a.9.9,0,0,1-.4-.7V53.7c0-.3.2-.4.4-.3l3.2,1.8a.9.9,0,0,1,.4.7v3.5C60.8,59.8,60.6,59.9,60.4,59.8Z" fill="#fff"/></g><g id="door_locks" data-name="door locks"><line x1="61.7" y1="54.6" x2="61.7" y2="71.2" fill="none" stroke="#f2f2f2" stroke-miterlimit="10" stroke-width="0.26"/><line x1="62.3" y1="55.1" x2="62.3" y2="71.8" fill="none" stroke="#000" stroke-miterlimit="10" stroke-width="0.26" opacity="0.1"/><line x1="61.8" y1="55.9" x2="62.5" y2="56.3" fill="none" stroke="#fff" stroke-miterlimit="10" stroke-width="0.22"/><line x1="61.8" y1="69.8" x2="62.5" y2="70.1" fill="none" stroke="#fff" stroke-miterlimit="10" stroke-width="0.22"/><line x1="58.1" y1="52.7" x2="58.1" y2="69.3" fill="none" stroke="#f2f2f2" stroke-miterlimit="10" stroke-width="0.26"/><line x1="58.6" y1="53.2" x2="58.6" y2="69.8" fill="none" stroke="#000" stroke-miterlimit="10" stroke-width="0.26" opacity="0.1"/><line x1="58.1" y1="54" x2="58.8" y2="54.4" fill="none" stroke="#fff" stroke-miterlimit="10" stroke-width="0.22"/><line x1="58.1" y1="67.8" x2="58.8" y2="68.2" fill="none" stroke="#fff" stroke-miterlimit="10" stroke-width="0.22"/><line x1="69.5" y1="59.3" x2="69.5" y2="76" fill="none" stroke="#f2f2f2" stroke-miterlimit="10" stroke-width="0.26"/><line x1="70.1" y1="59.8" x2="70.1" y2="76.5" fill="none" stroke="#000" stroke-miterlimit="10" stroke-width="0.26" opacity="0.1"/><line x1="69.6" y1="60.7" x2="70.3" y2="61" fill="none" stroke="#fff" stroke-miterlimit="10" stroke-width="0.22"/><line x1="69.6" y1="74.5" x2="70.3" y2="74.9" fill="none" stroke="#fff" stroke-miterlimit="10" stroke-width="0.22"/><line x1="65.1" y1="56.8" x2="65.1" y2="73.4" fill="none" stroke="#f2f2f2" stroke-miterlimit="10" stroke-width="0.26"/><line x1="65.6" y1="57.3" x2="65.6" y2="73.9" fill="none" stroke="#000" stroke-miterlimit="10" stroke-width="0.26" opacity="0.1"/><line x1="65.2" y1="58.1" x2="65.8" y2="58.5" fill="none" stroke="#fff" stroke-miterlimit="10" stroke-width="0.22"/><line x1="65.2" y1="71.9" x2="65.8" y2="72.3" fill="none" stroke="#fff" stroke-miterlimit="10" stroke-width="0.22"/></g><g style="isolation:isolate"><polygon points="94.5 71.3 94.4 90.7 77.2 81 77.3 61.5 94.5 71.3" fill="#c2c2c2"/><polygon points="94.5 71.3 128.6 51.8 128.5 71.2 94.4 90.7 94.5 71.3" fill="#dbdbdb"/><polygon points="77.3 61.5 111.4 42 128.6 51.8 94.5 71.3 77.3 61.5" fill="#e5e5e5"/></g><g id="cork_logo-2" data-name="cork logo"><g style="isolation:isolate"><path d="M82.6,67.7q-2.2-1.2-3.1-.7t-.9,3.2a8.9,8.9,0,0,0,.8,4.2,7.8,7.8,0,0,0,3.1,2.8,11.1,11.1,0,0,0,2.9,1.1V75.1L83.1,74a1.7,1.7,0,0,1-.7-.7,2.4,2.4,0,0,1-.2-1.1c0-.5.1-.8.2-.9s.4-.1.8.1l2.2,1.4V69.8l-.4-.4a16.8,16.8,0,0,0-2.4-1.7" fill="#582e77"/><path d="M90.1,72q-2.1-1.2-3.2-.7t-1.1,3.1a7.9,7.9,0,0,0,1,4.2,8.6,8.6,0,0,0,3.2,2.9q2.1,1.2,3.2.7t1.1-3a8,8,0,0,0-1-4.2A8.5,8.5,0,0,0,90.1,72" fill="#582e77"/></g><g opacity="0.6" style="isolation:isolate"><path d="M100.5,70.4a6,6,0,0,0-1.7,2v-.8l-3.5,2v9.1l3.5-2V75.7l.3-.3a6.3,6.3,0,0,1,1.4-1.3V70.4" fill="#582e77"/><polyline points="104.6 65.2 101.1 67.3 101 79.3 104.6 77.3 104.6 74.7 105 74.4 105.8 76.6 109.3 74.6 108.1 70.6 109.2 65.6 105.7 67.6 105 70.9 104.6 71.2 104.6 65.2" fill="#582e77"/></g><g opacity="0.4" style="isolation:isolate"><polyline points="94 59.2 90.5 61.2 101.3 67.4 104.8 65.4 94 59.2" fill="#582e77"/></g></g><g id="labels-2" data-name="labels" opacity="0.17"><path d="M93.5,74l-4.3-2.5a.6.6,0,0,1-.3-.5v-.2c0-.2.1-.3.3-.2l4.3,2.5a.6.6,0,0,1,.3.5v.2C93.7,74,93.6,74.1,93.5,74Z" fill="#fff"/><path d="M93.5,75.2l-2.4-1.4a.6.6,0,0,1-.3-.5h0c0-.2.1-.3.3-.2l2.4,1.4a.6.6,0,0,1,.3.5h0C93.7,75.2,93.6,75.3,93.5,75.2Z" fill="#fff"/><path d="M93.5,76.4,91.1,75a.6.6,0,0,1-.3-.5h0c0-.2.1-.3.3-.2l2.4,1.4a.6.6,0,0,1,.3.5h0C93.7,76.4,93.6,76.5,93.5,76.4Z" fill="#fff"/><path d="M93.5,79.5l-2.4-1.4a.6.6,0,0,1-.3-.5h0c0-.2.1-.3.3-.2l2.4,1.4a.6.6,0,0,1,.3.5h0C93.7,79.5,93.6,79.6,93.5,79.5Z" fill="#fff"/><path d="M93.5,80.7l-2.4-1.4a.6.6,0,0,1-.3-.5h0c0-.2.1-.3.3-.2l2.4,1.4a.6.6,0,0,1,.3.5h0C93.7,80.7,93.6,80.8,93.5,80.7Z" fill="#fff"/><path d="M93.5,87.5l-2.4-1.4a.6.6,0,0,1-.3-.5h0c0-.2.1-.3.3-.2l2.4,1.4a.6.6,0,0,1,.3.5h0C93.7,87.5,93.6,87.6,93.5,87.5Z" fill="#fff"/><path d="M93.5,88.6l-2.4-1.4a.6.6,0,0,1-.3-.5h0c0-.2.1-.3.3-.2l2.4,1.4a.6.6,0,0,1,.3.5h0C93.7,88.6,93.6,88.7,93.5,88.6Z" fill="#fff"/><path d="M82.4,71.8,79.2,70a.9.9,0,0,1-.4-.7V65.7c0-.3.2-.4.4-.3l3.2,1.8a.9.9,0,0,1,.4.7v3.5C82.8,71.8,82.6,71.9,82.4,71.8Z" fill="#fff"/></g><g id="door_locks-2" data-name="door locks"><line x1="83.7" y1="66.6" x2="83.7" y2="83.2" fill="none" stroke="#f2f2f2" stroke-miterlimit="10" stroke-width="0.26"/><line x1="84.3" y1="67.1" x2="84.3" y2="83.8" fill="none" stroke="#000" stroke-miterlimit="10" stroke-width="0.26" opacity="0.1"/><line x1="83.8" y1="67.9" x2="84.5" y2="68.3" fill="none" stroke="#fff" stroke-miterlimit="10" stroke-width="0.22"/><line x1="83.8" y1="81.8" x2="84.5" y2="82.1" fill="none" stroke="#fff" stroke-miterlimit="10" stroke-width="0.22"/><line x1="80.1" y1="64.7" x2="80.1" y2="81.3" fill="none" stroke="#f2f2f2" stroke-miterlimit="10" stroke-width="0.26"/><line x1="80.6" y1="65.2" x2="80.6" y2="81.8" fill="none" stroke="#000" stroke-miterlimit="10" stroke-width="0.26" opacity="0.1"/><line x1="80.1" y1="66" x2="80.8" y2="66.4" fill="none" stroke="#fff" stroke-miterlimit="10" stroke-width="0.22"/><line x1="80.1" y1="79.8" x2="80.8" y2="80.2" fill="none" stroke="#fff" stroke-miterlimit="10" stroke-width="0.22"/><line x1="91.5" y1="71.3" x2="91.5" y2="88" fill="none" stroke="#f2f2f2" stroke-miterlimit="10" stroke-width="0.26"/><line x1="92.1" y1="71.8" x2="92.1" y2="88.5" fill="none" stroke="#000" stroke-miterlimit="10" stroke-width="0.26" opacity="0.1"/><line x1="91.6" y1="72.7" x2="92.3" y2="73" fill="none" stroke="#fff" stroke-miterlimit="10" stroke-width="0.22"/><line x1="91.6" y1="86.5" x2="92.3" y2="86.9" fill="none" stroke="#fff" stroke-miterlimit="10" stroke-width="0.22"/><line x1="87.1" y1="68.8" x2="87.1" y2="85.4" fill="none" stroke="#f2f2f2" stroke-miterlimit="10" stroke-width="0.26"/><line x1="87.6" y1="69.3" x2="87.6" y2="85.9" fill="none" stroke="#000" stroke-miterlimit="10" stroke-width="0.26" opacity="0.1"/><line x1="87.2" y1="70.1" x2="87.8" y2="70.5" fill="none" stroke="#fff" stroke-miterlimit="10" stroke-width="0.22"/><line x1="87.2" y1="83.9" x2="87.8" y2="84.3" fill="none" stroke="#fff" stroke-miterlimit="10" stroke-width="0.22"/></g></g></g></g></svg>