<svg xmlns="http://www.w3.org/2000/svg" xmlns:xlink="http://www.w3.org/1999/xlink" width="237.1" height="213" viewBox="0 0 237.1 213"><defs><filter id="AI_GaussianBlur_4" name="AI_GaussianBlur_4"><feGaussianBlur stdDeviation="4"/></filter></defs><title>shipping_container</title><g id="shipping_container" data-name="shipping container"><g opacity="0.42" filter="url(#AI_GaussianBlur_4)"><polygon points="68.4 201.9 11.2 168.6 164 80.4 221.2 113.6 68.4 201.9" fill="#333"/></g><path d="M71.1,126,223.9,37.7l.2,70.6L71.3,196.6Z" fill="#e6e6e6"/><polygon points="71.3 196.6 14.1 163.3 13.9 92.8 71.1 126 71.3 196.6" fill="#d3d3d3"/><g id="top"><polygon points="71.1 126 13.9 92.8 166.7 4.5 223.9 37.7 71.1 126" fill="#f2f2f2"/></g><line id="door_divider" data-name="door divider" x1="41" y1="108.6" x2="41" y2="179" fill="none" stroke="#000" stroke-miterlimit="10" stroke-width="0.9" opacity="0.05"/><g opacity="0.2"><polygon points="35.2 90.1 77.1 114.3 73.8 116.3 31.9 92.1 35.2 90.1" opacity="0.07"/><polygon points="46.9 83.3 88.8 107.5 85.4 109.5 43.5 85.3 46.9 83.3" opacity="0.07"/><polygon points="58.5 76.6 100.4 100.7 97.1 102.7 55.2 78.5 58.5 76.6" opacity="0.07"/><polygon points="70.2 69.8 112.1 94 108.7 95.9 66.8 71.7 70.2 69.8" opacity="0.07"/><polygon points="81.8 63 123.7 87.2 120.4 89.1 78.5 64.9 81.8 63" opacity="0.07"/><polygon points="93.5 56.2 135.4 80.4 132 82.3 90.1 58.2 93.5 56.2" opacity="0.07"/><polygon points="105.1 49.4 147 73.6 143.7 75.6 101.8 51.4 105.1 49.4" opacity="0.07"/><polygon points="116.8 42.7 158.7 66.8 155.3 68.8 113.4 44.6 116.8 42.7" opacity="0.07"/><polygon points="128.4 35.9 170.3 60.1 167 62 125.1 37.8 128.4 35.9" opacity="0.07"/><polygon points="140.1 29.1 182 53.3 178.6 55.2 136.7 31 140.1 29.1" opacity="0.07"/><polygon points="151.8 22.3 193.7 46.5 190.3 48.4 148.4 24.3 151.8 22.3" opacity="0.07"/><polygon points="163.4 15.5 205.3 39.7 201.9 41.7 160 17.5 163.4 15.5" opacity="0.07"/></g><path d="M85.9,164.5l-10.8,6.2c-.4.2-.7,0-.7-.6v-1.2a1.8,1.8,0,0,1,.7-1.4l10.8-6.2c.4-.2.7,0,.7.6V163A1.8,1.8,0,0,1,85.9,164.5Z" fill="#fff" opacity="0.3"/><path d="M85.9,169.6l-10.8,6.2c-.4.2-.7,0-.7-.6V174a1.8,1.8,0,0,1,.7-1.4l10.8-6.2c.4-.2.7,0,.7.6v1.2A1.8,1.8,0,0,1,85.9,169.6Z" fill="#fff" opacity="0.3"/><g id="cork_logo" data-name="cork logo"><g style="isolation:isolate"><path d="M30.2,113.8q-7.5-4.3-10.6-2.5t-3.2,11.2q0,9.4,2.9,14.8t10.8,10a38,38,0,0,0,10,4l-.4-11.3L31.9,136a6,6,0,0,1-2.4-2.4,8.6,8.6,0,0,1-.7-3.8c0-1.7.2-2.7.7-3.1s1.3-.2,2.6.5l7.6,4.9.4-10.9-1.5-1.3a58.3,58.3,0,0,0-8.4-6.1" fill="#582e77"/><path d="M56.3,128.9q-7.4-4.2-11-2.4t-3.7,10.7q0,8.9,3.6,14.9a29.9,29.9,0,0,0,11,10.3c4.9,2.8,8.6,3.7,11,2.4s3.7-4.8,3.7-10.7-1.2-10.9-3.6-14.9a29.8,29.8,0,0,0-11-10.3" fill="#582e77"/></g><g style="isolation:isolate"><path d="M92.2,123.3q-2.3,1.4-5.8,7.1v-3l-12.2,7.1v31.9l12.2-7.1V142.1l1-1.1a21.9,21.9,0,0,1,4.8-4.5V123.3" fill="#7d6899"/><polyline points="106.5 105.2 94.3 112.3 94.2 154.8 106.4 147.7 106.4 138.4 108 137.4 110.6 145.3 122.8 138.2 118.6 124.2 122.6 106.5 110.5 113.5 108 125.2 106.4 126.1 106.5 105.2" fill="#7d6899"/></g><g style="isolation:isolate"><polyline points="69.1 83.6 56.9 90.7 94.4 112.4 106.6 105.3 69.1 83.6" fill="#b3a3c4"/></g></g><g opacity="0.51"><polygon points="209.4 104.3 209.3 56.5 212.4 54.7 212.6 102.5 209.4 104.3" fill="#ccc"/><polygon points="197.8 111 197.6 63.2 200.8 61.4 201 109.2 197.8 111" fill="#ccc"/><polygon points="162.9 131.2 162.7 83.4 165.9 81.5 166.1 129.3 162.9 131.2" fill="#ccc"/><polygon points="139.6 144.6 139.5 96.8 142.7 95 142.8 142.7 139.6 144.6" fill="#ccc"/><polygon points="128 151.3 127.8 103.5 131 101.7 131.2 149.5 128 151.3" fill="#ccc"/><polygon points="104.7 164.7 104.6 117 107.8 115.1 107.9 162.9 104.7 164.7" fill="#ccc"/><polygon points="93.1 171.4 93 123.7 96.1 121.8 96.3 169.6 93.1 171.4" fill="#ccc"/><polygon points="81.5 178.2 81.3 130.4 84.5 128.5 84.7 176.3 81.5 178.2" fill="#ccc"/><polygon points="186.1 117.7 186 70 189.2 68.1 189.3 115.9 186.1 117.7" fill="#ccc"/><polygon points="174.5 124.4 174.4 76.7 177.6 74.8 177.7 122.6 174.5 124.4" fill="#ccc"/><polygon points="151.2 137.9 151.1 90.1 154.3 88.3 154.4 136 151.2 137.9" fill="#ccc"/><polygon points="116.3 158 116.2 110.2 119.4 108.4 119.5 156.2 116.3 158" fill="#ccc"/></g><g id="door_locks" data-name="door locks"><line x1="34.2" y1="110" x2="34.2" y2="168.6" fill="none" stroke="#f2f2f2" stroke-miterlimit="10" stroke-width="0.9"/><line x1="36" y1="111.8" x2="36" y2="170.4" fill="none" stroke="#000" stroke-miterlimit="10" stroke-width="0.9" opacity="0.1"/><line x1="34.4" y1="114.7" x2="36.8" y2="116" fill="none" stroke="#fff" stroke-miterlimit="10" stroke-width="0.78"/><line x1="34.4" y1="163.4" x2="36.8" y2="164.7" fill="none" stroke="#fff" stroke-miterlimit="10" stroke-width="0.78"/><line x1="21.6" y1="103.2" x2="21.6" y2="161.8" fill="none" stroke="#f2f2f2" stroke-miterlimit="10" stroke-width="0.9"/><line x1="23.4" y1="105" x2="23.4" y2="163.7" fill="none" stroke="#000" stroke-miterlimit="10" stroke-width="0.9" opacity="0.1"/><line x1="21.8" y1="107.9" x2="24.1" y2="109.3" fill="none" stroke="#fff" stroke-miterlimit="10" stroke-width="0.78"/><line x1="21.8" y1="156.6" x2="24.1" y2="157.9" fill="none" stroke="#fff" stroke-miterlimit="10" stroke-width="0.78"/><line x1="61.3" y1="126.7" x2="61.3" y2="185.3" fill="none" stroke="#f2f2f2" stroke-miterlimit="10" stroke-width="0.9"/><line x1="63.1" y1="128.5" x2="63.1" y2="187.1" fill="none" stroke="#000" stroke-miterlimit="10" stroke-width="0.9" opacity="0.1"/><line x1="61.5" y1="131.3" x2="63.8" y2="132.7" fill="none" stroke="#fff" stroke-miterlimit="10" stroke-width="0.78"/><line x1="61.5" y1="180" x2="63.8" y2="181.4" fill="none" stroke="#fff" stroke-miterlimit="10" stroke-width="0.78"/><line x1="46" y1="117.7" x2="46" y2="176.3" fill="none" stroke="#f2f2f2" stroke-miterlimit="10" stroke-width="0.9"/><line x1="47.8" y1="119.5" x2="47.8" y2="178.1" fill="none" stroke="#000" stroke-miterlimit="10" stroke-width="0.9" opacity="0.1"/><line x1="46.1" y1="122.3" x2="48.5" y2="123.7" fill="none" stroke="#fff" stroke-miterlimit="10" stroke-width="0.78"/><line x1="46.1" y1="171" x2="48.5" y2="172.4" fill="none" stroke="#fff" stroke-miterlimit="10" stroke-width="0.78"/></g><g id="labels" opacity="0.17"><path d="M68,136.1l-15-8.7a2.1,2.1,0,0,1-.9-1.7V125c0-.6.4-.9.9-.7L68,133a2.1,2.1,0,0,1,.9,1.7v.7C68.9,136.1,68.5,136.4,68,136.1Z" fill="#fff"/><path d="M68,140.4l-8.3-4.8a2.2,2.2,0,0,1-.9-1.8v-.4c0-.7.4-1,.9-.7l8.3,4.8a2.2,2.2,0,0,1,.9,1.8v.4C68.9,140.4,68.5,140.7,68,140.4Z" fill="#fff"/><path d="M68,144.4l-8.3-4.8a2.2,2.2,0,0,1-.9-1.8v-.4c0-.7.4-1,.9-.7l8.3,4.8a2.2,2.2,0,0,1,.9,1.8v.4C68.9,144.4,68.5,144.7,68,144.4Z" fill="#fff"/><path d="M68,155.6l-8.3-4.8a2.2,2.2,0,0,1-.9-1.8v-.4c0-.7.4-1,.9-.7l8.3,4.8a2.2,2.2,0,0,1,.9,1.8v.4C68.9,155.5,68.5,155.9,68,155.6Z" fill="#fff"/><path d="M68,159.6l-8.3-4.8a2.2,2.2,0,0,1-.9-1.8v-.4c0-.7.4-1,.9-.7l8.3,4.8a2.2,2.2,0,0,1,.9,1.8v.4C68.9,159.6,68.5,159.9,68,159.6Z" fill="#fff"/><path d="M68,183.5l-8.3-4.8a2.2,2.2,0,0,1-.9-1.8v-.4c0-.7.4-1,.9-.7l8.3,4.8a2.2,2.2,0,0,1,.9,1.8v.4C68.9,183.5,68.5,183.8,68,183.5Z" fill="#fff"/><path d="M68,187.6l-8.3-4.8a2.2,2.2,0,0,1-.9-1.8v-.4c0-.7.4-1,.9-.7l8.3,4.8a2.2,2.2,0,0,1,.9,1.8v.4C68.9,187.5,68.5,187.9,68,187.6Z" fill="#fff"/><path d="M29.5,128.3l-11.1-6.4a3.2,3.2,0,0,1-1.3-2.6V107.1c0-1,.6-1.4,1.3-1l11.1,6.4a3.2,3.2,0,0,1,1.3,2.6v12.3C30.9,128.3,30.3,128.7,29.5,128.3Z" fill="#fff"/></g></g></svg>