<svg xmlns="http://www.w3.org/2000/svg" width="237.1" height="213" viewBox="0 0 237.1 213"><title>shipping_container</title><g id="shipping_container" data-name="shipping container"><path d="M67.3,134.7,236.9,36.9l.2,78.3L67.6,213Z" fill="#e6e6e6"/><polygon points="67.6 213 4.1 176.1 3.9 97.9 67.3 134.7 67.6 213" fill="#d3d3d3"/><g id="top"><polygon points="67.3 134.7 3.9 97.9 173.4 0 236.9 36.9 67.3 134.7" fill="#f2f2f2"/></g><line id="door_divider" data-name="door divider" x1="34" y1="115.5" x2="34" y2="193.5" fill="none" stroke="#000" stroke-miterlimit="10" opacity="0.05"/><g opacity="0.2"><polygon points="27.6 95 74.1 121.8 70.3 123.9 23.9 97.1 27.6 95" opacity="0.07"/><polygon points="40.5 87.4 87 114.3 83.3 116.4 36.8 89.6 40.5 87.4" opacity="0.07"/><polygon points="53.4 79.9 99.9 106.7 96.2 108.9 49.7 82.1 53.4 79.9" opacity="0.07"/><polygon points="66.4 72.4 112.8 99.2 109.1 101.4 62.6 74.5 66.4 72.4" opacity="0.07"/><polygon points="79.3 64.9 125.8 91.7 122 93.9 75.6 67 79.3 64.9" opacity="0.07"/><polygon points="92.2 57.4 138.7 84.2 135 86.3 88.5 59.5 92.2 57.4" opacity="0.07"/><polygon points="105.1 49.8 151.6 76.7 147.9 78.8 101.4 52 105.1 49.8" opacity="0.07"/><polygon points="118.1 42.3 164.5 69.1 160.8 71.3 114.3 44.5 118.1 42.3" opacity="0.07"/><polygon points="131 34.8 177.5 61.6 173.7 63.8 127.3 36.9 131 34.8" opacity="0.07"/><polygon points="143.9 27.3 190.4 54.1 186.7 56.3 140.2 29.4 143.9 27.3" opacity="0.07"/><polygon points="156.8 19.8 203.3 46.6 199.6 48.7 153.1 21.9 156.8 19.8" opacity="0.07"/><polygon points="169.8 12.2 216.2 39.1 212.5 41.2 166 14.4 169.8 12.2" opacity="0.07"/></g><path d="M83.8,177.4l-12,6.9c-.5.3-.8,0-.8-.6v-1.4a2,2,0,0,1,.8-1.6l12-6.9c.5-.3.8,0,.8.6v1.4A2,2,0,0,1,83.8,177.4Z" fill="#fff" opacity="0.3"/><path d="M83.8,183.1l-12,6.9c-.5.3-.8,0-.8-.6V188a2,2,0,0,1,.8-1.6l12-6.9c.5-.3.8,0,.8.6v1.4A2,2,0,0,1,83.8,183.1Z" fill="#fff" opacity="0.3"/><g id="cork_logo" data-name="cork logo"><g style="isolation:isolate"><path d="M22,121.2q-8.3-4.8-11.8-2.8T6.7,130.9q0,10.4,3.2,16.4t12,11.1A42.1,42.1,0,0,0,33,162.9l-.4-12.5-8.7-4.5a6.6,6.6,0,0,1-2.7-2.6,9.5,9.5,0,0,1-.7-4.3c0-1.8.3-3,.8-3.4s1.5-.2,2.9.6l8.4,5.4.5-12.1L31.3,128a64.7,64.7,0,0,0-9.3-6.8" fill="#582e77"/><path d="M51,138q-8.2-4.7-12.2-2.7t-4.1,11.9q0,9.9,4,16.5a33.2,33.2,0,0,0,12.2,11.4c5.4,3.1,9.5,4.1,12.2,2.7s4.1-5.3,4.1-11.9-1.3-12.1-4-16.6A33,33,0,0,0,51,138" fill="#582e77"/></g><g style="isolation:isolate"><path d="M90.8,131.8q-2.6,1.5-6.4,7.9v-3.3l-13.6,7.9v35.3l13.6-7.9V152.6l1.1-1.3a24.3,24.3,0,0,1,5.3-5V131.8" fill="#7d6899"/><polyline points="106.6 111.7 93.1 119.6 93 166.7 106.5 158.8 106.5 148.5 108.3 147.4 111.2 156.1 124.7 148.2 120 132.7 124.5 113.1 111.1 120.9 108.3 133.8 106.6 134.8 106.6 111.7" fill="#7d6899"/></g><g style="isolation:isolate"><polyline points="65.2 87.8 51.6 95.6 93.2 119.6 106.8 111.8 65.2 87.8" fill="#b3a3c4"/></g></g><g opacity="0.51"><polygon points="220.7 110.7 220.6 57.7 224.1 55.6 224.3 108.6 220.7 110.7" fill="#ccc"/><polygon points="207.8 118.1 207.7 65.1 211.2 63.1 211.4 116.1 207.8 118.1" fill="#ccc"/><polygon points="169.2 140.5 169 87.5 172.5 85.4 172.7 138.4 169.2 140.5" fill="#ccc"/><polygon points="143.4 155.4 143.2 102.4 146.8 100.3 146.9 153.3 143.4 155.4" fill="#ccc"/><polygon points="130.5 162.8 130.3 109.8 133.9 107.8 134 160.8 130.5 162.8" fill="#ccc"/><polygon points="104.7 177.7 104.5 124.7 108.1 122.7 108.2 175.7 104.7 177.7" fill="#ccc"/><polygon points="91.8 185.1 91.6 132.2 95.2 130.1 95.3 183.1 91.8 185.1" fill="#ccc"/><polygon points="78.9 192.6 78.7 139.6 82.3 137.6 82.4 190.5 78.9 192.6" fill="#ccc"/><polygon points="194.9 125.6 194.8 72.6 198.3 70.5 198.5 123.5 194.9 125.6" fill="#ccc"/><polygon points="182.1 133 181.9 80 185.4 78 185.6 131 182.1 133" fill="#ccc"/><polygon points="156.3 147.9 156.1 94.9 159.7 92.9 159.8 145.9 156.3 147.9" fill="#ccc"/><polygon points="117.6 170.3 117.4 117.3 121 115.2 121.1 168.2 117.6 170.3" fill="#ccc"/></g><g id="door_locks" data-name="door locks"><line x1="26.5" y1="117" x2="26.5" y2="182" fill="none" stroke="#f2f2f2" stroke-miterlimit="10"/><line x1="28.5" y1="119" x2="28.5" y2="184" fill="none" stroke="#000" stroke-miterlimit="10" opacity="0.1"/><line x1="26.7" y1="122.2" x2="29.3" y2="123.7" fill="none" stroke="#fff" stroke-miterlimit="10" stroke-width="0.86"/><line x1="26.7" y1="176.2" x2="29.3" y2="177.7" fill="none" stroke="#fff" stroke-miterlimit="10" stroke-width="0.86"/><line x1="12.5" y1="109.5" x2="12.5" y2="174.5" fill="none" stroke="#f2f2f2" stroke-miterlimit="10"/><line x1="14.5" y1="111.5" x2="14.5" y2="176.5" fill="none" stroke="#000" stroke-miterlimit="10" opacity="0.1"/><line x1="12.7" y1="114.7" x2="15.3" y2="116.2" fill="none" stroke="#fff" stroke-miterlimit="10" stroke-width="0.86"/><line x1="12.7" y1="168.7" x2="15.3" y2="170.2" fill="none" stroke="#fff" stroke-miterlimit="10" stroke-width="0.86"/><line x1="56.5" y1="135.5" x2="56.5" y2="200.5" fill="none" stroke="#f2f2f2" stroke-miterlimit="10"/><line x1="58.5" y1="137.5" x2="58.5" y2="202.5" fill="none" stroke="#000" stroke-miterlimit="10" opacity="0.1"/><line x1="56.7" y1="140.7" x2="59.3" y2="142.2" fill="none" stroke="#fff" stroke-miterlimit="10" stroke-width="0.86"/><line x1="56.7" y1="194.7" x2="59.3" y2="196.2" fill="none" stroke="#fff" stroke-miterlimit="10" stroke-width="0.86"/><line x1="39.5" y1="125.5" x2="39.5" y2="190.5" fill="none" stroke="#f2f2f2" stroke-miterlimit="10"/><line x1="41.5" y1="127.5" x2="41.5" y2="192.5" fill="none" stroke="#000" stroke-miterlimit="10" opacity="0.1"/><line x1="39.7" y1="130.7" x2="42.3" y2="132.2" fill="none" stroke="#fff" stroke-miterlimit="10" stroke-width="0.86"/><line x1="39.7" y1="184.7" x2="42.3" y2="186.2" fill="none" stroke="#fff" stroke-miterlimit="10" stroke-width="0.86"/></g><g id="labels" opacity="0.17"><path d="M64,145.9l-16.6-9.6a2.3,2.3,0,0,1-1-1.9v-.8c0-.7.4-1,1-.7L64,142.6a2.3,2.3,0,0,1,1,1.9v.8C65,145.9,64.5,146.2,64,145.9Z" fill="#fff"/><path d="M63.9,150.7l-9.2-5.3a2.4,2.4,0,0,1-1-1.9V143c0-.7.5-1.1,1-.8l9.2,5.3a2.4,2.4,0,0,1,1,1.9v.4C65,150.7,64.5,151,63.9,150.7Z" fill="#fff"/><path d="M63.9,155.2l-9.2-5.3a2.4,2.4,0,0,1-1-1.9v-.4c0-.7.5-1.1,1-.8l9.2,5.3a2.4,2.4,0,0,1,1,1.9v.4C65,155.2,64.5,155.5,63.9,155.2Z" fill="#fff"/><path d="M63.9,167.5l-9.2-5.3a2.4,2.4,0,0,1-1-1.9v-.4c0-.7.5-1.1,1-.8l9.2,5.3a2.4,2.4,0,0,1,1,1.9v.4C65,167.5,64.5,167.9,63.9,167.5Z" fill="#fff"/><path d="M63.9,172l-9.2-5.3a2.4,2.4,0,0,1-1-1.9v-.4c0-.7.5-1.1,1-.8l9.2,5.3a2.4,2.4,0,0,1,1,1.9v.4C65,172,64.5,172.3,63.9,172Z" fill="#fff"/><path d="M63.9,198.5l-9.2-5.3a2.4,2.4,0,0,1-1-1.9v-.4c0-.7.5-1.1,1-.8l9.2,5.3a2.4,2.4,0,0,1,1,1.9v.4C65,198.5,64.5,198.9,63.9,198.5Z" fill="#fff"/><path d="M63.9,203l-9.2-5.3a2.4,2.4,0,0,1-1-1.9v-.4c0-.7.5-1.1,1-.8l9.2,5.3a2.4,2.4,0,0,1,1,1.9v.4C65,203,64.5,203.3,63.9,203Z" fill="#fff"/><path d="M21.3,137.3,8.9,130.2a3.6,3.6,0,0,1-1.5-2.9V113.7c0-1.1.7-1.6,1.5-1.1l12.3,7.1a3.6,3.6,0,0,1,1.5,2.9v13.6C22.8,137.3,22.1,137.8,21.3,137.3Z" fill="#fff"/></g></g></svg>