<svg xmlns="http://www.w3.org/2000/svg" xmlns:xlink="http://www.w3.org/1999/xlink" width="200" height="200" viewBox="0 0 200 200"><defs><clipPath id="clip-path"><path id="_Clipping_Path_" data-name="&lt;Clipping Path&gt;" d="M187,91l-79,46a12,12,0,0,1-11,0L17,90l-2-2,15,58a65,65,0,0,0,50,43,124,124,0,0,0,41,0,65,65,0,0,0,52-44l16-58Z" fill="#a07a5c"/></clipPath><linearGradient id="linear-gradient" x1="102.02" y1="72.3" x2="102.02" y2="137.01" gradientUnits="userSpaceOnUse"><stop offset="0" stop-color="#409fb5"/><stop offset="1" stop-color="#53b5cc"/></linearGradient><radialGradient id="radial-gradient" cx="101.75" cy="138.03" r="60.07" gradientUnits="userSpaceOnUse"><stop offset="0" stop-color="#36949e"/><stop offset="1" stop-color="#2b858f"/></radialGradient><linearGradient id="linear-gradient-2" x1="74.06" y1="141.12" x2="74.06" y2="137.03" xlink:href="#linear-gradient"/><linearGradient id="linear-gradient-3" x1="155.89" y1="123.77" x2="155.89" y2="118.29" xlink:href="#linear-gradient"/><linearGradient id="linear-gradient-4" x1="69.51" y1="146.48" x2="69.51" y2="143.53" xlink:href="#linear-gradient"/><linearGradient id="linear-gradient-5" x1="67.29" y1="124.51" x2="67.29" y2="123.03" xlink:href="#linear-gradient"/><clipPath id="clip-path-3"><path id="_Clipping_Path_3" data-name="&lt;Clipping Path&gt;" d="M163,62V53L94,93H87v20l70-41A11,11,0,0,0,163,62Z" fill="#25354f"/></clipPath><clipPath id="clip-path-4"><path id="_Clipping_Path_4" data-name="&lt;Clipping Path&gt;" d="M62,112H87V92H46v4A16,16,0,0,0,62,112Z" fill="#1f2a3a"/></clipPath><clipPath id="clip-path-5"><path d="M126,11v9h-5V10h5Z" fill="none"/></clipPath><clipPath id="clip-path-6"><path d="M128,11v9l-2,3c-2,1-6,2-7,1V14c2,1,5,1,7-1Z" fill="none"/></clipPath><clipPath id="clip-path-7"><path d="M139,18v9h-5V18h5Z" fill="none"/></clipPath><clipPath id="clip-path-8"><path d="M141,18v9l-2,3c-2,1-6,2-7,1V21c2,1,5,1,7-1Z" fill="none"/></clipPath><clipPath id="clip-path-9"><polygon points="73 60 73 83 53 71 53 48 73 60" fill="none"/></clipPath><clipPath id="clip-path-10"><polygon points="73 60 93 48 92 71 73 82 73 60" fill="none"/></clipPath><clipPath id="clip-path-11"><polygon points="53 48 73 36 93 48 73 60 53 48" fill="none"/></clipPath><clipPath id="clip-path-12"><polygon points="94 71 94 94 74 83 75 60 94 71" fill="none"/></clipPath><clipPath id="clip-path-13"><polygon points="94 71 114 59 114 82 94 94 94 71" fill="none"/></clipPath><clipPath id="clip-path-14"><polygon points="75 59 94 48 114 59 94 71 75 59" fill="none"/></clipPath></defs><title>boat</title><g style="isolation:isolate"><g id="Boat-2" data-name="Boat"><g id="water_and_cork" data-name="water and cork"><path d="M187,84c3,2,3,5,0,6l-79,46a12,12,0,0,1-11,0L17,91c-3-2-3-5,0-6L96,38a12,12,0,0,1,11,0Z" fill="#52b3d1"/><path d="M14,87h0Z" fill="#b5885e"/><path id="_Clipping_Path_5" data-name="&lt;Clipping Path&gt;" d="M187,91l-79,46a12,12,0,0,1-11,0L17,90l-2-2,15,58a65,65,0,0,0,50,43,124,124,0,0,0,41,0,65,65,0,0,0,52-44l16-58Z" fill="#a07a5c"/><g clip-path="url(#clip-path)"><path d="M141,170c-25,13-41,4-41-6V103L201,50l-14,50C187,123,166,157,141,170Z" fill="#ceac91" opacity="0.2"/><path d="M192,56l-10,46c0,21-17,49-39,61-7,4-20,9-25,9s-16-5-16-12V103Z" fill="#ceac91" opacity="0.3"/><path d="M183,61l-5,42c0,19-13,42-32,52-3,2-22,11-24,11s-16-3-16-10V103Z" fill="#ceac91" opacity="0.4"/><path d="M148,147l-23,13a10,10,0,0,1-16-9V103l64-37v37A50,50,0,0,1,148,147Z" fill="#ceac91" opacity="0.5"/><path d="M238,84c5,3,5,7,0,10L111,168c-5,3-13,3-18,0L-34,95c-5-3-5-7,0-10L93,11c5-3,13-3,18,0Z" fill="#36949e"/></g><path d="M189,88h0Z" fill="#b5885e"/><path d="M14,87h0Z" fill="#b5885e"/><path id="_Clipping_Path_6" data-name="&lt;Clipping Path&gt;" d="M187,91l-79,46a12,12,0,0,1-11,0L17,90l-2-2,15,58a65,65,0,0,0,50,43,124,124,0,0,0,41,0,65,65,0,0,0,52-44l16-58Z" fill="#a07a5c"/><g clip-path="url(#clip-path)"><path d="M141,170c-25,13-41,4-41-6V103L201,50l-14,50C187,123,166,157,141,170Z" fill="#ceac91" opacity="0.2"/><path d="M192,56l-10,46c0,21-17,49-39,61-7,4-20,9-25,9s-16-5-16-12V103Z" fill="#ceac91" opacity="0.3"/><path d="M183,61l-5,42c0,19-13,42-32,52-3,2-22,11-24,11s-16-3-16-10V103Z" fill="#ceac91" opacity="0.4"/><path d="M148,147l-23,13a10,10,0,0,1-16-9V103l64-37v37A50,50,0,0,1,148,147Z" fill="#ceac91" opacity="0.5"/><path d="M238,84c5,3,5,7,0,10L111,168c-5,3-13,3-18,0L-34,95c-5-3-5-7,0-10L93,11c5-3,13-3,18,0Z" fill="#36949e"/></g><path d="M189,88h0Z" fill="#b5885e"/><polygon points="84 163 85 164 86 164 85 173 85 181 84 172 84 163" fill="#584434"/><polygon points="141 152 141 151 141 151 141 157 141 163 141 157 141 152" fill="#7c5f49"/><polygon points="114 167 114 167 114 167 114 173 114 180 114 174 114 167" fill="#7c5f49"/><polygon points="116 166 116 166 117 166 116 171 116 177 116 171 116 166" fill="#584434"/><path d="M78,173c0,1-1,2-2,1a5,5,0,0,1-2-4c0-1,1-2,2-1A5,5,0,0,1,78,173Z" fill="#7c5f49" opacity="0.6"/><path d="M51,170c0,1,0,2-2,2l-3-3c0-1,0-2,2-2Z" fill="#7c5f49" opacity="0.58"/><path d="M110,184c1,0,2,1,1,1h-3c-1,0-2-1-1-1Z" fill="#584434" opacity="0.5" style="mix-blend-mode:multiply"/><path d="M155,146a5,5,0,0,1-1,4c-1,1-2,1-3,0a5,5,0,0,1,1-4C154,144,155,144,155,146Z" fill="#7c5f49" opacity="0.4"/><path d="M140,174a5,5,0,0,1-1,4c-1,1-2,1-3,0a5,5,0,0,1,1-4C139,173,140,173,140,174Z" fill="#7c5f49" opacity="0.2"/><path d="M50,154c0,4-3,5-6,3a12,12,0,0,1-6-10c0-4,3-5,6-3A12,12,0,0,1,50,154Z" fill="#7c5f49" opacity="0.3"/><path d="M58,162c0,4-3,5-6,3a12,12,0,0,1-6-10c0-4,3-5,6-3A12,12,0,0,1,58,162Z" fill="#7c5f49"/><path d="M38,142c0,2-2,3-4,2a8,8,0,0,1-4-6c0-2,2-3,4-2A8,8,0,0,1,38,142Z" fill="#939393" opacity="0.5" style="mix-blend-mode:multiply"/><path d="M158,161c0,4-3,9-6,11s-6,0-6-4,3-9,6-11S158,156,158,161Z" fill="#7c5f49" opacity="0.58"/><path d="M108,137l55-32L107,73a12,12,0,0,0-11,0L41,105l55,32A12,12,0,0,0,108,137Z" fill="url(#linear-gradient)"/><line x1="173" y1="146" x2="197" y2="137" fill="#36949e"/><path d="M163,105l-55,32a12,12,0,0,1-11,0L41,105,23,116l4,14,70,40a12,12,0,0,0,11,0l68-40,4-14Z" fill="url(#radial-gradient)"/><circle cx="74" cy="139" r="2" fill="url(#linear-gradient-2)"/><circle cx="156" cy="121" r="3" fill="url(#linear-gradient-3)"/><circle cx="135" cy="99" r="2" fill="#339e9e"/><circle cx="131" cy="107" r="1" fill="#339e9e"/><circle cx="70" cy="145" r="1" fill="url(#linear-gradient-4)"/><circle cx="67" cy="124" r="1" fill="url(#linear-gradient-5)"/></g><g id="Layer_23" data-name="Layer 23"><path d="M160,74,129,60h-4L105,71l35,21,20-11A4,4,0,0,0,160,74Z" fill="#4ea1bb"/><path d="M55,100a4,4,0,0,0-1,5v6l2,2,33,7h3l48-27L105,71Z" fill="#4395a9"/><path d="M136,93H119l-9,5a1,1,0,0,0,0,1l26-6A1,1,0,0,0,136,93Z" fill="#1e8c9e"/><path d="M114,104H101l-6,4a0,0,0,0,0,0,1l19-4A0,0,0,0,0,114,104Z" fill="#1e8c9e"/><path d="M169,77H148l-11,6a1,1,0,0,0,0,1l31-7A1,1,0,0,0,169,77Z" fill="#1e8c9e"/></g><g id="smaller_boat" data-name="smaller boat"><polygon points="46 69 52 69 122 29 163 53 94 93 87 92 46 93 46 69" fill="#4d6282"/><polygon points="94 45 94 29 135 53 135 69 94 45" fill="#6f8fa5"/><polygon points="156 41 135 53 135 69 156 57 156 41" fill="#cad3dd"/><polygon points="115 17 156 41 135 53 94 29 115 17" fill="#25354f"/><polygon points="101 25 101 33 128 49 128 41 101 25" fill="#6f8fa5"/><polygon points="149 29 128 41 128 49 149 37 149 29" fill="#cad3dd"/><polygon points="122 13 101 25 128 41 149 29 122 13" fill="#25354f"/><path id="_Clipping_Path_7" data-name="&lt;Clipping Path&gt;" d="M163,62V53L94,93H87v20l70-41A11,11,0,0,0,163,62Z" fill="#25354f"/><g clip-path="url(#clip-path-3)"><polygon points="170 57 80 109 80 116 170 65 170 57" fill="#69727f"/></g><path id="_Clipping_Path_8" data-name="&lt;Clipping Path&gt;" d="M62,112H87V92H46v4A16,16,0,0,0,62,112Z" fill="#1f2a3a"/><g clip-path="url(#clip-path-4)"><polygon points="46 104 46 112 87 112 87 104 46 104" fill="#4b535b"/></g><path d="M138,57h-1V53h1Z" fill="#89dbef"/><path d="M142,55h-1V51h1Z" fill="#89dbef"/><path d="M146,53h-1V49h1Z" fill="#89dbef"/><path d="M150,51h-1V46h1Z" fill="#89dbef"/><path d="M153,48h-1V44h1Z" fill="#89dbef"/><path d="M131,45h-1V41h1Z" fill="#89dbef"/><path d="M135,43h-1V39h1Z" fill="#89dbef"/><path d="M139,41h-1V37h1Z" fill="#89dbef"/><path d="M143,38h-1V34h1Z" fill="#89dbef"/><path d="M104,32h0V29h2v2h-1Z" fill="#89dbef"/><path d="M108,35h0V32h2v2h-1Z" fill="#89dbef"/><path d="M113,37h0V35h2v2h-1Z" fill="#89dbef"/><path d="M117,40h0V37h2v2h-1Z" fill="#89dbef"/><path d="M122,42h0V40h2v2h-1Z" fill="#89dbef"/><path d="M126,45h0V42h2v2h-1Z" fill="#89dbef"/><polygon points="149 30 145 32 145 39 149 37 149 30" fill="#989fa0"/><polygon points="134 62 130 60 130 66 134 68 134 62" fill="#7a7f7f" style="mix-blend-mode:multiply"/><path d="M125,23c-3,2-7,2-9,1s-1-3,2-5,7-2,9-1S128,22,125,23Z" fill="#1e2a3e"/><g style="isolation:isolate"><g style="isolation:isolate"><g clip-path="url(#clip-path-5)"><g style="isolation:isolate"><path d="M126,11v9h-1V10h1" fill="#939393"/><path d="M124,10v9h-1V10h1" fill="#9f9f9f"/><path d="M124,10v9h-1V10h1" fill="#ababab"/><path d="M123,10v9h-1V10h1" fill="#b7b7b7"/><path d="M122,10v9h-1V10h1" fill="#c3c3c3"/><path d="M121,10v9h-1V11h1" fill="#b7b7b7"/><path d="M120,11v9h0V12h0" fill="#ababab"/><path d="M119,12v9h0V12h0" fill="#9f9f9f"/></g></g></g><g style="isolation:isolate"><g clip-path="url(#clip-path-6)"><g style="isolation:isolate"><path d="M128,11v9h0V11h0" fill="#9f9f9f"/><path d="M128,11v9h0V12h0" fill="#ababab"/><path d="M127,12v9h-2V13h2" fill="#b7b7b7"/><path d="M126,13v9h-2V14h2" fill="#c3c3c3"/><path d="M124,14v9h-2V15h2" fill="#b7b7b7"/><path d="M122,15v9h-1V15h1" fill="#ababab"/><path d="M120,15v9h-1V14h1" fill="#9f9f9f"/><path d="M119,14v9h-1V14h1" fill="#939393"/></g></g></g><path d="M127,9c2,1,1,3-1,4s-6,2-7,1-1-3,1-4S125,8,127,9Zm-7,4h4c1-1,2-2,1-3h-4c-1,1-2,2-1,3" fill="#dedede"/></g><path d="M128,12v2l-2,3c-2,1-6,2-7,1V15c2,1,5,1,7-1Z" fill="#a81a1a"/><path d="M139,31c-3,2-7,2-9,1s-1-3,2-5,7-2,9-1S142,29,139,31Z" fill="#1e2a3e"/><g style="isolation:isolate"><g style="isolation:isolate"><g clip-path="url(#clip-path-7)"><g style="isolation:isolate"><path d="M139,18v9h-1V17h1" fill="#939393"/><path d="M138,17v9h-1V17h1" fill="#9f9f9f"/><path d="M138,17v9h-1V17h1" fill="#ababab"/><path d="M137,17v9h-1V17h1" fill="#b7b7b7"/><path d="M135,17v9h-1V18h1" fill="#c3c3c3"/><path d="M134,18v9h-1V19h1" fill="#b7b7b7"/><path d="M133,19v9h0V19h0" fill="#ababab"/><path d="M133,19v9h0V19h0" fill="#9f9f9f"/></g></g></g><g style="isolation:isolate"><g clip-path="url(#clip-path-8)"><g style="isolation:isolate"><path d="M141,18v9h0V18h0" fill="#9f9f9f"/><path d="M141,18v9h0V19h0" fill="#ababab"/><path d="M141,19v9h-2V21h2" fill="#b7b7b7"/><path d="M139,21v9h-2V21h2" fill="#c3c3c3"/><path d="M138,21v9h-2V22h2" fill="#b7b7b7"/><path d="M135,22v9h-1V22h1" fill="#ababab"/><path d="M134,22v9h-1V22h1" fill="#9f9f9f"/><path d="M133,22v9h-1V21h1" fill="#939393"/></g></g></g><path d="M140,16c2,1,1,3-1,4s-6,2-7,1-1-3,1-4S139,15,140,16Zm-7,4h4c1-1,2-2,1-3h-4c-1,1-2,2-1,3" fill="#dedede"/></g><path d="M141,20v2l-2,3c-2,1-6,2-7,1V23c2,1,5,1,7-1Z" fill="#a81a1a"/><polygon points="46 69 52 69 47 92 46 92 46 69" fill="#637a91"/><polyline points="46 69 46 92 87 92" fill="none" stroke="#b1c3dd" stroke-miterlimit="10"/></g><g id="container-2" data-name="container"><polygon points="72 81 54 71 88 51 106 61 72 81" fill="#334256"/><polygon points="94 93 76 82 110 63 128 73 94 93" fill="#334256"/><g style="isolation:isolate"><polygon points="73 60 73 79 56 69 56 50 73 60" fill="#c2c2c2"/><polygon points="73 60 106 41 106 60 73 79 73 60" fill="#dbdbdb"/><polygon points="56 50 89 31 106 41 73 60 56 50" fill="#e5e5e5"/></g><g id="cork_logo" data-name="cork logo"><g style="isolation:isolate"><g clip-path="url(#clip-path-9)"><path d="M61,56H58q-1,1-1,3a9,9,0,0,0,1,4l3,3h3V64h0V58h0l-2-2" fill="#582e77"/><path d="M68,61H65q-1,1-1,3a8,8,0,0,0,1,4l3,3h3q1-1,1-3a8,8,0,0,0-1-4l-3-3" fill="#582e77"/></g></g><g opacity="0.6" style="isolation:isolate"><g clip-path="url(#clip-path-10)"><path d="M79,59l-2,2h0l-3,2v9l3-2V64h2V59" fill="#582e77"/><polyline points="83 54 79 56 79 68 83 66 83 63 83 63 84 65 87 63 86 59 87 54 84 56 83 59 83 60 83 54" fill="#582e77"/></g></g><g opacity="0.4" style="isolation:isolate"><g clip-path="url(#clip-path-11)"><polyline points="72 48 69 50 79 56 83 54 72 48" fill="#582e77"/></g></g></g><g id="labels" opacity="0.17"><path d="M72,63l-4-2h0l4,2h0Z" fill="#fff"/><path d="M72,64h0Z" fill="#fff"/><path d="M72,65h0Z" fill="#fff"/><path d="M72,68h0Z" fill="#fff"/><path d="M72,69h0Z" fill="#fff"/><path d="M72,76h0Z" fill="#fff"/><path d="M72,77h0Z" fill="#fff"/><path d="M61,60l-3-2h0V54h0l3,2h0v3Z" fill="#fff"/></g><g id="door_locks" data-name="door locks"><line x1="62" y1="55" x2="62" y2="72" fill="none" stroke="#f2f2f2" stroke-miterlimit="10" stroke-width="0.25"/><line x1="63" y1="56" x2="63" y2="72" fill="none" stroke="#000" stroke-miterlimit="10" stroke-width="0.25" opacity="0.1"/><line x1="62" y1="57" x2="63" y2="57" fill="none" stroke="#fff" stroke-miterlimit="10" stroke-width="0.22"/><line x1="62" y1="70" x2="63" y2="71" fill="none" stroke="#fff" stroke-miterlimit="10" stroke-width="0.22"/><line x1="59" y1="53" x2="59" y2="70" fill="none" stroke="#f2f2f2" stroke-miterlimit="10" stroke-width="0.25"/><line x1="59" y1="54" x2="59" y2="70" fill="none" stroke="#000" stroke-miterlimit="10" stroke-width="0.25" opacity="0.1"/><line x1="59" y1="55" x2="59" y2="55" fill="none" stroke="#fff" stroke-miterlimit="10" stroke-width="0.22"/><line x1="59" y1="68" x2="59" y2="69" fill="none" stroke="#fff" stroke-miterlimit="10" stroke-width="0.22"/><line x1="70" y1="60" x2="70" y2="76" fill="none" stroke="#f2f2f2" stroke-miterlimit="10" stroke-width="0.25"/><line x1="70" y1="60" x2="70" y2="77" fill="none" stroke="#000" stroke-miterlimit="10" stroke-width="0.25" opacity="0.1"/><line x1="70" y1="61" x2="71" y2="62" fill="none" stroke="#fff" stroke-miterlimit="10" stroke-width="0.22"/><line x1="70" y1="75" x2="71" y2="75" fill="none" stroke="#fff" stroke-miterlimit="10" stroke-width="0.22"/><line x1="66" y1="57" x2="66" y2="74" fill="none" stroke="#f2f2f2" stroke-miterlimit="10" stroke-width="0.25"/><line x1="66" y1="58" x2="66" y2="74" fill="none" stroke="#000" stroke-miterlimit="10" stroke-width="0.25" opacity="0.1"/><line x1="66" y1="59" x2="66" y2="59" fill="none" stroke="#fff" stroke-miterlimit="10" stroke-width="0.22"/><line x1="66" y1="72" x2="66" y2="73" fill="none" stroke="#fff" stroke-miterlimit="10" stroke-width="0.22"/></g><g style="isolation:isolate"><polygon points="94 71 94 90 77 81 77 62 94 71" fill="#c2c2c2"/><polygon points="94 71 127 52 127 71 94 90 94 71" fill="#dbdbdb"/><polygon points="77 62 111 42 127 52 94 71 77 62" fill="#e5e5e5"/></g><g id="cork_logo-2" data-name="cork logo"><g style="isolation:isolate"><g clip-path="url(#clip-path-12)"><path d="M83,68H80q-1,1-1,3a9,9,0,0,0,1,4l3,3h3V75h0V70h0l-2-2" fill="#582e77"/><path d="M90,72H87q-1,1-1,3a8,8,0,0,0,1,4l3,3h3q1-1,1-3a8,8,0,0,0-1-4l-3-3" fill="#582e77"/></g></g><g opacity="0.6" style="isolation:isolate"><g clip-path="url(#clip-path-13)"><path d="M100,70l-2,2h0l-3,2v9l3-2V76h2V70" fill="#582e77"/><polyline points="104 65 101 67 100 79 104 77 104 75 104 74 105 77 109 75 107 71 108 66 105 68 104 71 104 71 104 65" fill="#582e77"/></g></g><g opacity="0.4" style="isolation:isolate"><g clip-path="url(#clip-path-14)"><polyline points="94 59 90 61 101 67 104 65 94 59" fill="#582e77"/></g></g></g><g id="labels-2" data-name="labels" opacity="0.17"><path d="M93,74l-4-2h0l4,2h0Z" fill="#fff"/><path d="M93,75h0Z" fill="#fff"/><path d="M93,76h0Z" fill="#fff"/><path d="M93,79h0Z" fill="#fff"/><path d="M93,81h0Z" fill="#fff"/><path d="M93,87h0Z" fill="#fff"/><path d="M93,88h0Z" fill="#fff"/><path d="M82,72l-3-2h0V66h0l3,2h0v3Z" fill="#fff"/></g><g id="door_locks-2" data-name="door locks"><line x1="84" y1="67" x2="84" y2="83" fill="none" stroke="#f2f2f2" stroke-miterlimit="10" stroke-width="0.25"/><line x1="84" y1="67" x2="84" y2="84" fill="none" stroke="#000" stroke-miterlimit="10" stroke-width="0.25" opacity="0.1"/><line x1="84" y1="68" x2="84" y2="68" fill="none" stroke="#fff" stroke-miterlimit="10" stroke-width="0.22"/><line x1="84" y1="82" x2="84" y2="82" fill="none" stroke="#fff" stroke-miterlimit="10" stroke-width="0.22"/><line x1="80" y1="65" x2="80" y2="81" fill="none" stroke="#f2f2f2" stroke-miterlimit="10" stroke-width="0.25"/><line x1="81" y1="65" x2="81" y2="82" fill="none" stroke="#000" stroke-miterlimit="10" stroke-width="0.25" opacity="0.1"/><line x1="80" y1="66" x2="81" y2="66" fill="none" stroke="#fff" stroke-miterlimit="10" stroke-width="0.22"/><line x1="80" y1="80" x2="81" y2="80" fill="none" stroke="#fff" stroke-miterlimit="10" stroke-width="0.22"/><line x1="91" y1="71" x2="91" y2="88" fill="none" stroke="#f2f2f2" stroke-miterlimit="10" stroke-width="0.25"/><line x1="92" y1="72" x2="92" y2="88" fill="none" stroke="#000" stroke-miterlimit="10" stroke-width="0.25" opacity="0.1"/><line x1="91" y1="73" x2="92" y2="73" fill="none" stroke="#fff" stroke-miterlimit="10" stroke-width="0.22"/><line x1="91" y1="86" x2="92" y2="87" fill="none" stroke="#fff" stroke-miterlimit="10" stroke-width="0.22"/><line x1="87" y1="69" x2="87" y2="85" fill="none" stroke="#f2f2f2" stroke-miterlimit="10" stroke-width="0.25"/><line x1="88" y1="69" x2="88" y2="86" fill="none" stroke="#000" stroke-miterlimit="10" stroke-width="0.25" opacity="0.1"/><line x1="87" y1="70" x2="88" y2="70" fill="none" stroke="#fff" stroke-miterlimit="10" stroke-width="0.22"/><line x1="87" y1="84" x2="88" y2="84" fill="none" stroke="#fff" stroke-miterlimit="10" stroke-width="0.22"/></g></g></g></g></svg>