<svg xmlns="http://www.w3.org/2000/svg" xmlns:xlink="http://www.w3.org/1999/xlink" width="200" height="200" viewBox="0 0 200 200"><defs><clipPath id="clip-path"><path id="_Clipping_Path_" data-name="&lt;Clipping Path&gt;" d="M185,85l-79,46a12,12,0,0,1-11,0L15,85l-2-2,16,58a65,65,0,0,0,50,43,124,124,0,0,0,41,0,65,65,0,0,0,52-44l15-58Z" fill="#a07a5c"/></clipPath><clipPath id="clip-path-2"><path d="M118,78h0Z" fill="none"/></clipPath><clipPath id="clip-path-3"><path d="M116,84h-2a4,4,0,0,1,2-3h1a4,4,0,0,0-2,3Z" fill="none"/></clipPath><clipPath id="clip-path-4"><path d="M123,75h0Z" fill="none"/></clipPath><clipPath id="clip-path-5"><path d="M122,81h-2a4,4,0,0,1,2-3h1a4,4,0,0,0-2,3Z" fill="none"/></clipPath><clipPath id="clip-path-6"><path d="M134,69h0Z" fill="none"/></clipPath><clipPath id="clip-path-7"><path d="M132,75h-2a4,4,0,0,1,2-3h1a4,4,0,0,0-2,3Z" fill="none"/></clipPath><clipPath id="clip-path-8"><path d="M139,66h0Z" fill="none"/></clipPath><clipPath id="clip-path-9"><path d="M138,72h-2a4,4,0,0,1,2-3h1a4,4,0,0,0-2,3Z" fill="none"/></clipPath><clipPath id="clip-path-10"><polygon points="111 58 111 84 89 71 89 45 111 58" fill="none"/></clipPath><clipPath id="clip-path-11"><polygon points="111 58 133 45 133 71 111 84 111 58" fill="none"/></clipPath><clipPath id="clip-path-12"><polygon points="89 45 111 32 133 45 111 58 89 45" fill="none"/></clipPath><clipPath id="clip-path-13"><path d="M77,102h0Z" fill="none"/></clipPath><clipPath id="clip-path-14"><path d="M75,108H73a4,4,0,0,1,2-3h1a4,4,0,0,0-2,3Z" fill="none"/></clipPath><clipPath id="clip-path-15"><path d="M82,99h0Z" fill="none"/></clipPath><clipPath id="clip-path-16"><path d="M80,105H79a4,4,0,0,1,2-3h1a4,4,0,0,0-2,3Z" fill="none"/></clipPath><clipPath id="clip-path-17"><path d="M94,93h0Z" fill="none"/></clipPath><clipPath id="clip-path-18"><path d="M92,98H90a4,4,0,0,1,2-3h1a4,4,0,0,0-2,3Z" fill="none"/></clipPath><clipPath id="clip-path-19"><path d="M99,90h0Z" fill="none"/></clipPath><clipPath id="clip-path-20"><path d="M97,95H96a4,4,0,0,1,2-3h1a4,4,0,0,0-2,3Z" fill="none"/></clipPath><linearGradient id="linear-gradient" x1="41.53" y1="69.31" x2="49.62" y2="69.31" gradientTransform="translate(117 25) rotate(90)" gradientUnits="userSpaceOnUse"><stop offset="0" stop-color="#fff"/><stop offset="1" stop-color="#666"/></linearGradient><clipPath id="clip-path-21"><path id="_Clipping_Path_2" data-name="&lt;Clipping Path&gt;" d="M-37,91l-79,46a12,12,0,0,1-11,0l-80-46-2-2,15,58a65,65,0,0,0,50,43,124,124,0,0,0,41,0,65,65,0,0,0,52-44l16-58Z" fill="#a07a5c"/></clipPath></defs><title>train</title><g style="isolation:isolate"><g id="train"><g id="cork"><path d="M13,82h0Z" fill="#b5885e"/><path id="_Clipping_Path_4" data-name="&lt;Clipping Path&gt;" d="M185,85l-79,46a12,12,0,0,1-11,0L15,85l-2-2,16,58a65,65,0,0,0,50,43,124,124,0,0,0,41,0,65,65,0,0,0,52-44l15-58Z" fill="#a07a5c"/><g clip-path="url(#clip-path)"><path d="M140,165c-25,13-41,4-41-6V98L199,45,185,95C185,117,165,151,140,165Z" fill="#ceac91" opacity="0.2"/><path d="M190,50l-9,46c0,21-17,49-38,61-7,4-20,9-25,9s-16-5-16-12V98Z" fill="#ceac91" opacity="0.3"/><path d="M181,55l-5,42c0,19-13,42-32,52-3,2-22,11-24,11s-16-3-16-10V98Z" fill="#ceac91" opacity="0.4"/><path d="M147,141l-23,13a10,10,0,0,1-16-9V97l64-37V98A50,50,0,0,1,147,141Z" fill="#ceac91" opacity="0.5"/></g><path d="M187,83h0Z" fill="#b5885e"/><polygon points="27 92 28 92 29 93 28 101 28 109 27 101 27 92" fill="#564031"/><polygon points="133 113 134 113 135 113 135 124 134 136 134 125 133 113" fill="#84644e"/><polygon points="124 120 124 120 125 120 125 127 125 134 124 127 124 120" fill="#84644e"/><polygon points="127 119 127 118 127 118 127 124 127 130 127 124 127 119" fill="#564031" style="mix-blend-mode:multiply"/><polygon points="90 127 92 127 93 128 93 144 92 159 91 143 90 127" fill="#84624c"/><path d="M60,149c0,1-1,2-2,1a5,5,0,0,1-2-4c0-1,1-2,2-1A5,5,0,0,1,60,149Z" fill="#6d513e" opacity="0.6"/><path d="M50,164c0,1,0,2-2,2l-3-3c0-1,0-2,2-2Z" fill="#84624c"/><path d="M88,180H84a1,1,0,0,1,0-2h4A1,1,0,0,1,88,180Z" fill="#6d513e" opacity="0.5"/><path d="M126,176c1,0,2,1,1,1h-3c-1,0-2-1-1-1Z" fill="#6d513e" opacity="0.5"/><path d="M154,141a5,5,0,0,1-1,4c-1,1-2,1-3,0a5,5,0,0,1,1-4C152,139,154,139,154,141Z" fill="#8c6856" opacity="0.4"/><path d="M176,100a5,5,0,0,1-1,4c-1,1-2,1-3,0a5,5,0,0,1,1-4C174,99,176,99,176,100Z" fill="#6d513e"/><path d="M165,109a2,2,0,0,1-1,2h-1a2,2,0,0,1,1-2Z" fill="#6d513e"/><path d="M120,141a5,5,0,0,1-1,4c-1,1-2,1-3,0a5,5,0,0,1,1-4C118,139,120,139,120,141Z" fill="#84624c" opacity="0.2"/><path d="M58,150c0,4-3,5-6,3a12,12,0,0,1-6-10c0-4,3-5,6-3A12,12,0,0,1,58,150Z" fill="#8c6856"/><path d="M89,130c0,4-3,5-6,3a12,12,0,0,1-6-10c0-4,3-5,6-3A12,12,0,0,1,89,130Z" fill="#84624c"/><path d="M40,127c0,2-2,3-4,2a8,8,0,0,1-4-6c0-2,2-3,4-2A8,8,0,0,1,40,127Z" fill="#84624c"/><path d="M157,155c0,4-3,9-6,11s-6,0-6-4,3-9,6-11S157,151,157,155Z" fill="#6d513e" opacity="0.2"/></g><g id="dessert"><path d="M185,79c3,2,3,5,0,6l-79,46a12,12,0,0,1-11,0L15,86c-3-2-3-5,0-6L94,33a12,12,0,0,1,11,0Z" fill="#c69c6d"/></g><g id="tracks"><g style="isolation:isolate"><polygon points="155 62 66 114 65 113 154 61 155 62" fill="#412e22"/><polygon points="155 62 155 62 66 114 66 114 155 62" fill="#3b291f"/><polygon points="66 114 66 114 65 114 65 113 66 114" fill="#291c15"/></g><g style="isolation:isolate"><polygon points="141 54 52 106 51 105 140 53 141 54" fill="#412e22"/><polygon points="141 54 141 54 52 106 52 106 141 54" fill="#3b291f"/><polygon points="52 106 52 106 51 106 51 105 52 106" fill="#291c15"/></g></g><g id="container"><g opacity="0.3"><path d="M111,88,92,77c-1,0,0-1,0-1l36-21h2l19,11c1,0,0,1,0,1L113,88Z"/></g><polygon points="92 68 111 79 111 86 92 75 92 68" fill="#333"/><polygon points="114 81 114 82 125 77 124 76 114 81" fill="#333"/><polygon points="124 76 126 77 126 75 124 76" fill="#333"/><g style="isolation:isolate"><g style="isolation:isolate"><g clip-path="url(#clip-path-2)"><g style="isolation:isolate"><path d="M118,79h0" fill="#7a7a7a"/><path d="M118,79h0" fill="#737373"/><path d="M119,79h0" fill="#6b6b6b"/><path d="M119,79h0" fill="#636363"/></g></g></g><g style="isolation:isolate"><g clip-path="url(#clip-path-3)"><g style="isolation:isolate"><path d="M116,84h0" fill="#545454"/><path d="M116,82h0" fill="#5c5c5c"/><path d="M116,81h0" fill="#636363"/><path d="M116,81h0" fill="#6b6b6b"/><path d="M116,81h0" fill="#737373"/><path d="M117,80h0" fill="#7a7a7a"/></g></g></g><path d="M118,79c1-1,2,0,2,1a4,4,0,0,1-2,3c-1,1-2,0-2-1A4,4,0,0,1,118,79Z" fill="#767676"/></g><g style="isolation:isolate"><g style="isolation:isolate"><g clip-path="url(#clip-path-4)"><g style="isolation:isolate"><path d="M123,76h0" fill="#7a7a7a"/><path d="M124,76h0" fill="#737373"/><path d="M124,76h0" fill="#6b6b6b"/><path d="M124,76h0" fill="#636363"/></g></g></g><g style="isolation:isolate"><g clip-path="url(#clip-path-5)"><g style="isolation:isolate"><path d="M122,81h0" fill="#545454"/><path d="M121,79h0" fill="#5c5c5c"/><path d="M121,78h0" fill="#636363"/><path d="M121,78h0" fill="#6b6b6b"/><path d="M122,77h0" fill="#737373"/><path d="M122,77h0" fill="#7a7a7a"/></g></g></g><path d="M123,76c1-1,2,0,2,1a4,4,0,0,1-2,3c-1,1-2,0-2-1A4,4,0,0,1,123,76Z" fill="#767676"/></g><polygon points="130 72 130 73 141 67 140 67 130 72" fill="#333"/><polygon points="140 67 142 68 142 66 140 67" fill="#333"/><g style="isolation:isolate"><g style="isolation:isolate"><g clip-path="url(#clip-path-6)"><g style="isolation:isolate"><path d="M134,70h0" fill="#7a7a7a"/><path d="M134,70h0" fill="#737373"/><path d="M135,70h0" fill="#6b6b6b"/><path d="M135,70h0" fill="#636363"/></g></g></g><g style="isolation:isolate"><g clip-path="url(#clip-path-7)"><g style="isolation:isolate"><path d="M132,75h0" fill="#545454"/><path d="M132,73h0" fill="#5c5c5c"/><path d="M132,72h0" fill="#636363"/><path d="M132,72h0" fill="#6b6b6b"/><path d="M132,71h0" fill="#737373"/><path d="M133,71h0" fill="#7a7a7a"/></g></g></g><path d="M134,70c1-1,2,0,2,1a4,4,0,0,1-2,3c-1,1-2,0-2-1A4,4,0,0,1,134,70Z" fill="#767676"/></g><g style="isolation:isolate"><g style="isolation:isolate"><g clip-path="url(#clip-path-8)"><g style="isolation:isolate"><path d="M139,67h0" fill="#7a7a7a"/><path d="M140,67h0" fill="#737373"/><path d="M140,67h0" fill="#6b6b6b"/><path d="M140,67h0" fill="#636363"/></g></g></g><g style="isolation:isolate"><g clip-path="url(#clip-path-9)"><g style="isolation:isolate"><path d="M138,72h0" fill="#545454"/><path d="M137,69h0" fill="#5c5c5c"/><path d="M137,69h0" fill="#636363"/><path d="M137,69h0" fill="#6b6b6b"/><path d="M138,68h0" fill="#737373"/><path d="M138,68h0" fill="#7a7a7a"/></g></g></g><path d="M139,67c1-1,2,0,2,1a4,4,0,0,1-2,3c-1,1-2,0-2-1A4,4,0,0,1,139,67Z" fill="#767676"/></g><polygon points="147 64 142 68 142 66 130 72 130 74 126 77 126 75 114 81 114 84 111 86 111 79 147 58 147 64" fill="#4d4d4d"/><g style="isolation:isolate"><polygon points="111 58 111 80 92 69 92 47 111 58" fill="#c2c2c2"/><polygon points="111 58 148 37 148 58 111 80 111 58" fill="#dbdbdb"/><polygon points="92 47 129 26 148 37 111 58 92 47" fill="#e5e5e5"/></g><g id="cork_logo" data-name="cork logo"><g style="isolation:isolate"><g clip-path="url(#clip-path-10)"><path d="M98,54H94q-1,1-1,4a10,10,0,0,0,1,5l3,3h3V62H98l2,2V56h0l-3-2" fill="#582e77"/><path d="M106,59h-3q-1,1-1,3a9,9,0,0,0,1,5l3,3h3q1-1,1-3a9,9,0,0,0-1-5l-3-3" fill="#582e77"/></g></g><g opacity="0.6" style="isolation:isolate"><g clip-path="url(#clip-path-11)"><path d="M117,57l-2,2h0l-4,2V71l4-2V63h2V57" fill="#582e77"/><polyline points="122 51 118 54 118 67 122 65 122 62 122 62 123 64 127 62 125 57 127 52 123 54 122 58 122 58 122 51" fill="#582e77"/></g></g><g opacity="0.4" style="isolation:isolate"><g clip-path="url(#clip-path-12)"><polyline points="110 45 106 47 118 54 122 52 110 45" fill="#582e77"/></g></g></g><g id="labels" opacity="0.17"><path d="M110,61l-5-3h0l5,3h0Z" fill="#fff"/><path d="M110,63l-3-2h0l3,2h0Z" fill="#fff"/><path d="M110,64l-3-2h0l3,2h0Z" fill="#fff"/><path d="M110,67l-3-2h0l3,2h0Z" fill="#fff"/><path d="M110,69l-3-2h0l3,2h0Z" fill="#fff"/><path d="M110,76l-3-2h0l3,2h0Z" fill="#fff"/><path d="M110,77l-3-2h0l3,2h0Z" fill="#fff"/><path d="M97,59l-3-2h0V52h0l3,2h0v4Z" fill="#fff"/></g><g id="door_locks" data-name="door locks"><line x1="99" y1="53" x2="99" y2="71" fill="none" stroke="#f2f2f2" stroke-miterlimit="10" stroke-width="0.28"/><line x1="100" y1="54" x2="100" y2="72" fill="none" stroke="#000" stroke-miterlimit="10" stroke-width="0.28" opacity="0.1"/><line x1="99" y1="54" x2="100" y2="55" fill="none" stroke="#fff" stroke-miterlimit="10" stroke-width="0.24"/><line x1="99" y1="70" x2="100" y2="70" fill="none" stroke="#fff" stroke-miterlimit="10" stroke-width="0.24"/><line x1="95" y1="51" x2="95" y2="69" fill="none" stroke="#f2f2f2" stroke-miterlimit="10" stroke-width="0.28"/><line x1="96" y1="51" x2="96" y2="70" fill="none" stroke="#000" stroke-miterlimit="10" stroke-width="0.28" opacity="0.1"/><line x1="95" y1="52" x2="96" y2="53" fill="none" stroke="#fff" stroke-miterlimit="10" stroke-width="0.24"/><line x1="95" y1="68" x2="96" y2="68" fill="none" stroke="#fff" stroke-miterlimit="10" stroke-width="0.24"/><line x1="107" y1="58" x2="107" y2="77" fill="none" stroke="#f2f2f2" stroke-miterlimit="10" stroke-width="0.28"/><line x1="108" y1="59" x2="108" y2="77" fill="none" stroke="#000" stroke-miterlimit="10" stroke-width="0.28" opacity="0.1"/><line x1="107" y1="60" x2="108" y2="60" fill="none" stroke="#fff" stroke-miterlimit="10" stroke-width="0.24"/><line x1="107" y1="75" x2="108" y2="75" fill="none" stroke="#fff" stroke-miterlimit="10" stroke-width="0.24"/><line x1="103" y1="55" x2="103" y2="74" fill="none" stroke="#f2f2f2" stroke-miterlimit="10" stroke-width="0.28"/><line x1="103" y1="56" x2="103" y2="74" fill="none" stroke="#000" stroke-miterlimit="10" stroke-width="0.28" opacity="0.1"/><line x1="103" y1="57" x2="103" y2="57" fill="none" stroke="#fff" stroke-miterlimit="10" stroke-width="0.24"/><line x1="103" y1="72" x2="103" y2="73" fill="none" stroke="#fff" stroke-miterlimit="10" stroke-width="0.24"/></g></g><g id="small_train" data-name="small train"><g opacity="0.3"><path d="M68,112,50,101c-1,0,0-1,0-1L90,77h2l19,11c1,0,0,1,0,1L70,112Z"/></g><path d="M51,92V83l4-3h2v7" fill="none" stroke="#1a1a1a" stroke-miterlimit="10" stroke-width="0.57"/><line x1="51" y1="86" x2="58" y2="81" fill="none" stroke="#1a1a1a" stroke-miterlimit="10" stroke-width="0.57"/><polygon points="51 92 69 103 69 110 51 99 51 92" fill="#333"/><polygon points="79 98 60 87 60 67 79 78 79 98" fill="#593f70"/><polygon points="79 98 69 103 51 92 60 87 79 98" fill="#666"/><polygon points="64 78 75 85 69 88 58 81 64 78" fill="#f2f2f2"/><polygon points="88 88 103 79 103 64 88 73 88 88" fill="#765b99"/><polygon points="88 92 107 81 103 79 84 90 88 92" fill="#666"/><polygon points="79 102 79 78 88 73 88 97 79 102" fill="#8367a0"/><polygon points="92 58 103 64 90 72 79 65 92 58" fill="#8f74ba"/><polygon points="73 105 73 106 83 100 82 100 73 105" fill="#333"/><polygon points="82 100 84 101 84 99 82 100" fill="#333"/><g style="isolation:isolate"><g style="isolation:isolate"><g clip-path="url(#clip-path-13)"><g style="isolation:isolate"><path d="M76,103h0" fill="#7a7a7a"/><path d="M77,103h0" fill="#737373"/><path d="M77,103h0" fill="#6b6b6b"/><path d="M78,103h0" fill="#636363"/></g></g></g><g style="isolation:isolate"><g clip-path="url(#clip-path-14)"><g style="isolation:isolate"><path d="M75,108h0" fill="#545454"/><path d="M74,106h0" fill="#5c5c5c"/><path d="M75,105h0" fill="#636363"/><path d="M75,105h0" fill="#6b6b6b"/><path d="M75,104h0" fill="#737373"/><path d="M75,104h0" fill="#7a7a7a"/></g></g></g><path d="M76,103c1-1,2,0,2,1a4,4,0,0,1-2,3c-1,1-2,0-2-1A4,4,0,0,1,76,103Z" fill="#767676"/></g><g style="isolation:isolate"><g style="isolation:isolate"><g clip-path="url(#clip-path-15)"><g style="isolation:isolate"><path d="M82,100h0" fill="#7a7a7a"/><path d="M82,100h0" fill="#737373"/><path d="M83,100h0" fill="#6b6b6b"/><path d="M83,100h0" fill="#636363"/></g></g></g><g style="isolation:isolate"><g clip-path="url(#clip-path-16)"><g style="isolation:isolate"><path d="M80,105h0" fill="#545454"/><path d="M80,103h0" fill="#5c5c5c"/><path d="M80,102h0" fill="#636363"/><path d="M80,102h0" fill="#6b6b6b"/><path d="M80,101h0" fill="#737373"/><path d="M81,101h0" fill="#7a7a7a"/></g></g></g><path d="M82,100c1-1,2,0,2,1a4,4,0,0,1-2,3c-1,1-2,0-2-1A4,4,0,0,1,82,100Z" fill="#767676"/></g><polygon points="90 96 90 97 100 91 99 90 90 96" fill="#333"/><polygon points="99 90 101 91 101 89 99 90" fill="#333"/><g style="isolation:isolate"><g style="isolation:isolate"><g clip-path="url(#clip-path-17)"><g style="isolation:isolate"><path d="M93,93h0" fill="#7a7a7a"/><path d="M94,93h0" fill="#737373"/><path d="M94,93h0" fill="#6b6b6b"/><path d="M94,93h0" fill="#636363"/></g></g></g><g style="isolation:isolate"><g clip-path="url(#clip-path-18)"><g style="isolation:isolate"><path d="M92,98h0" fill="#545454"/><path d="M91,96h0" fill="#5c5c5c"/><path d="M91,96h0" fill="#636363"/><path d="M92,95h0" fill="#6b6b6b"/><path d="M92,95h0" fill="#737373"/><path d="M92,94h0" fill="#7a7a7a"/></g></g></g><path d="M93,93c1-1,2,0,2,1a4,4,0,0,1-2,3c-1,1-2,0-2-1A4,4,0,0,1,93,93Z" fill="#767676"/></g><g style="isolation:isolate"><g style="isolation:isolate"><g clip-path="url(#clip-path-19)"><g style="isolation:isolate"><path d="M99,90h0" fill="#7a7a7a"/><path d="M99,90h0" fill="#737373"/><path d="M100,90h0" fill="#6b6b6b"/><path d="M100,90h0" fill="#636363"/></g></g></g><g style="isolation:isolate"><g clip-path="url(#clip-path-20)"><g style="isolation:isolate"><path d="M97,95h0" fill="#545454"/><path d="M97,93h0" fill="#5c5c5c"/><path d="M97,92h0" fill="#636363"/><path d="M97,92h0" fill="#6b6b6b"/><path d="M97,92h0" fill="#737373"/><path d="M98,91h0" fill="#7a7a7a"/></g></g></g><path d="M99,90c1-1,2,0,2,1a4,4,0,0,1-2,3c-1,1-2,0-2-1A4,4,0,0,1,99,90Z" fill="#767676"/></g><polygon points="107 88 101 91 101 89 90 96 90 98 84 101 84 99 73 105 73 107 69 110 69 103 107 81 107 88" fill="#4d4d4d"/><polygon points="96 66 94 65 86 70 88 71 96 66" fill="#765b99"/><polygon points="90 63 88 62 81 66 82 67 90 63" fill="#765b99"/><polygon points="94 72 94 76 101 72 101 67 94 72" fill="#666" style="mix-blend-mode:multiply"/><path d="M81,81v7h1l4-2h1V78H85l-4,2Z" fill="#89dbef"/><polygon points="58 66 81 79 81 77 58 64 58 66" fill="#3d2d22"/><polygon points="90 74 81 79 81 77 90 72 90 74" fill="#513d2f"/><polygon points="67 59 90 72 81 77 58 64 67 59" fill="#705a4a"/><path d="M62,71v4h1l5,3h1V74l-6-4Z" fill="#89dbef"/><path d="M70,76v4h1l5,3h1V79l-6-4Z" fill="#89dbef"/><path d="M79,78,60,67v2h3l5,3h4l5,3h3Z" fill="#352742"/><path d="M68,73l-5-3H62l6,4H68Z" fill="#4db0c1"/><path d="M76,78l-5-3H70l6,4H76Z" fill="#4db0c1"/><polyline points="79 80 81 79 79 78" fill="#999" style="mix-blend-mode:multiply"/><path d="M58,94l11,6h2l6-4L64,89l-6,3A1,1,0,0,0,58,94Z" fill="#999" style="mix-blend-mode:multiply"/><polygon points="58 81 58 92 69 99 69 88 58 81" fill="#593f70"/><polygon points="75 95 69 99 69 88 75 85 75 95" fill="#765b99"/><polygon points="58 84 58 81 69 88 69 90 58 84" fill="#3d2d22"/><polygon points="75 85 75 87 69 90 69 88 75 85" fill="#513d2f"/><polygon points="64 78 75 85 69 88 58 81 64 78" fill="#705a4a"/><path d="M69,103V94l4-3h2v7" fill="none" stroke="#1a1a1a" stroke-miterlimit="10" stroke-width="0.57"/><line x1="69" y1="97" x2="77" y2="92" fill="none" stroke="#1a1a1a" stroke-miterlimit="10" stroke-width="0.57"/><path d="M66,101V92l-9-5H54v7" fill="none" stroke="#1a1a1a" stroke-miterlimit="10" stroke-width="0.57"/><line x1="66" y1="94" x2="54" y2="88" fill="none" stroke="#1a1a1a" stroke-miterlimit="10" stroke-width="0.57"/><polygon points="88 88 88 90 103 81 103 79 88 88" fill="#999" style="mix-blend-mode:multiply"/><path d="M90,91V84a3,3,0,0,1,1-2l10-6h2v7" fill="none" stroke="#1a1a1a" stroke-miterlimit="10" stroke-width="0.57"/><line x1="90" y1="85" x2="103" y2="77" fill="none" stroke="#1a1a1a" stroke-miterlimit="10" stroke-width="0.57"/></g><g id="cactus"><path d="M106,113c3,2,3,5-1,7s-9,2-13,1-3-5,1-7S102,111,106,113Z" fill="#917154"/><path d="M156,87c3,2,3,5-1,7s-9,2-13,1-3-5,1-7S153,86,156,87Z" fill="#ba926a"/><path d="M142,89c2,1,2,4-1,6s-7,2-10,0-2-4,1-6S140,87,142,89Z" fill="#ba926a"/><g style="isolation:isolate"><polygon points="101 118 97 115 97 108 101 110 101 118" fill="#407b45"/><polygon points="104 99 100 97 102 96 106 98 104 99" fill="#57a95e"/><polygon points="99 107 95 105 97 104 101 106 99 107" fill="#57a95e"/><polygon points="106 91 102 88 106 86 110 89 106 91" fill="#57a95e"/><polygon points="106 98 102 96 102 88 106 91 106 98" fill="#407b45"/><polygon points="96 113 92 111 92 99 96 102 96 113" fill="#407b45"/><polygon points="101 106 97 104 97 89 101 92 101 106" fill="#407b45"/><polygon points="96 102 92 99 95 97 99 100 96 102" fill="#57a95e"/><polygon points="101 92 97 89 100 87 104 90 101 92" fill="#57a95e"/><polygon points="104 90 104 99 106 98 106 91 110 89 110 100 108 101 106 102 104 103 104 115 101 118 101 110 97 112 96 113 96 102 99 100 99 107 101 106 101 92 104 90" fill="#519c57"/></g><circle cx="151" cy="82" r="9" fill="#ceac91"/><circle cx="157" cy="88" r="6" fill="#d3b49f"/><circle cx="139" cy="88" r="6" fill="#ceac91"/><path d="M52,70c2,1,2,4-1,6s-7,2-10,1-2-4,1-6S50,69,52,70Z" fill="#917154" opacity="0.71"/><path d="M47,75c-2,0-5,0-7-1s1-7,7-7,9,6,7,7S49,75,47,75Z" fill="url(#linear-gradient)"/></g></g><g id="Boat-2" data-name="Boat"><g id="water_and_cork" data-name="water and cork"><path id="_Clipping_Path_5" data-name="&lt;Clipping Path&gt;" d="M-37,91l-79,46a12,12,0,0,1-11,0l-80-46-2-2,15,58a65,65,0,0,0,50,43,124,124,0,0,0,41,0,65,65,0,0,0,52-44l16-58Z" fill="#a07a5c"/><g clip-path="url(#clip-path-21)"><path d="M15,84c5,3,5,7,0,10l-127,74c-5,3-13,3-18,0L-258,95c-5-3-5-7,0-10l127-74c5-3,13-3,18,0Z" fill="#36949e"/></g><path id="_Clipping_Path_6" data-name="&lt;Clipping Path&gt;" d="M-37,91l-79,46a12,12,0,0,1-11,0l-80-46-2-2,15,58a65,65,0,0,0,50,43,124,124,0,0,0,41,0,65,65,0,0,0,52-44l16-58Z" fill="#a07a5c"/><g clip-path="url(#clip-path-21)"><path d="M15,84c5,3,5,7,0,10l-127,74c-5,3-13,3-18,0L-258,95c-5-3-5-7,0-10l127-74c5-3,13-3,18,0Z" fill="#36949e"/></g></g></g></g></svg>