<svg xmlns="http://www.w3.org/2000/svg" xmlns:xlink="http://www.w3.org/1999/xlink" width="200" height="200" viewBox="0 0 200 200"><defs><clipPath id="clip-path"><path id="_Clipping_Path_" data-name="&lt;Clipping Path&gt;" d="M185.3,85.2l-79.2,46a12.3,12.3,0,0,1-11.1,0l-79.7-46a4.6,4.6,0,0,1-2.1-2.2l15.7,58.2a65.1,65.1,0,0,0,50,43.3,123.8,123.8,0,0,0,41.4.3,65.4,65.4,0,0,0,51.7-44.2l15.5-57.7A4.4,4.4,0,0,1,185.3,85.2Z" fill="#a07a5c"/></clipPath><clipPath id="clip-path-2"><path d="M118,78.5l1,.6a1.4,1.4,0,0,0-1.4.1l-1-.6A1.4,1.4,0,0,1,118,78.5Z" fill="none"/></clipPath><clipPath id="clip-path-3"><path d="M116.1,84l-1-.6a1.4,1.4,0,0,1-.6-1.3,4.4,4.4,0,0,1,2-3.5l1,.6a4.4,4.4,0,0,0-2,3.5A1.4,1.4,0,0,0,116.1,84Z" fill="none"/></clipPath><clipPath id="clip-path-4"><path d="M123.3,75.4l1,.6a1.4,1.4,0,0,0-1.4.1l-1-.6A1.4,1.4,0,0,1,123.3,75.4Z" fill="none"/></clipPath><clipPath id="clip-path-5"><path d="M121.5,80.9l-1-.6a1.4,1.4,0,0,1-.6-1.3,4.4,4.4,0,0,1,2-3.5l1,.6a4.4,4.4,0,0,0-2,3.5A1.4,1.4,0,0,0,121.5,80.9Z" fill="none"/></clipPath><clipPath id="clip-path-6"><path d="M134.1,69.2l1,.6a1.4,1.4,0,0,0-1.4.1l-1-.6A1.4,1.4,0,0,1,134.1,69.2Z" fill="none"/></clipPath><clipPath id="clip-path-7"><path d="M132.2,74.6l-1-.6a1.4,1.4,0,0,1-.6-1.3,4.4,4.4,0,0,1,2-3.5l1,.6a4.4,4.4,0,0,0-2,3.5A1.4,1.4,0,0,0,132.2,74.6Z" fill="none"/></clipPath><clipPath id="clip-path-8"><path d="M139.4,66.1l1,.6a1.4,1.4,0,0,0-1.4.1l-1-.6A1.4,1.4,0,0,1,139.4,66.1Z" fill="none"/></clipPath><clipPath id="clip-path-9"><path d="M137.6,71.5l-1-.6a1.4,1.4,0,0,1-.6-1.3,4.4,4.4,0,0,1,2-3.5l1,.6a4.4,4.4,0,0,0-2,3.5A1.4,1.4,0,0,0,137.6,71.5Z" fill="none"/></clipPath><clipPath id="clip-path-10"><path d="M76.7,102.4l1,.6a1.4,1.4,0,0,0-1.4.1l-1-.6A1.4,1.4,0,0,1,76.7,102.4Z" fill="none"/></clipPath><clipPath id="clip-path-11"><path d="M74.9,107.9l-1-.6a1.4,1.4,0,0,1-.6-1.3,4.4,4.4,0,0,1,2-3.5l1,.6a4.4,4.4,0,0,0-2,3.5A1.4,1.4,0,0,0,74.9,107.9Z" fill="none"/></clipPath><clipPath id="clip-path-12"><path d="M82.1,99.3l1,.6a1.4,1.4,0,0,0-1.4.1l-1-.6A1.4,1.4,0,0,1,82.1,99.3Z" fill="none"/></clipPath><clipPath id="clip-path-13"><path d="M80.2,104.8l-1-.6a1.4,1.4,0,0,1-.6-1.3,4.4,4.4,0,0,1,2-3.5l1,.6a4.4,4.4,0,0,0-2,3.5A1.4,1.4,0,0,0,80.2,104.8Z" fill="none"/></clipPath><clipPath id="clip-path-14"><path d="M93.6,92.6l1,.6a1.4,1.4,0,0,0-1.4.1l-1-.6A1.4,1.4,0,0,1,93.6,92.6Z" fill="none"/></clipPath><clipPath id="clip-path-15"><path d="M91.8,98.1l-1-.6a1.4,1.4,0,0,1-.6-1.3,4.4,4.4,0,0,1,2-3.5l1,.6a4.4,4.4,0,0,0-2,3.5A1.4,1.4,0,0,0,91.8,98.1Z" fill="none"/></clipPath><clipPath id="clip-path-16"><path d="M99,89.5l1,.6a1.4,1.4,0,0,0-1.4.1l-1-.6A1.4,1.4,0,0,1,99,89.5Z" fill="none"/></clipPath><clipPath id="clip-path-17"><path d="M97.1,95l-1-.6a1.4,1.4,0,0,1-.6-1.3,4.4,4.4,0,0,1,2-3.5l1,.6a4.4,4.4,0,0,0-2,3.5A1.4,1.4,0,0,0,97.1,95Z" fill="none"/></clipPath><linearGradient id="linear-gradient" x1="41.53" y1="69.31" x2="49.62" y2="69.31" gradientTransform="translate(116.6 25.1) rotate(90)" gradientUnits="userSpaceOnUse"><stop offset="0" stop-color="#fff"/><stop offset="1" stop-color="#666"/></linearGradient><clipPath id="clip-path-18"><path id="_Clipping_Path_2" data-name="&lt;Clipping Path&gt;" d="M-36.8,90.7l-79.4,45.7a12.3,12.3,0,0,1-11.1,0l-79.5-46.4a4.6,4.6,0,0,1-2.1-2.2l15.4,58.3a65.1,65.1,0,0,0,49.9,43.5,123.8,123.8,0,0,0,41.4.5,65.4,65.4,0,0,0,51.9-44l15.7-57.6A4.4,4.4,0,0,1-36.8,90.7Z" fill="#a07a5c"/></clipPath></defs><title>train</title><g style="isolation:isolate"><g id="train"><g id="cork"><path d="M13.1,82.2h0Z" fill="#b5885e"/><path id="_Clipping_Path_4" data-name="&lt;Clipping Path&gt;" d="M185.3,85.2l-79.2,46a12.3,12.3,0,0,1-11.1,0l-79.7-46a4.6,4.6,0,0,1-2.1-2.2l15.7,58.2a65.1,65.1,0,0,0,50,43.3,123.8,123.8,0,0,0,41.4.3,65.4,65.4,0,0,0,51.7-44.2l15.5-57.7A4.4,4.4,0,0,1,185.3,85.2Z" fill="#a07a5c"/><g clip-path="url(#clip-path)"><path d="M140.4,164.8c-24.8,13.4-41.2,3.8-41.2-6.3V98.2L199.4,44.8l-14.1,50C185.3,117.2,165.2,151.4,140.4,164.8Z" fill="#ceac91" opacity="0.2"/><path d="M190.3,50l-9.4,45.8c0,20.9-16.6,49.4-38.3,61.2-6.8,3.7-20.3,8.8-24.9,8.8-8.9-.1-15.6-4.9-15.6-11.5V97.9Z" fill="#ceac91" opacity="0.3"/><path d="M181.2,55.2l-4.7,41.6c0,19.4-13,42.1-31.7,52.4-3.4,1.9-21.8,11.3-24,11.1-7.9,2.4-15.6-2.9-15.6-10.3V97.7Z" fill="#ceac91" opacity="0.4"/><path d="M147,141.3l-23.2,13.4a10.5,10.5,0,0,1-15.7-9.1V97.4l64-37V97.8A50.2,50.2,0,0,1,147,141.3Z" fill="#ceac91" opacity="0.5"/></g><path d="M187.4,82.8h0Z" fill="#b5885e"/><polygon points="26.7 91.9 27.7 92.5 28.7 93 28.3 101.2 27.9 109.4 27.3 100.7 26.7 91.9" fill="#564031"/><polygon points="133.3 113.4 134.1 113.2 134.8 112.9 134.5 124.3 134.2 135.6 133.8 124.5 133.3 113.4" fill="#84644e"/><polygon points="124.1 120.4 124.5 120.3 124.9 120.1 124.8 126.8 124.6 133.6 124.3 127 124.1 120.4" fill="#84644e"/><polygon points="126.5 118.6 126.9 118.4 127.3 118.3 127.1 124.1 127 129.9 126.7 124.2 126.5 118.6" fill="#564031" style="mix-blend-mode:multiply"/><polygon points="89.9 126.5 91.6 127.5 93.4 128.5 92.7 143.6 92.1 158.6 91 142.6 89.9 126.5" fill="#84624c"/><path d="M59.6,149.4c0,1.3-.9,1.8-2.1,1.2a4.6,4.6,0,0,1-2.1-3.6c0-1.3.9-1.8,2.1-1.2A4.6,4.6,0,0,1,59.6,149.4Z" fill="#6d513e" opacity="0.6"/><path d="M49.9,164.4c.4,1.3-.3,2-1.6,1.7a4.6,4.6,0,0,1-3-2.8c-.4-1.3.3-2,1.6-1.7A4.6,4.6,0,0,1,49.9,164.4Z" fill="#84624c"/><path d="M87.7,180.1a4.6,4.6,0,0,1-4.1,0,1.3,1.3,0,0,1,0-2.4,4.6,4.6,0,0,1,4.1,0A1.3,1.3,0,0,1,87.7,180.1Z" fill="#6d513e" opacity="0.5"/><path d="M126.1,176.1c1.1,0,1.7.6,1.3,1.3a3,3,0,0,1-2.6,1.2c-1.1,0-1.7-.6-1.3-1.3A3,3,0,0,1,126.1,176.1Z" fill="#6d513e" opacity="0.5"/><path d="M153.9,140.6a4.9,4.9,0,0,1-1.3,4.2c-1.1,1.1-2.3,1-2.6-.2a4.9,4.9,0,0,1,1.3-4.2C152.4,139.2,153.5,139.3,153.9,140.6Z" fill="#8c6856" opacity="0.4"/><path d="M175.9,100a4.9,4.9,0,0,1-1.3,4.2c-1.1,1.1-2.3,1-2.6-.2a4.9,4.9,0,0,1,1.3-4.2C174.4,98.7,175.6,98.8,175.9,100Z" fill="#6d513e"/><path d="M164.6,108.6a2.4,2.4,0,0,1-.6,2.1c-.5.6-1.1.5-1.3-.1a2.4,2.4,0,0,1,.6-2.1C163.8,108,164.4,108,164.6,108.6Z" fill="#6d513e"/><path d="M120,140.6a4.9,4.9,0,0,1-1.3,4.2c-1.1,1.1-2.3,1-2.6-.2a4.9,4.9,0,0,1,1.3-4.2C118.5,139.2,119.7,139.3,120,140.6Z" fill="#84624c" opacity="0.2"/><path d="M57.8,149.9c0,3.6-2.5,5-5.6,3.2a12.4,12.4,0,0,1-5.6-9.7c0-3.6,2.5-5,5.6-3.2A12.4,12.4,0,0,1,57.8,149.9Z" fill="#8c6856"/><path d="M89.2,129.8c0,3.6-2.5,5-5.6,3.2a12.4,12.4,0,0,1-5.6-9.7c0-3.6,2.5-5,5.6-3.2A12.4,12.4,0,0,1,89.2,129.8Z" fill="#84624c"/><path d="M40.3,127c0,2.3-1.6,3.2-3.6,2.1a7.9,7.9,0,0,1-3.6-6.2c0-2.3,1.6-3.2,3.6-2.1A7.9,7.9,0,0,1,40.3,127Z" fill="#84624c"/><path d="M156.8,155.4c0,4.2-2.5,9-5.7,10.8s-5.7-.1-5.7-4.3,2.5-9,5.7-10.8S156.8,151.2,156.8,155.4Z" fill="#6d513e" opacity="0.2"/></g><g id="dessert"><path d="M185.1,79.2c3.1,1.8,3.1,4.6,0,6.4l-79.2,46a12.3,12.3,0,0,1-11.1,0l-79.7-46c-3.1-1.8-3.1-4.7,0-6.4l79.2-46a12.2,12.2,0,0,1,11.1,0Z" fill="#c69c6d"/></g><g id="tracks"><g style="isolation:isolate"><polygon points="155.3 62 66 113.9 65.1 113.3 154.4 61.4 155.3 62" fill="#412e22"/><polygon points="155.3 62 155.3 62.5 66 114.4 66 113.9 155.3 62" fill="#3b291f"/><polygon points="66 113.9 66 114.4 65.1 113.8 65.1 113.3 66 113.9" fill="#291c15"/></g><g style="isolation:isolate"><polygon points="141.3 54 52 105.9 51.1 105.3 140.4 53.4 141.3 54" fill="#412e22"/><polygon points="141.3 54 141.3 54.5 52 106.4 52 105.9 141.3 54" fill="#3b291f"/><polygon points="52 105.9 52 106.4 51.1 105.8 51.1 105.3 52 105.9" fill="#291c15"/></g></g><g id="container"><g opacity="0.3"><path d="M110.9,87.6,92.3,76.8c-.5-.3-.5-.9.2-1.2L128,55.1a2.3,2.3,0,0,1,2.1-.1l18.6,10.8c.5.3.5.9-.2,1.2L113,87.5A2.3,2.3,0,0,1,110.9,87.6Z"/></g><polygon points="91.9 68.4 110.6 79.2 110.6 85.7 91.9 74.9 91.9 68.4" fill="#333"/><polygon points="114.4 81.4 114.4 82.5 124.7 76.5 123.7 76 114.4 81.4" fill="#333"/><polygon points="123.7 76 125.6 77.1 125.6 74.9 123.7 76" fill="#333"/><g style="isolation:isolate"><g style="isolation:isolate"><g clip-path="url(#clip-path-2)"><g style="isolation:isolate"><path d="M117.5,79.2l-1-.6.6-.2,1,.6-.6.2" fill="#7a7a7a"/><path d="M118.2,79l-1-.6h.4l1,.6h-.4" fill="#737373"/><path d="M118.5,78.9l-1-.6h.3l1,.6h-.3" fill="#6b6b6b"/><path d="M118.8,79l-1-.6h.2l1,.6h-.2" fill="#636363"/></g></g></g><g style="isolation:isolate"><g clip-path="url(#clip-path-3)"><g style="isolation:isolate"><path d="M116.1,84l-1-.6a1.4,1.4,0,0,1-.6-1.3,3.3,3.3,0,0,1,.1-.8l1,.6a3.3,3.3,0,0,0-.1.8,1.4,1.4,0,0,0,.6,1.3" fill="#545454"/><path d="M115.7,81.9l-1-.6.2-.5,1,.6-.2.5" fill="#5c5c5c"/><path d="M115.8,81.4l-1-.6.2-.4,1,.6-.2.4" fill="#636363"/><path d="M116,80.9l-1-.6.2-.4,1,.6-.2.4" fill="#6b6b6b"/><path d="M116.3,80.5l-1-.6.3-.5,1,.6-.3.5" fill="#737373"/><path d="M116.6,80.1l-1-.6a3.6,3.6,0,0,1,1-.8l1,.6a3.6,3.6,0,0,0-1,.8" fill="#7a7a7a"/></g></g></g><path d="M117.5,79.2c1.1-.6,2-.1,2,1.1a4.4,4.4,0,0,1-2,3.5c-1.1.6-2,.1-2-1.2A4.4,4.4,0,0,1,117.5,79.2Z" fill="#767676"/></g><g style="isolation:isolate"><g style="isolation:isolate"><g clip-path="url(#clip-path-4)"><g style="isolation:isolate"><path d="M122.9,76.1l-1-.6.6-.2,1,.6-.6.2" fill="#7a7a7a"/><path d="M123.5,75.9l-1-.6h.4l1,.6h-.4" fill="#737373"/><path d="M123.9,75.8l-1-.6h.3l1,.6h-.3" fill="#6b6b6b"/><path d="M124.2,75.9l-1-.6h.2l1,.6h-.2" fill="#636363"/></g></g></g><g style="isolation:isolate"><g clip-path="url(#clip-path-5)"><g style="isolation:isolate"><path d="M121.5,80.9l-1-.6a1.4,1.4,0,0,1-.6-1.3,3.3,3.3,0,0,1,.1-.8l1,.6a3.3,3.3,0,0,0-.1.8,1.4,1.4,0,0,0,.6,1.3" fill="#545454"/><path d="M121,78.8l-1-.6.2-.5,1,.6-.2.5" fill="#5c5c5c"/><path d="M121.2,78.3l-1-.6.2-.4,1,.6-.2.4" fill="#636363"/><path d="M121.4,77.8l-1-.6.2-.4,1,.6-.2.4" fill="#6b6b6b"/><path d="M121.6,77.4l-1-.6.3-.5,1,.6-.3.5" fill="#737373"/><path d="M122,77l-1-.6a3.6,3.6,0,0,1,1-.8l1,.6a3.6,3.6,0,0,0-1,.8" fill="#7a7a7a"/></g></g></g><path d="M122.9,76.1c1.1-.6,2-.1,2,1.1a4.4,4.4,0,0,1-2,3.5c-1.1.6-2,.1-2-1.1A4.4,4.4,0,0,1,122.9,76.1Z" fill="#767676"/></g><polygon points="130.4 72 130.4 73.1 140.7 67.2 139.8 66.6 130.4 72" fill="#333"/><polygon points="139.8 66.6 141.7 67.7 141.7 65.6 139.8 66.6" fill="#333"/><g style="isolation:isolate"><g style="isolation:isolate"><g clip-path="url(#clip-path-6)"><g style="isolation:isolate"><path d="M133.6,69.9l-1-.6.6-.2,1,.6-.6.2" fill="#7a7a7a"/><path d="M134.2,69.6l-1-.6h.4l1,.6h-.4" fill="#737373"/><path d="M134.6,69.6l-1-.6h.3l1,.6h-.3" fill="#6b6b6b"/><path d="M134.9,69.7l-1-.6h.2l1,.6h-.2" fill="#636363"/></g></g></g><g style="isolation:isolate"><g clip-path="url(#clip-path-7)"><g style="isolation:isolate"><path d="M132.2,74.6l-1-.6a1.4,1.4,0,0,1-.6-1.3,3.3,3.3,0,0,1,.1-.8l1,.6a3.3,3.3,0,0,0-.1.8,1.4,1.4,0,0,0,.6,1.3" fill="#545454"/><path d="M131.7,72.6l-1-.6.2-.5,1,.6-.2.5" fill="#5c5c5c"/><path d="M131.9,72.1l-1-.6.2-.4,1,.6-.2.4" fill="#636363"/><path d="M132.1,71.6l-1-.6.2-.4,1,.6-.2.4" fill="#6b6b6b"/><path d="M132.3,71.2l-1-.6.3-.5,1,.6-.3.5" fill="#737373"/><path d="M132.7,70.7l-1-.6a3.7,3.7,0,0,1,1-.9l1,.6a3.7,3.7,0,0,0-1,.9" fill="#7a7a7a"/></g></g></g><path d="M133.6,69.9c1.1-.6,2-.1,2,1.1a4.4,4.4,0,0,1-2,3.5c-1.1.6-2,.1-2-1.1A4.4,4.4,0,0,1,133.6,69.9Z" fill="#767676"/></g><g style="isolation:isolate"><g style="isolation:isolate"><g clip-path="url(#clip-path-8)"><g style="isolation:isolate"><path d="M139,66.8l-1-.6.6-.2,1,.6-.6.2" fill="#7a7a7a"/><path d="M139.6,66.5l-1-.6h.4l1,.6h-.4" fill="#737373"/><path d="M140,66.5l-1-.6h.3l1,.6H140" fill="#6b6b6b"/><path d="M140.3,66.6l-1-.6h.2l1,.6h-.2" fill="#636363"/></g></g></g><g style="isolation:isolate"><g clip-path="url(#clip-path-9)"><g style="isolation:isolate"><path d="M137.6,71.5l-1-.6a1.4,1.4,0,0,1-.6-1.3,3.3,3.3,0,0,1,.1-.8l1,.6a3.3,3.3,0,0,0-.1.8,1.4,1.4,0,0,0,.6,1.3" fill="#545454"/><path d="M137.1,69.4l-1-.6.2-.5,1,.6-.2.5" fill="#5c5c5c"/><path d="M137.3,68.9l-1-.6.2-.4,1,.6-.2.4" fill="#636363"/><path d="M137.5,68.5l-1-.6.2-.4,1,.6-.2.4" fill="#6b6b6b"/><path d="M137.7,68.1l-1-.6.3-.5,1,.6-.3.5" fill="#737373"/><path d="M138,67.6l-1-.6a3.6,3.6,0,0,1,1-.8l1,.6a3.6,3.6,0,0,0-1,.8" fill="#7a7a7a"/></g></g></g><path d="M139,66.8c1.1-.6,2-.1,2,1.1a4.4,4.4,0,0,1-2,3.5c-1.1.6-2,.1-2-1.2A4.4,4.4,0,0,1,139,66.8Z" fill="#767676"/></g><polygon points="147.3 64.5 141.7 67.7 141.7 65.6 130.4 72 130.4 74.1 125.6 77.1 125.6 74.9 114.4 81.4 114.4 83.6 110.6 85.7 110.6 79.2 147.3 58 147.3 64.5" fill="#4d4d4d"/><g style="isolation:isolate"><polygon points="110.7 58.1 110.6 79.3 92.2 68.6 92.3 47.5 110.7 58.1" fill="#c2c2c2"/><polygon points="110.7 58.1 147.3 36.8 147.2 58 110.6 79.3 110.7 58.1" fill="#dbdbdb"/><polygon points="92.3 47.5 128.9 26.2 147.3 36.8 110.7 58.1 92.3 47.5" fill="#e5e5e5"/></g><g id="cork_logo" data-name="cork logo"><g style="isolation:isolate"><path d="M97.9,54.2q-2.3-1.3-3.3-.8t-1,3.5a9.8,9.8,0,0,0,.9,4.6,8.4,8.4,0,0,0,3.3,3.1,11.8,11.8,0,0,0,3.1,1.3V62.3L98.5,61a1.9,1.9,0,0,1-.8-.7,2.7,2.7,0,0,1-.2-1.2c0-.5.1-.8.2-1s.4-.1.8.2l2.3,1.5V56.4l-.5-.4a18.1,18.1,0,0,0-2.6-1.9" fill="#582e77"/><path d="M106,58.8q-2.3-1.3-3.4-.7t-1.1,3.3a8.7,8.7,0,0,0,1.1,4.6,9.3,9.3,0,0,0,3.4,3.2c1.5.9,2.7,1.1,3.4.8s1.1-1.5,1.1-3.3a8.8,8.8,0,0,0-1.1-4.6,9.2,9.2,0,0,0-3.4-3.2" fill="#582e77"/></g><g opacity="0.6" style="isolation:isolate"><path d="M117.1,57.1a6.6,6.6,0,0,0-1.8,2.2v-.9l-3.8,2.2v9.9l3.8-2.2V62.9l.3-.4a6.8,6.8,0,0,1,1.5-1.4V57.1" fill="#582e77"/><polyline points="121.6 51.5 117.8 53.7 117.8 66.9 121.5 64.7 121.5 61.8 122.1 61.5 122.8 63.9 126.6 61.7 125.3 57.4 126.6 51.9 122.8 54.1 122 57.7 121.6 58 121.6 51.5" fill="#582e77"/></g><g opacity="0.4" style="isolation:isolate"><polyline points="110.2 44.9 106.4 47.1 118 53.8 121.8 51.6 110.2 44.9" fill="#582e77"/></g></g><g id="labels" opacity="0.17"><path d="M109.7,61.1,105,58.4a.7.7,0,0,1-.3-.5v-.2c0-.2.1-.3.3-.2l4.6,2.7a.7.7,0,0,1,.3.5v.2C109.9,61,109.8,61.1,109.7,61.1Z" fill="#fff"/><path d="M109.6,62.4l-2.6-1.5a.7.7,0,0,1-.3-.5h0c0-.2.1-.3.3-.2l2.6,1.5a.7.7,0,0,1,.3.5h0C109.9,62.4,109.8,62.5,109.6,62.4Z" fill="#fff"/><path d="M109.6,63.6l-2.6-1.5a.7.7,0,0,1-.3-.5h0c0-.2.1-.3.3-.2l2.6,1.5a.7.7,0,0,1,.3.5h0C109.9,63.6,109.8,63.7,109.6,63.6Z" fill="#fff"/><path d="M109.6,67.1l-2.6-1.5a.7.7,0,0,1-.3-.5h0c0-.2.1-.3.3-.2l2.6,1.5a.7.7,0,0,1,.3.5h0C109.9,67.1,109.8,67.2,109.6,67.1Z" fill="#fff"/><path d="M109.6,68.3l-2.6-1.5a.7.7,0,0,1-.3-.5h0c0-.2.1-.3.3-.2l2.6,1.5a.7.7,0,0,1,.3.5h0C109.9,68.3,109.8,68.4,109.6,68.3Z" fill="#fff"/><path d="M109.6,75.8l-2.6-1.5a.7.7,0,0,1-.3-.5h0c0-.2.1-.3.3-.2l2.6,1.5a.7.7,0,0,1,.3.5h0C109.9,75.7,109.8,75.8,109.6,75.8Z" fill="#fff"/><path d="M109.6,77l-2.6-1.5a.7.7,0,0,1-.3-.5h0c0-.2.1-.3.3-.2l2.6,1.5a.7.7,0,0,1,.3.5h0C109.9,77,109.8,77.1,109.6,77Z" fill="#fff"/><path d="M97.7,58.6l-3.4-2a1,1,0,0,1-.4-.8V52.1c0-.3.2-.4.4-.3l3.4,2a1,1,0,0,1,.4.8v3.8C98.1,58.6,98,58.8,97.7,58.6Z" fill="#fff"/></g><g id="door_locks" data-name="door locks"><line x1="99.2" y1="53" x2="99.2" y2="71.1" fill="none" stroke="#f2f2f2" stroke-miterlimit="10" stroke-width="0.28"/><line x1="99.7" y1="53.5" x2="99.7" y2="71.7" fill="none" stroke="#000" stroke-miterlimit="10" stroke-width="0.28" opacity="0.1"/><line x1="99.2" y1="54.4" x2="100" y2="54.8" fill="none" stroke="#fff" stroke-miterlimit="10" stroke-width="0.24"/><line x1="99.2" y1="69.5" x2="100" y2="69.9" fill="none" stroke="#fff" stroke-miterlimit="10" stroke-width="0.24"/><line x1="95.3" y1="50.9" x2="95.3" y2="69" fill="none" stroke="#f2f2f2" stroke-miterlimit="10" stroke-width="0.28"/><line x1="95.8" y1="51.4" x2="95.8" y2="69.6" fill="none" stroke="#000" stroke-miterlimit="10" stroke-width="0.28" opacity="0.1"/><line x1="95.3" y1="52.3" x2="96.1" y2="52.7" fill="none" stroke="#fff" stroke-miterlimit="10" stroke-width="0.24"/><line x1="95.3" y1="67.4" x2="96.1" y2="67.8" fill="none" stroke="#fff" stroke-miterlimit="10" stroke-width="0.24"/><line x1="107.6" y1="58.1" x2="107.6" y2="76.3" fill="none" stroke="#f2f2f2" stroke-miterlimit="10" stroke-width="0.28"/><line x1="108.1" y1="58.7" x2="108.1" y2="76.9" fill="none" stroke="#000" stroke-miterlimit="10" stroke-width="0.28" opacity="0.1"/><line x1="107.6" y1="59.6" x2="108.3" y2="60" fill="none" stroke="#fff" stroke-miterlimit="10" stroke-width="0.24"/><line x1="107.6" y1="74.7" x2="108.3" y2="75.1" fill="none" stroke="#fff" stroke-miterlimit="10" stroke-width="0.24"/><line x1="102.8" y1="55.3" x2="102.8" y2="73.5" fill="none" stroke="#f2f2f2" stroke-miterlimit="10" stroke-width="0.28"/><line x1="103.4" y1="55.9" x2="103.4" y2="74.1" fill="none" stroke="#000" stroke-miterlimit="10" stroke-width="0.28" opacity="0.1"/><line x1="102.9" y1="56.8" x2="103.6" y2="57.2" fill="none" stroke="#fff" stroke-miterlimit="10" stroke-width="0.24"/><line x1="102.9" y1="71.9" x2="103.6" y2="72.3" fill="none" stroke="#fff" stroke-miterlimit="10" stroke-width="0.24"/></g></g><g id="small_train" data-name="small train"><g opacity="0.3"><path d="M68.2,112.2,49.6,101.4c-.5-.3-.5-.9.2-1.2L89.6,77.1a2.3,2.3,0,0,1,2.1-.1l18.6,10.8c.5.3.5.9-.2,1.2L70.3,112.1A2.3,2.3,0,0,1,68.2,112.2Z"/></g><path d="M50.9,92.3V85.1a2.6,2.6,0,0,1,1.3-2.2l4.4-2.5a1.2,1.2,0,0,1,1.8,1.1V88" fill="none" stroke="#1a1a1a" stroke-miterlimit="10" stroke-width="0.57"/><line x1="50.8" y1="85.8" x2="58.4" y2="81.4" fill="none" stroke="#1a1a1a" stroke-miterlimit="10" stroke-width="0.57"/><polygon points="50.6 92.3 69.4 103.1 69.3 109.6 50.6 98.8 50.6 92.3" fill="#333"/><polygon points="78.7 97.7 60 86.9 60 67.4 78.7 78.2 78.7 97.7" fill="#593f70"/><polygon points="78.7 97.7 69.4 103.1 50.6 92.3 60 86.9 78.7 97.7" fill="#666"/><polygon points="63.7 78.2 75 84.7 69.3 87.9 58.1 81.5 63.7 78.2" fill="#f2f2f2"/><polygon points="88.1 87.9 103.1 79.4 103.1 64.2 88.1 72.9 88.1 87.9" fill="#765b99"/><polygon points="88.1 92.3 106.8 81.5 103.1 79.3 84.3 90.2 88.1 92.3" fill="#666"/><polygon points="78.7 102 78.7 78.2 88.1 72.9 88.1 96.7 78.7 102" fill="#8367a0"/><polygon points="91.8 57.7 103 64.2 90 71.8 78.7 65.3 91.8 57.7" fill="#8f74ba"/><polygon points="73.1 105.3 73.1 106.4 83.4 100.4 82.5 99.9 73.1 105.3" fill="#333"/><polygon points="82.5 99.9 84.3 101 84.3 98.8 82.5 99.9" fill="#333"/><g style="isolation:isolate"><g style="isolation:isolate"><g clip-path="url(#clip-path-10)"><g style="isolation:isolate"><path d="M76.3,103.1l-1-.6.6-.2,1,.6-.6.2" fill="#7a7a7a"/><path d="M76.9,102.9l-1-.6h.4l1,.6h-.4" fill="#737373"/><path d="M77.3,102.8l-1-.6h.3l1,.6h-.3" fill="#6b6b6b"/><path d="M77.6,102.9l-1-.6h.2l1,.6h-.2" fill="#636363"/></g></g></g><g style="isolation:isolate"><g clip-path="url(#clip-path-11)"><g style="isolation:isolate"><path d="M74.9,107.9l-1-.6a1.4,1.4,0,0,1-.6-1.3,3.3,3.3,0,0,1,.1-.8l1,.6a3.3,3.3,0,0,0-.1.8,1.4,1.4,0,0,0,.6,1.3" fill="#545454"/><path d="M74.4,105.8l-1-.6.2-.5,1,.6-.2.5" fill="#5c5c5c"/><path d="M74.5,105.3l-1-.6.2-.4,1,.6-.2.4" fill="#636363"/><path d="M74.7,104.8l-1-.6.2-.4,1,.6-.2.4" fill="#6b6b6b"/><path d="M75,104.4l-1-.6.3-.5,1,.6-.3.5" fill="#737373"/><path d="M75.3,104l-1-.6a3.7,3.7,0,0,1,1-.9l1,.6a3.7,3.7,0,0,0-1,.9" fill="#7a7a7a"/></g></g></g><path d="M76.3,103.1c1.1-.6,2-.1,2,1.1a4.4,4.4,0,0,1-2,3.5c-1.1.6-2,.1-2-1.1A4.4,4.4,0,0,1,76.3,103.1Z" fill="#767676"/></g><g style="isolation:isolate"><g style="isolation:isolate"><g clip-path="url(#clip-path-12)"><g style="isolation:isolate"><path d="M81.7,100l-1-.6.6-.2,1,.6-.6.2" fill="#7a7a7a"/><path d="M82.3,99.8l-1-.6h.4l1,.6h-.4" fill="#737373"/><path d="M82.6,99.7l-1-.6h.3l1,.6h-.3" fill="#6b6b6b"/><path d="M82.9,99.8l-1-.6h.2l1,.6h-.2" fill="#636363"/></g></g></g><g style="isolation:isolate"><g clip-path="url(#clip-path-13)"><g style="isolation:isolate"><path d="M80.2,104.8l-1-.6a1.4,1.4,0,0,1-.6-1.3,3.3,3.3,0,0,1,.1-.8l1,.6a3.3,3.3,0,0,0-.1.8,1.4,1.4,0,0,0,.6,1.3" fill="#545454"/><path d="M79.8,102.7l-1-.6.2-.5,1,.6-.2.5" fill="#5c5c5c"/><path d="M79.9,102.2l-1-.6.2-.4,1,.6-.2.4" fill="#636363"/><path d="M80.1,101.7l-1-.6.2-.4,1,.6-.2.4" fill="#6b6b6b"/><path d="M80.4,101.3l-1-.6.3-.5,1,.6-.3.5" fill="#737373"/><path d="M80.7,100.9l-1-.6a3.7,3.7,0,0,1,1-.9l1,.6a3.7,3.7,0,0,0-1,.9" fill="#7a7a7a"/></g></g></g><path d="M81.7,100c1.1-.6,2-.1,2,1.1a4.4,4.4,0,0,1-2,3.5c-1.1.6-2,.1-2-1.1A4.4,4.4,0,0,1,81.7,100Z" fill="#767676"/></g><polygon points="90 95.5 90 96.6 100.3 90.7 99.3 90.1 90 95.5" fill="#333"/><polygon points="99.3 90.1 101.2 91.2 101.2 89 99.3 90.1" fill="#333"/><g style="isolation:isolate"><g style="isolation:isolate"><g clip-path="url(#clip-path-14)"><g style="isolation:isolate"><path d="M93.2,93.4l-1-.6.6-.2,1,.6-.6.2" fill="#7a7a7a"/><path d="M93.8,93.1l-1-.6h.4l1,.6h-.4" fill="#737373"/><path d="M94.1,93.1l-1-.6h.3l1,.6h-.3" fill="#6b6b6b"/><path d="M94.4,93.2l-1-.6h.2l1,.6h-.2" fill="#636363"/></g></g></g><g style="isolation:isolate"><g clip-path="url(#clip-path-15)"><g style="isolation:isolate"><path d="M91.8,98.1l-1-.6a1.4,1.4,0,0,1-.6-1.3,3.3,3.3,0,0,1,.1-.8l1,.6a3.3,3.3,0,0,0-.1.8,1.4,1.4,0,0,0,.6,1.3" fill="#545454"/><path d="M91.3,96l-1-.6.2-.5,1,.6-.2.5" fill="#5c5c5c"/><path d="M91.4,95.5l-1-.6.2-.4,1,.6-.2.4" fill="#636363"/><path d="M91.6,95.1l-1-.6.2-.4,1,.6-.2.4" fill="#6b6b6b"/><path d="M91.9,94.7l-1-.6.3-.5,1,.6-.3.5" fill="#737373"/><path d="M92.2,94.2l-1-.6a3.7,3.7,0,0,1,1-.9l1,.6a3.7,3.7,0,0,0-1,.9" fill="#7a7a7a"/></g></g></g><path d="M93.2,93.4c1.1-.6,2-.1,2,1.1a4.4,4.4,0,0,1-2,3.5c-1.1.6-2,.1-2-1.1A4.4,4.4,0,0,1,93.2,93.4Z" fill="#767676"/></g><g style="isolation:isolate"><g style="isolation:isolate"><g clip-path="url(#clip-path-16)"><g style="isolation:isolate"><path d="M98.5,90.3l-1-.6.6-.2,1,.6-.6.2" fill="#7a7a7a"/><path d="M99.2,90l-1-.6h.4l1,.6h-.4" fill="#737373"/><path d="M99.5,90l-1-.6h.3l1,.6h-.3" fill="#6b6b6b"/><path d="M99.8,90l-1-.6H99l1,.6h-.2" fill="#636363"/></g></g></g><g style="isolation:isolate"><g clip-path="url(#clip-path-17)"><g style="isolation:isolate"><path d="M97.1,95l-1-.6a1.4,1.4,0,0,1-.6-1.3,3.3,3.3,0,0,1,.1-.8l1,.6a3.3,3.3,0,0,0-.1.8,1.4,1.4,0,0,0,.6,1.3" fill="#545454"/><path d="M96.6,92.9l-1-.6.2-.5,1,.6-.2.5" fill="#5c5c5c"/><path d="M96.8,92.4l-1-.6.2-.4,1,.6-.2.4" fill="#636363"/><path d="M97,92l-1-.6.2-.4,1,.6L97,92" fill="#6b6b6b"/><path d="M97.2,91.6l-1-.6.3-.5,1,.6-.3.5" fill="#737373"/><path d="M97.6,91.1l-1-.6a3.7,3.7,0,0,1,1-.9l1,.6a3.7,3.7,0,0,0-1,.9" fill="#7a7a7a"/></g></g></g><path d="M98.5,90.3c1.1-.6,2-.1,2,1.1a4.4,4.4,0,0,1-2,3.5c-1.1.6-2,.1-2-1.1A4.4,4.4,0,0,1,98.5,90.3Z" fill="#767676"/></g><polygon points="106.8 88 101.2 91.2 101.2 89 90 95.5 90 97.7 84.3 101 84.3 98.8 73.1 105.3 73.1 107.4 69.3 109.6 69.3 103.1 106.8 81.5 106.8 88" fill="#4d4d4d"/><polygon points="95.6 66.4 93.7 65.3 86.2 69.6 88.1 70.7 95.6 66.4" fill="#765b99"/><polygon points="90 63.1 88.1 62 80.6 66.3 82.4 67.4 90 63.1" fill="#765b99"/><polygon points="93.8 71.7 93.7 76 101.2 71.8 101.2 67.4 93.8 71.7" fill="#666" style="mix-blend-mode:multiply"/><path d="M80.6,81.2V88a.6.6,0,0,0,.9.5l4.1-2.3a1.3,1.3,0,0,0,.7-1.2V78.2a.6.6,0,0,0-.9-.5l-4,2.3A1.3,1.3,0,0,0,80.6,81.2Z" fill="#89dbef"/><polygon points="58.1 66.3 80.6 79.4 80.6 77.1 58.1 64.2 58.1 66.3" fill="#3d2d22"/><polygon points="89.9 74 80.6 79.4 80.6 77.1 89.9 71.8 89.9 74" fill="#513d2f"/><polygon points="67.5 58.7 90 71.8 80.6 77.1 58.1 64.2 67.5 58.7" fill="#705a4a"/><path d="M61.8,71.1v4.2a1.6,1.6,0,0,0,.8,1.4l4.6,2.6a.8.8,0,0,0,1.2-.7V74.4l-6.5-3.7A.8.8,0,0,0,61.8,71.1Z" fill="#89dbef"/><path d="M70.3,76.1v4.2a1.5,1.5,0,0,0,.7,1.3l4.6,2.6a.8.8,0,0,0,1.3-.7V79.3l-6.4-3.7A.8.8,0,0,0,70.3,76.1Z" fill="#89dbef"/><path d="M78.7,78.2,60,67.4v2.2l2,1.1a.8.8,0,0,1,1.1-.3l4.6,2.6a1.6,1.6,0,0,1,.8,1.4h0l2,1.2a.8.8,0,0,1,1.1-.3L76.1,78a1.5,1.5,0,0,1,.7,1.3h0l1.9,1.1Z" fill="#352742"/><path d="M67.6,73.1,63,70.4a.8.8,0,0,0-1.1.3l6.5,3.7h0A1.6,1.6,0,0,0,67.6,73.1Z" fill="#4db0c1"/><path d="M76.1,78l-4.6-2.6a.8.8,0,0,0-1.1.3l6.4,3.7h0A1.5,1.5,0,0,0,76.1,78Z" fill="#4db0c1"/><polyline points="78.7 80.4 80.6 79.4 78.7 78.2" fill="#999" style="mix-blend-mode:multiply"/><path d="M57.7,94.2l10.6,6.1a2.2,2.2,0,0,0,2.2,0l6.4-3.7L63.7,89l-6,3.5A1,1,0,0,0,57.7,94.2Z" fill="#999" style="mix-blend-mode:multiply"/><polygon points="58.1 81.5 58.1 92.3 69.3 98.8 69.3 88 58.1 81.5" fill="#593f70"/><polygon points="74.9 95.5 69.3 98.8 69.3 88 75 84.6 74.9 95.5" fill="#765b99"/><polygon points="58.1 83.6 58.1 81.5 69.3 87.9 69.3 90.1 58.1 83.6" fill="#3d2d22"/><polygon points="75 84.8 74.9 86.9 69.3 90.1 69.3 87.9 75 84.8" fill="#513d2f"/><polygon points="63.7 78.2 75 84.7 69.3 87.9 58.1 81.5 63.7 78.2" fill="#705a4a"/><path d="M69.3,103.1V95.9a2.6,2.6,0,0,1,1.3-2.2L75,91.2a1.2,1.2,0,0,1,1.8,1.1v6.5" fill="none" stroke="#1a1a1a" stroke-miterlimit="10" stroke-width="0.57"/><line x1="69.2" y1="96.6" x2="76.9" y2="92.2" fill="none" stroke="#1a1a1a" stroke-miterlimit="10" stroke-width="0.57"/><path d="M65.6,100.9V93.4a2,2,0,0,0-1-1.8l-8.6-5a1.1,1.1,0,0,0-1.6.9v6.8" fill="none" stroke="#1a1a1a" stroke-miterlimit="10" stroke-width="0.57"/><line x1="65.6" y1="94.4" x2="54.3" y2="87.9" fill="none" stroke="#1a1a1a" stroke-miterlimit="10" stroke-width="0.57"/><polygon points="88.1 87.9 88.1 90.1 103 81.5 103.1 79.4 88.1 87.9" fill="#999" style="mix-blend-mode:multiply"/><path d="M90.1,91.2V84a2.6,2.6,0,0,1,1.3-2.4l10-5.6a1.1,1.1,0,0,1,1.7,1v6.7" fill="none" stroke="#1a1a1a" stroke-miterlimit="10" stroke-width="0.57"/><line x1="90" y1="84.8" x2="103" y2="77" fill="none" stroke="#1a1a1a" stroke-miterlimit="10" stroke-width="0.57"/></g><g id="cactus"><path d="M105.7,113c3.2,1.8,2.8,5.1-1,7.2s-9.4,2.4-12.6.6-2.8-5.1,1-7.2S102.5,111.1,105.7,113Z" fill="#917154"/><path d="M155.8,87.4c3.2,1.8,2.8,5.1-1,7.2s-9.4,2.4-12.6.6-2.8-5.1,1-7.2S152.6,85.5,155.8,87.4Z" fill="#ba926a"/><path d="M142.4,88.7c2.5,1.4,2.2,4-.8,5.7s-7.3,1.9-9.8.4-2.2-4,.8-5.7S139.9,87.2,142.4,88.7Z" fill="#ba926a"/><g style="isolation:isolate"><polygon points="100.7 117.6 96.6 115.2 96.6 107.9 100.7 110.3 100.7 117.6" fill="#407b45"/><polygon points="104.3 99.2 100.2 96.8 102.3 95.6 106.4 98 104.3 99.2" fill="#57a95e"/><polygon points="99.5 107 95.3 104.6 96.5 103.9 100.7 106.3 99.5 107" fill="#57a95e"/><polygon points="106.4 90.8 102.3 88.4 105.9 86.3 110.1 88.7 106.4 90.8" fill="#57a95e"/><polygon points="106.4 98 102.3 95.6 102.3 88.4 106.4 90.8 106.4 98" fill="#407b45"/><polygon points="95.8 113 91.7 110.6 91.7 99.5 95.8 101.9 95.8 113" fill="#407b45"/><polygon points="100.7 106.3 96.5 103.9 96.5 89.3 100.6 91.8 100.7 106.3" fill="#407b45"/><polygon points="95.8 101.9 91.7 99.5 95.3 97.4 99.5 99.8 95.8 101.9" fill="#57a95e"/><polygon points="100.6 91.8 96.5 89.3 100.1 87.2 104.3 89.6 100.6 91.8" fill="#57a95e"/><polygon points="104.3 89.6 104.3 99.2 106.4 98 106.4 90.8 110.1 88.7 110.1 99.9 108.3 100.9 106.5 102 104.3 103.2 104.4 115.5 100.7 117.6 100.7 110.3 96.9 112.5 95.8 113 95.8 101.9 99.5 99.8 99.5 107 100.7 106.3 100.6 91.8 104.3 89.6" fill="#519c57"/></g><circle cx="150.9" cy="82.1" r="9.2" fill="#ceac91"/><circle cx="157.3" cy="87.6" r="5.6" fill="#d3b49f"/><circle cx="138.5" cy="87.9" r="5.6" fill="#ceac91"/><path d="M52,70c2.5,1.4,2.1,3.9-.9,5.6s-7.5,2-10,.7-2.1-3.9.9-5.6S49.5,68.6,52,70Z" fill="#917154" opacity="0.71"/><path d="M47.2,74.7c-2.2-.2-5.1.2-6.9-1.2s.6-6.8,6.9-6.9,8.8,5.7,6.9,6.9S49.5,74.5,47.2,74.7Z" fill="url(#linear-gradient)"/></g></g><g id="Boat-2" data-name="Boat"><g id="water_and_cork" data-name="water and cork"><path id="_Clipping_Path_5" data-name="&lt;Clipping Path&gt;" d="M-36.8,90.7l-79.4,45.7a12.3,12.3,0,0,1-11.1,0l-79.5-46.4a4.6,4.6,0,0,1-2.1-2.2l15.4,58.3a65.1,65.1,0,0,0,49.9,43.5,123.8,123.8,0,0,0,41.4.5,65.4,65.4,0,0,0,51.9-44l15.7-57.6A4.4,4.4,0,0,1-36.8,90.7Z" fill="#a07a5c"/><g clip-path="url(#clip-path-18)"><path d="M14.7,84.4c4.9,2.8,4.9,7.4.1,10.3l-126.9,73.7c-4.9,2.8-12.9,2.8-17.7,0L-257.6,94.7c-4.9-2.8-4.9-7.5-.1-10.3l126.9-73.7c4.9-2.8,12.9-2.8,17.7,0Z" fill="#36949e"/></g><path id="_Clipping_Path_6" data-name="&lt;Clipping Path&gt;" d="M-36.8,90.7l-79.4,45.7a12.3,12.3,0,0,1-11.1,0l-79.5-46.4a4.6,4.6,0,0,1-2.1-2.2l15.4,58.3a65.1,65.1,0,0,0,49.9,43.5,123.8,123.8,0,0,0,41.4.5,65.4,65.4,0,0,0,51.9-44l15.7-57.6A4.4,4.4,0,0,1-36.8,90.7Z" fill="#a07a5c"/><g clip-path="url(#clip-path-18)"><path d="M14.7,84.4c4.9,2.8,4.9,7.4.1,10.3l-126.9,73.7c-4.9,2.8-12.9,2.8-17.7,0L-257.6,94.7c-4.9-2.8-4.9-7.5-.1-10.3l126.9-73.7c4.9-2.8,12.9-2.8,17.7,0Z" fill="#36949e"/></g></g></g></g></svg>