<svg xmlns="http://www.w3.org/2000/svg" xmlns:xlink="http://www.w3.org/1999/xlink" width="200" height="200" viewBox="0 0 200 200"><defs><clipPath id="clip-path"><path id="_Clipping_Path_" data-name="&lt;Clipping Path&gt;" d="M420,91l-79,46a12,12,0,0,1-11,0L250,90l-2-2,15,58a65,65,0,0,0,50,43,124,124,0,0,0,41,0,65,65,0,0,0,52-44l16-58Z" fill="#a07a5c"/></clipPath><clipPath id="clip-path-3"><path id="_Clipping_Path_3" data-name="&lt;Clipping Path&gt;" d="M185,82l-79,46a12,12,0,0,1-11,0L15,82l-2-2,16,58a65,65,0,0,0,50,43,124,124,0,0,0,41,0,65,65,0,0,0,52-44l15-58Z" fill="#a07a5c"/></clipPath><clipPath id="clip-path-4"><path d="M13,79V76a4,4,0,0,0,2,3v3A4,4,0,0,1,13,79Z" fill="none"/></clipPath><clipPath id="clip-path-5"><path d="M187,76v3a4,4,0,0,1-2,3V79A4,4,0,0,0,187,76Z" fill="none"/></clipPath><clipPath id="clip-path-6"><path d="M106,125v3a12,12,0,0,1-11,0v-3A12,12,0,0,0,106,125Z" fill="none"/></clipPath><clipPath id="clip-path-7"><path d="M129,57l5,3h-3l-5-3Z" fill="none"/></clipPath><clipPath id="clip-path-8"><path d="M127,71l-5-3a3,3,0,0,1-1-3,10,10,0,0,1,5-8l5,3a10,10,0,0,0-5,8A3,3,0,0,0,127,71Z" fill="none"/></clipPath><clipPath id="clip-path-9"><polygon points="91 56 91 90 61 73 61 38 91 56" fill="none"/></clipPath><clipPath id="clip-path-10"><polygon points="91 55 120 38 120 72 91 89 91 55" fill="none"/></clipPath><clipPath id="clip-path-11"><polygon points="61 38 91 21 121 38 91 55 61 38" fill="none"/></clipPath><clipPath id="clip-path-12"><path d="M84,82l5,3H86l-5-3Z" fill="none"/></clipPath><clipPath id="clip-path-13"><path d="M83,97l-5-3a3,3,0,0,1-1-3,10,10,0,0,1,5-8l5,3a10,10,0,0,0-5,8A3,3,0,0,0,83,97Z" fill="none"/></clipPath><clipPath id="clip-path-14"><path id="_Clipping_Path_4" data-name="&lt;Clipping Path&gt;" d="M68,84,54,77a2,2,0,0,1-1-2l2-9h2l13,8a2,2,0,0,1,1,2l-2,9Z" fill="#89dbef"/></clipPath><clipPath id="clip-path-15"><path d="M157,66V79h-5V67h5Z" fill="none"/></clipPath><clipPath id="clip-path-16"><path d="M157,68v8h-5V70h5Z" fill="none"/></clipPath><clipPath id="clip-path-17"><path d="M153,52l8,11c-4-2-11-3-15,0l-2,2Z" fill="none"/></clipPath><clipPath id="clip-path-18"><path d="M143,65l10-13,10,13c2,2,1,5-2,7s-11,2-15,0S142,68,143,65Z" fill="none"/></clipPath><clipPath id="clip-path-19"><polygon points="153 52 145 63 147 68 159 68 162 64 153 52" fill="none"/></clipPath><clipPath id="clip-path-20"><path d="M153,45l5,11a12,12,0,0,0-10,0l-2,2Z" fill="none"/></clipPath><clipPath id="clip-path-21"><path d="M146,57l7-12,7,12c1,2,0,3-2,4a12,12,0,0,1-10,0C146,60,145,59,146,57Z" fill="none"/></clipPath><clipPath id="clip-path-22"><path d="M160,57l-2-2-5-11Z" fill="none"/></clipPath><clipPath id="clip-path-23"><path d="M172,64v8h-5V64h5Z" fill="none"/></clipPath><clipPath id="clip-path-24"><path d="M172,66v4h-5V66h5Z" fill="none"/></clipPath><clipPath id="clip-path-25"><path d="M176,64h-1l-5-8Z" fill="none"/></clipPath><clipPath id="clip-path-26"><path d="M169,55l5,8a11,11,0,0,0-10,0h-2Z" fill="none"/></clipPath><clipPath id="clip-path-27"><path d="M163,64l7-9,7,9c1,2,1,3-2,5a11,11,0,0,1-10,0C162,67,162,66,163,64Z" fill="none"/></clipPath><clipPath id="clip-path-28"><polygon points="170 55 164 62 166 66 174 66 176 63 170 55" fill="none"/></clipPath><clipPath id="clip-path-29"><path d="M169,50l4,7a8,8,0,0,0-7,0h-1Z" fill="none"/></clipPath><clipPath id="clip-path-30"><path d="M165,59l5-8,5,8c1,1,0,2-1,3a8,8,0,0,1-7,0C165,61,164,60,165,59Z" fill="none"/></clipPath><clipPath id="clip-path-31"><path d="M174,59h-1l-4-7Z" fill="none"/></clipPath></defs><title>truck</title><g style="isolation:isolate"><g id="Boat-2" data-name="Boat"><g id="water_and_cork" data-name="water and cork"><path id="_Clipping_Path_5" data-name="&lt;Clipping Path&gt;" d="M420,91l-79,46a12,12,0,0,1-11,0L250,90l-2-2,15,58a65,65,0,0,0,50,43,124,124,0,0,0,41,0,65,65,0,0,0,52-44l16-58Z" fill="#a07a5c"/><g clip-path="url(#clip-path)"><path d="M472,84c5,3,5,7,0,10L345,168c-5,3-13,3-18,0L200,95c-5-3-5-7,0-10L326,11c5-3,13-3,18,0Z" fill="#36949e"/></g><path id="_Clipping_Path_6" data-name="&lt;Clipping Path&gt;" d="M420,91l-79,46a12,12,0,0,1-11,0L250,90l-2-2,15,58a65,65,0,0,0,50,43,124,124,0,0,0,41,0,65,65,0,0,0,52-44l16-58Z" fill="#a07a5c"/><g clip-path="url(#clip-path)"><path d="M472,84c5,3,5,7,0,10L345,168c-5,3-13,3-18,0L200,95c-5-3-5-7,0-10L326,11c5-3,13-3,18,0Z" fill="#36949e"/></g></g></g><g id="Truck"><g id="cork_bottom" data-name="cork bottom"><path d="M13,79h0Z" fill="#b5885e"/><path id="_Clipping_Path_7" data-name="&lt;Clipping Path&gt;" d="M185,82l-79,46a12,12,0,0,1-11,0L15,82l-2-2,16,58a65,65,0,0,0,50,43,124,124,0,0,0,41,0,65,65,0,0,0,52-44l15-58Z" fill="#a07a5c"/><g clip-path="url(#clip-path-3)"><path d="M140,161c-25,13-41,4-41-6V95L199,41,185,91C185,114,165,148,140,161Z" fill="#ceac91" opacity="0.2"/><path d="M190,46l-9,46c0,21-17,49-38,61-7,4-20,9-25,9s-16-5-16-12V94Z" fill="#ceac91" opacity="0.3"/><path d="M181,52l-5,42c0,19-13,42-32,52-3,2-22,11-24,11s-16-3-16-10V94Z" fill="#ceac91" opacity="0.4"/><path d="M147,138l-23,13a10,10,0,0,1-16-9V94l64-37V94A50,50,0,0,1,147,138Z" fill="#ceac91" opacity="0.5"/></g><path d="M187,79h0Z" fill="#b5885e"/><polygon points="26 88 27 89 28 89 28 98 28 106 27 97 26 88" fill="#584434"/><polygon points="133 110 134 110 135 109 134 121 134 132 134 121 133 110" fill="#584434" opacity="0.3"/><polygon points="124 117 124 117 125 117 125 123 124 130 124 123 124 117" fill="#584434" opacity="0.5"/><polygon points="126 115 127 115 127 115 127 121 127 126 127 121 126 115" fill="#584434"/><polygon points="90 123 91 124 93 125 92 140 92 155 91 139 90 123" fill="#765b46" opacity="0.2"/><path d="M50,161c0,1,0,2-2,2l-3-3c0-1,0-2,2-2Z" fill="#8b6a52" opacity="0.67"/><path d="M87,177H83a1,1,0,0,1,0-2h4A1,1,0,0,1,87,177Z" fill="#8b6a52"/><path d="M126,172c1,0,2,1,1,1h-3c-1,0-2-1-1-1Z" fill="#939393" opacity="0.5" style="mix-blend-mode:multiply"/><path d="M154,137a5,5,0,0,1-1,4c-1,1-2,1-3,0a5,5,0,0,1,1-4C152,136,153,136,154,137Z" fill="#8b6a52" opacity="0.4"/><path d="M176,96a5,5,0,0,1-1,4c-1,1-2,1-3,0a5,5,0,0,1,1-4C174,95,175,95,176,96Z" fill="#584434" opacity="0.3"/><path d="M164,105a2,2,0,0,1-1,2h-1a2,2,0,0,1,1-2Z" fill="#584434" opacity="0.5"/><path d="M120,137a5,5,0,0,1-1,4c-1,1-2,1-3,0a5,5,0,0,1,1-4C118,136,119,136,120,137Z" fill="#765b46" opacity="0.78"/><path d="M58,146c0,4-3,5-6,3a12,12,0,0,1-6-10c0-4,3-5,6-3A12,12,0,0,1,58,146Z" fill="#8b6a52"/><path d="M89,126c0,4-3,5-6,3a12,12,0,0,1-6-10c0-4,3-5,6-3A12,12,0,0,1,89,126Z" fill="#765b46" opacity="0.3"/><path d="M40,123c0,2-2,3-4,2a8,8,0,0,1-4-6c0-2,2-3,4-2A8,8,0,0,1,40,123Z" fill="#765b46"/><path d="M157,152c0,4-3,9-6,11s-6,0-6-4,3-9,6-11S157,148,157,152Z" fill="#8b6a52" opacity="0.81"/><path d="M59,146c0,1-1,2-2,1a5,5,0,0,1-2-4c0-1,1-2,2-1A5,5,0,0,1,59,146Z" fill="#765b46"/></g><g id="grass_and_road" data-name="grass and road"><g style="isolation:isolate"><polygon points="89 29 89 33 80 38 80 35 89 29" fill="#6c9931"/><polygon points="112 43 112 46 89 33 89 29 112 43" fill="#4b6a22"/><polygon points="122 36 122 40 112 46 112 43 122 36" fill="#6c9931"/><polygon points="70 41 70 44 60 49 60 46 70 41" fill="#6c9931"/><polygon points="112 43 103 48 80 35 89 29 112 43" fill="#6f9730"/><polygon points="103 48 103 51 80 38 80 35 103 48" fill="#455e1e"/><polygon points="112 43 112 46 103 51 103 48 112 43" fill="#64872b"/><polygon points="103 48 103 51 92 57 92 54 103 48" fill="#6c9931"/><polygon points="92 54 92 57 70 44 70 41 92 54" fill="#4b6a22"/><polygon points="50 52 50 55 41 61 41 57 50 52" fill="#6c9931"/><polygon points="83 59 83 62 60 49 60 46 83 59" fill="#455e1e"/><polygon points="92 54 83 59 60 46 70 41 92 54" fill="#6f9730"/><polygon points="92 54 92 57 83 62 83 59 92 54" fill="#64872b"/><polygon points="73 65 73 68 50 55 50 52 73 65" fill="#4b6a22"/><polygon points="83 59 83 62 73 68 73 65 83 59" fill="#6c9931"/><polygon points="31 63 31 67 21 72 21 69 31 63" fill="#6c9931"/><polygon points="64 71 64 74 41 61 41 57 64 71" fill="#455e1e"/><g style="isolation:isolate"><g clip-path="url(#clip-path-4)"><g style="isolation:isolate"><path d="M15,79v3a4,4,0,0,1-2-3V76a4,4,0,0,0,2,3" fill="#4d6d23"/></g></g></g><polygon points="44 82 44 85 21 72 21 69 44 82" fill="#455e1e"/><path d="M122,36l-11,6L89,29l-9,5,23,13L92,54,70,41l-9,5L83,59,73,65,50,52l-9,5L64,71,53,77,31,63l-9,5L44,82,32,89,15,79c-3-2-3-5,0-6L94,26a12,12,0,0,1,11,0Z" fill="#79ab36"/><polygon points="73 65 64 71 41 57 50 52 73 65" fill="#6f9730"/><polygon points="73 65 73 68 64 74 64 71 73 65" fill="#64872b"/><polygon points="64 71 64 74 53 80 53 77 64 71" fill="#6c9931"/><polygon points="53 77 53 80 31 67 31 63 53 77" fill="#4b6a22"/><polygon points="53 77 53 80 44 85 44 82 53 77" fill="#64872b"/><polygon points="53 77 44 82 21 69 31 63 53 77" fill="#6f9730"/><polygon points="32 89 32 92 15 82 15 79 32 89" fill="#4b6a22"/><polygon points="44 82 44 85 32 92 32 89 44 82" fill="#6c9931"/></g><g style="isolation:isolate"><polygon points="127 41 127 43 37 95 37 93 127 41" fill="#585858"/><polygon points="129 42 38 94 37 93 127 41 129 42" fill="#dcdcdc"/><polygon points="38 94 38 96 37 95 37 93 38 94" fill="#898989"/><polygon points="129 42 129 43 38 96 38 94 129 42" fill="#c5c5c5"/><polygon points="161 61 161 62 71 115 71 113 161 61" fill="#585858"/><polygon points="72 114 72 115 71 115 71 113 72 114" fill="#898989"/><polygon points="163 61 163 63 72 115 72 114 163 61" fill="#c5c5c5"/><polygon points="77 117 77 118 32 92 32 90 77 117" fill="#3d3d3d"/><polygon points="168 64 77 117 32 90 122 38 127 41 37 93 38 94 129 42 161 61 71 113 72 114 163 61 168 64" fill="#626262"/><polygon points="163 61 72 114 71 113 161 61 163 61" fill="#dcdcdc"/><polygon points="168 64 168 66 77 118 77 117 168 64" fill="#585858"/></g><g style="isolation:isolate"><polygon points="157 69 157 72 148 77 148 74 157 69" fill="#6c9931"/><g style="isolation:isolate"><g clip-path="url(#clip-path-5)"><g style="isolation:isolate"><path d="M187,76v3h0V76h0" fill="#547726"/><path d="M187,76v3h0V77h0" fill="#5b8129"/><path d="M187,77v3h-2V79h2" fill="#628b2c"/><path d="M185,79v3h0V79h0" fill="#69952f"/></g></g></g><polygon points="185 79 185 82 180 85 180 82 185 79" fill="#6c9931"/><polygon points="180 82 180 85 157 72 157 69 180 82" fill="#4b6a22"/><polygon points="138 80 138 83 128 89 128 86 138 80" fill="#6c9931"/><polygon points="180 82 171 87 148 74 157 69 180 82" fill="#6f9730"/><polygon points="171 87 171 91 148 77 148 74 171 87" fill="#455e1e"/><polygon points="180 82 180 85 171 91 171 87 180 82" fill="#64872b"/><polygon points="171 87 171 91 160 97 160 93 171 87" fill="#6c9931"/><polygon points="160 93 160 97 138 83 138 80 160 93" fill="#4b6a22"/><polygon points="118 92 118 95 109 100 109 97 118 92" fill="#6c9931"/><polygon points="160 93 160 97 151 102 151 99 160 93" fill="#64872b"/><polygon points="151 99 151 102 128 89 128 86 151 99" fill="#455e1e"/><polygon points="160 93 151 99 128 86 138 80 160 93" fill="#6f9730"/><polygon points="141 105 141 108 118 95 118 92 141 105" fill="#4b6a22"/><polygon points="151 99 151 102 141 108 141 105 151 99" fill="#6c9931"/><polygon points="99 103 99 106 89 111 89 108 99 103" fill="#6c9931"/><polygon points="132 110 132 113 109 100 109 97 132 110" fill="#455e1e"/><polygon points="141 105 132 110 109 97 118 92 141 105" fill="#6f9730"/><polygon points="141 105 141 108 132 113 132 110 141 105" fill="#64872b"/><polygon points="121 116 121 119 99 106 99 103 121 116" fill="#4b6a22"/><polygon points="132 110 132 113 121 119 121 116 132 110" fill="#6c9931"/><polygon points="112 121 112 125 89 111 89 108 112 121" fill="#455e1e"/><polygon points="121 116 112 121 89 108 99 103 121 116" fill="#6f9730"/><polygon points="121 116 121 119 112 125 112 121 121 116" fill="#64872b"/><polygon points="112 121 112 125 106 128 106 125 112 121" fill="#6c9931"/><polygon points="95 125 95 128 77 118 77 115 95 125" fill="#4b6a22"/><g style="isolation:isolate"><g clip-path="url(#clip-path-6)"><g style="isolation:isolate"><path d="M106,125v3h-2v-3h2" fill="#69952f"/><path d="M104,126v3h-3v-3h3" fill="#628b2c"/><path d="M101,126v3H99v-3h2" fill="#5b8129"/><path d="M99,126v3H97v-3h2" fill="#547726"/><path d="M97,126v3H95v-3h2" fill="#4d6d23"/></g></g></g><path d="M185,73c3,2,3,5,0,6l-5,3L157,69l-9,5,23,13-10,6L138,80l-9,5,23,13-10,6L118,92l-9,5,23,13-10,6L99,103l-9,5,23,13-6,4a12,12,0,0,1-11,0L77,115l90-52Z" fill="#79ab36"/></g></g><g id="truck-2" data-name="truck"><path d="M73,106,53,95c-1,0-1-1,0-2l68-39h3l20,12c1,0,1,1,0,2L76,106Z" fill="#454545"/><g style="isolation:isolate"><g style="isolation:isolate"><g clip-path="url(#clip-path-7)"><g style="isolation:isolate"><path d="M131,60l-5-3h1l5,3h-1" fill="#313131"/><path d="M132,59l-5-3h1l5,3h-1" fill="#2e2e2e"/><path d="M133,59l-5-3h1l5,3h-1" fill="#2b2b2b"/><path d="M134,59l-5-3h0l5,3h0" fill="#282828"/></g></g></g><g style="isolation:isolate"><g clip-path="url(#clip-path-8)"><g style="isolation:isolate"><path d="M127,71l-5-3a3,3,0,0,1-1-3V63l5,3v2a3,3,0,0,0,1,3" fill="#222"/><path d="M126,66l-5-3h0l5,3h0" fill="#252525"/><path d="M127,65l-5-3h0l5,3h0" fill="#282828"/><path d="M127,64l-5-3h1l5,3h-1" fill="#2b2b2b"/><path d="M128,63l-5-3h1l5,3h-1" fill="#2e2e2e"/><path d="M129,62l-5-3,2-2,5,3-2,2" fill="#313131"/></g></g></g><path d="M131,60c3-2,5,0,5,3a10,10,0,0,1-5,8c-3,2-5,0-5-3A10,10,0,0,1,131,60Z" fill="#2f2f2f"/></g><path d="M134,64c0-2-1-3-3-2a7,7,0,0,0-3,5c0,2,1,3,3,2A7,7,0,0,0,134,64Z" fill="#898989"/><g style="isolation:isolate"><polygon points="91 56 91 84 66 70 66 41 91 56" fill="#c2c2c2"/><polygon points="91 56 140 27 140 55 91 84 91 56" fill="#dbdbdb"/><polygon points="66 41 115 13 140 27 91 56 66 41" fill="#e5e5e5"/></g><g id="cork_logo" data-name="cork logo"><g style="isolation:isolate"><g clip-path="url(#clip-path-9)"><path d="M73,50H69q-1,1-1,5a13,13,0,0,0,1,6l5,4,4,2V61l-3-2H73V57h1l3,2V53H77l-4-3" fill="#582e77"/><path d="M84,57H80q-2,1-2,4a12,12,0,0,0,2,6l5,4h5q2-1,2-4a12,12,0,0,0-2-6l-5-4" fill="#582e77"/></g></g><g opacity="0.6" style="isolation:isolate"><g clip-path="url(#clip-path-10)"><path d="M99,54l-2,3h0l-5,3V72l5-3V62h0l2-2V54" fill="#582e77"/><polyline points="105 47 100 50 100 67 105 64 105 61 106 60 107 63 112 60 110 55 112 47 107 50 106 55 105 55 105 47" fill="#582e77"/></g></g><g opacity="0.4" style="isolation:isolate"><g clip-path="url(#clip-path-11)"><polyline points="90 38 85 41 101 50 106 47 90 38" fill="#582e77"/></g></g></g><g id="labels" opacity="0.17"><path d="M89,60l-6-4h0l6,4h0Z" fill="#fff"/><path d="M89,61l-3-2h0l3,2h0Z" fill="#fff"/><path d="M89,63l-3-2h0l3,2h0Z" fill="#fff"/><path d="M89,68l-3-2h0l3,2h0Z" fill="#fff"/><path d="M89,69l-3-2h0l3,2h0Z" fill="#fff"/><path d="M89,79l-3-2h0l3,2h0Z" fill="#fff"/><path d="M89,81l-3-2h0l3,2h0Z" fill="#fff"/><path d="M73,56l-5-3H68V47h1l5,3h1v5Z" fill="#fff"/></g><g id="door_locks" data-name="door locks"><line x1="75" y1="49" x2="75" y2="73" fill="none" stroke="#f2f2f2" stroke-miterlimit="10" stroke-width="0.38"/><line x1="76" y1="49" x2="76" y2="74" fill="none" stroke="#000" stroke-miterlimit="10" stroke-width="0.38" opacity="0.1"/><line x1="75" y1="51" x2="76" y2="51" fill="none" stroke="#fff" stroke-miterlimit="10" stroke-width="0.32"/><line x1="75" y1="71" x2="76" y2="72" fill="none" stroke="#fff" stroke-miterlimit="10" stroke-width="0.32"/><line x1="70" y1="46" x2="70" y2="70" fill="none" stroke="#f2f2f2" stroke-miterlimit="10" stroke-width="0.38"/><line x1="71" y1="47" x2="71" y2="71" fill="none" stroke="#000" stroke-miterlimit="10" stroke-width="0.38" opacity="0.1"/><line x1="70" y1="48" x2="71" y2="48" fill="none" stroke="#fff" stroke-miterlimit="10" stroke-width="0.32"/><line x1="70" y1="68" x2="71" y2="69" fill="none" stroke="#fff" stroke-miterlimit="10" stroke-width="0.32"/><line x1="86" y1="56" x2="86" y2="80" fill="none" stroke="#f2f2f2" stroke-miterlimit="10" stroke-width="0.38"/><line x1="87" y1="56" x2="87" y2="81" fill="none" stroke="#000" stroke-miterlimit="10" stroke-width="0.38" opacity="0.1"/><line x1="87" y1="58" x2="87" y2="58" fill="none" stroke="#fff" stroke-miterlimit="10" stroke-width="0.32"/><line x1="87" y1="78" x2="87" y2="79" fill="none" stroke="#fff" stroke-miterlimit="10" stroke-width="0.32"/><line x1="80" y1="52" x2="80" y2="76" fill="none" stroke="#f2f2f2" stroke-miterlimit="10" stroke-width="0.38"/><line x1="81" y1="53" x2="81" y2="77" fill="none" stroke="#000" stroke-miterlimit="10" stroke-width="0.38" opacity="0.1"/><line x1="80" y1="54" x2="81" y2="54" fill="none" stroke="#fff" stroke-miterlimit="10" stroke-width="0.32"/><line x1="80" y1="74" x2="81" y2="75" fill="none" stroke="#fff" stroke-miterlimit="10" stroke-width="0.32"/></g><polygon points="91 86 73 76 73 73 91 84 91 86" fill="#3a3a3a"/><polygon points="140 58 91 86 91 84 140 55 140 58" fill="#686868"/><g style="isolation:isolate"><g style="isolation:isolate"><g clip-path="url(#clip-path-12)"><g style="isolation:isolate"><path d="M86,86l-5-3h1l5,3H86" fill="#363636"/><path d="M87,85l-5-3h1l5,3H87" fill="#333332"/><path d="M88,85l-5-3h1l5,3H88" fill="#30302f"/><path d="M89,85l-5-3h0l5,3h0" fill="#2c2c2c"/></g></g></g><g style="isolation:isolate"><g clip-path="url(#clip-path-13)"><g style="isolation:isolate"><path d="M83,97l-5-3a3,3,0,0,1-1-3V89l5,3v2a3,3,0,0,0,1,3" fill="#252525"/><path d="M81,92l-5-3h0l5,3h0" fill="#292928"/><path d="M82,91l-5-3h0l5,3h0" fill="#2c2c2c"/><path d="M82,90l-5-3h1l5,3H82" fill="#30302f"/><path d="M83,89l-5-3h1l5,3H83" fill="#333332"/><path d="M84,88l-5-3,2-2,5,3-2,2" fill="#363636"/></g></g></g><path d="M86,86c3-2,5,0,5,3a10,10,0,0,1-5,8c-3,2-5,0-5-3A10,10,0,0,1,86,86Z" fill="#353534"/></g><path d="M89,90c0-2-1-3-3-2a7,7,0,0,0-3,5c0,2,1,3,3,2A7,7,0,0,0,89,90Z" fill="#898989"/><path d="M52,76h2V70H51v6Z" fill="#3a3a3a"/><polygon points="56 74 55 73 55 72 56 73 56 74" fill="#3a3a3a"/><polygon points="56 77 55 76 55 75 56 76 56 77" fill="#3a3a3a"/><g style="isolation:isolate"><polygon points="70 99 52 88 52 76 70 87 70 99" fill="#71390f"/><path d="M86,66V84l-3,2a9,9,0,0,0-4,7h0l-9,5V87l4-14Z" fill="#a35216"/><polygon points="70 87 52 76 56 62 74 72 70 87" fill="#854312"/><polygon points="74 72 56 62 68 55 86 66 74 72" fill="#b65b18"/></g><path d="M76,88H75V82h2v6Z" fill="#3a3a3a"/><polygon points="73 82 74 83 74 82 73 82 73 82" fill="#3a3a3a"/><polygon points="73 85 74 86 74 85 73 84 73 85" fill="#3a3a3a"/><polygon points="70 99 52 88 52 86 70 97 70 99" fill="#3a3a3a"/><g style="isolation:isolate"><path id="_Clipping_Path_8" data-name="&lt;Clipping Path&gt;" d="M68,84,54,77a2,2,0,0,1-1-2l2-9h2l13,8a2,2,0,0,1,1,2l-2,9Z" fill="#89dbef"/><g clip-path="url(#clip-path-14)"><path d="M85,70c2,7-4,11-14,9S52,70,49,63s4-11,14-9S83,64,85,70Z" fill="#fffdae" opacity="0.28"/></g></g><path d="M56,87H54V83h2v3Z" fill="#fffdae"/><path d="M68,94H67V90h2v3Z" fill="#fffdae"/></g><g id="Trees"><path d="M161,84c4-2,4-6,0-9a17,17,0,0,0-15,0c-4,2-4,6,0,9A17,17,0,0,0,161,84Z" fill="#56772c" opacity="0.85"/><g style="isolation:isolate"><g style="isolation:isolate"><g clip-path="url(#clip-path-15)"><g style="isolation:isolate"><path d="M157,66V78h0V66h0" fill="#735a3f"/><path d="M157,66V78h0V66h0" fill="#775e41"/><path d="M157,66V78h0V66h0" fill="#7b6144"/><path d="M157,66V78h0V66h0" fill="#7f6446"/><path d="M157,66V78h0V67h0" fill="#836748"/><path d="M156,67V79h0V67h0" fill="#876a4a"/><path d="M156,67V79h0V67h0" fill="#8b6d4c"/><path d="M156,67V79h-1V68h1" fill="#8f704e"/><path d="M155,68V80h-1V68h1" fill="#8b6d4c"/><path d="M154,68V80h0V68h0" fill="#876a4a"/><path d="M154,68V80h0V68h0" fill="#836748"/><path d="M153,68V80h0V68h0" fill="#7f6446"/><path d="M153,68V80h0V68h0" fill="#7b6144"/><path d="M153,68V80h0V68h0" fill="#775e41"/><path d="M152,68V80h0V68h0" fill="#735a3f"/><path d="M152,68V80h0V68h0" fill="#6f573d"/><path d="M151,68V80h0V68h0" fill="#6b543b"/><path d="M151,68V80h-1V67h1" fill="#675139"/></g></g></g><path d="M156,64c1,1,1,2,0,3h-5c-1-1-1-2,0-3Z" fill="#ab865e"/></g><g opacity="0.3"><g style="isolation:isolate"><g style="isolation:isolate"><g clip-path="url(#clip-path-16)"><g style="isolation:isolate"><path d="M157,68v6h0V68h0"/><path d="M157,68v6h0V68h0"/><path d="M157,68v6h0V68h0"/><path d="M157,68v6h0V69h0"/><path d="M157,69v6h0V69h0"/><path d="M156,69v6h0V69h0"/><path d="M156,69v6h0V70h0"/><path d="M156,70v6h-1V70h1"/><path d="M155,70v6h-1V70h1"/><path d="M154,70v6h0V70h0"/><path d="M154,70v6h0V70h0"/><path d="M153,70v6h0V70h0"/><path d="M153,70v6h0V70h0"/><path d="M152,70v6h0V70h0"/><path d="M152,70v6h0V70h0"/><path d="M152,70v6h0V70h0"/><path d="M151,70v6h0V70h0"/><path d="M151,70v6h-1V70h1"/></g></g></g><path d="M156,67c1,1,1,2,0,3h-5c-1-1-1-2,0-3Z"/></g></g><g id="_Group_" data-name="&lt;Group&gt;"><g style="isolation:isolate"><path d="M161,63c4,2,4,6,0,9s-11,2-15,0-4-6,0-9S157,61,161,63Z" fill="#78aa36"/><g style="isolation:isolate"><g clip-path="url(#clip-path-17)"><g style="isolation:isolate"><path d="M161,63l-8-11L143,65l2-2c4-2,11-2,15,0" fill="#4d6d23"/></g></g></g><g style="isolation:isolate"><g clip-path="url(#clip-path-18)"><g style="isolation:isolate"><path d="M143,65l10-13-9,19c-2-2-2-4-1-6" fill="#4d6d23"/><path d="M144,71l9-19-7,20h-2" fill="#547726"/><path d="M146,72l7-20-6,21h-2" fill="#5b8129"/><path d="M147,73l6-21-4,21h-2" fill="#628b2c"/><path d="M149,73l4-21-3,22h-2" fill="#69952f"/><path d="M150,74l3-22V74h-2" fill="#709e32"/><path d="M152,74v0h-2" fill="#77a836"/><path d="M154,74V52l3,22h-2" fill="#7eb239"/><path d="M156,74l-3-22,9,19h-6" fill="#85bc3c"/><path d="M162,71l-9-19,10,18h-1" fill="#7eb239"/><path d="M163,70,153,52l11,16h0" fill="#77a836"/><path d="M164,69,153,52l11,15h0" fill="#709e32"/><path d="M164,68,153,52l11,15h0" fill="#69952f"/><path d="M163,67,153,52l10,14h0" fill="#628b2c"/><path d="M163,66,153,52l10,13h0" fill="#5b8129"/></g></g></g></g></g><g clip-path="url(#clip-path-19)"><path d="M159,63a13,13,0,0,1-12,0c-3-2-3-5,0-7a13,13,0,0,1,12,0C162,58,162,61,159,63Z" opacity="0.3"/></g><g style="isolation:isolate"><path d="M158,56c3,2,3,4,0,6a12,12,0,0,1-10,0c-3-2-3-4,0-6A12,12,0,0,1,158,56Z" fill="#78aa36"/><g style="isolation:isolate"><g clip-path="url(#clip-path-20)"><g style="isolation:isolate"><path d="M158,56l-5-11-7,12,2-2a12,12,0,0,1,10,0" fill="#4d6d23"/></g></g></g><g style="isolation:isolate"><g clip-path="url(#clip-path-21)"><g style="isolation:isolate"><path d="M146,57l7-12-6,16c-2-1-2-3-1-4" fill="#4d6d23"/><path d="M147,61l6-16-5,17h-1" fill="#547726"/><path d="M148,62l5-17-3,17h-1" fill="#5b8129"/><path d="M149,62l3-17-2,18h-1" fill="#628b2c"/><path d="M151,63l2-18V63h-1" fill="#69952f"/><path d="M152,63v0h-1" fill="#709e32"/><path d="M153,63V45l2,18h-1" fill="#77a836"/><path d="M154,63l-2-18,4,17h-2" fill="#7eb239"/><path d="M157,62l-4-17,5,17h-1" fill="#85bc3c"/><path d="M158,62l-5-17,7,15h-2" fill="#7eb239"/><path d="M160,60l-7-15,7,15h-1" fill="#77a836"/><path d="M160,60l-7-15,7,14h0" fill="#709e32"/><path d="M160,59l-7-14,7,13a3,3,0,0,1,0,1" fill="#69952f"/><path d="M160,58l-7-13,7,12h0" fill="#628b2c"/><path d="M160,58l-7-12,7,12h0" fill="#5b8129"/></g></g></g><g style="isolation:isolate"><g clip-path="url(#clip-path-22)"><g style="isolation:isolate"><path d="M160,57l-7-12,5,11,2,2" fill="#4d6d23"/></g></g></g></g><path d="M175,77c3-2,3-4,0-6a11,11,0,0,0-10,0c-3,2-3,4,0,6A11,11,0,0,0,175,77Z" fill="#56772c" opacity="0.86"/><g style="isolation:isolate"><g style="isolation:isolate"><g clip-path="url(#clip-path-23)"><g style="isolation:isolate"><path d="M172,64v8h0V64h0" fill="#735a3f"/><path d="M172,64v8h0V65h0" fill="#775e41"/><path d="M172,65v8h0V65h0" fill="#7b6144"/><path d="M172,65v8h0V65h0" fill="#7f6446"/><path d="M172,65v8h0V65h0" fill="#836748"/><path d="M172,65v8h0V65h0" fill="#876a4a"/><path d="M172,65v8h0V65h0" fill="#8b6d4c"/><path d="M171,65v8h-1V66h1" fill="#8f704e"/><path d="M171,66v8h0V66h0" fill="#8b6d4c"/><path d="M170,66v8h0V66h0" fill="#876a4a"/><path d="M170,66v8h0V66h0" fill="#836748"/><path d="M170,66v8h0V66h0" fill="#7f6446"/><path d="M169,66v8h0V66h0" fill="#7b6144"/><path d="M169,66v8h0V66h0" fill="#775e41"/><path d="M169,66v8h0V66h0" fill="#735a3f"/><path d="M169,66v8h0V66h0" fill="#6f573d"/><path d="M168,66v8h0V66h0" fill="#6b543b"/><path d="M168,66v8h-1V64h1" fill="#675139"/></g></g></g><path d="M171,63a1,1,0,0,1,0,2h-4a1,1,0,0,1,0-2Z" fill="#ab865e"/></g><g opacity="0.3"><g style="isolation:isolate"><g style="isolation:isolate"><g clip-path="url(#clip-path-24)"><g style="isolation:isolate"><path d="M172,66v4h0V66h0"/><path d="M172,66v4h0V66h0"/><path d="M172,66v4h0V66h0"/><path d="M172,66v4h0V66h0"/><path d="M172,66v4h0V66h0"/><path d="M172,66v4h0V67h0"/><path d="M172,67v4h0V67h0"/><path d="M171,67v4h-1V67h1"/><path d="M171,67v4h0V67h0"/><path d="M170,67v4h0V67h0"/><path d="M170,67v4h0V67h0"/><path d="M170,67v4h0V67h0"/><path d="M169,67v4h0V67h0"/><path d="M169,67v4h0V67h0"/><path d="M169,67v4h0V67h0"/><path d="M169,67v4h0V67h0"/><path d="M168,67v4h0V67h0"/><path d="M168,67v4h-1V66h1"/></g></g></g><path d="M171,65a1,1,0,0,1,0,2h-4a1,1,0,0,1,0-2Z"/></g></g><g id="_Group_2" data-name="&lt;Group&gt;"><g style="isolation:isolate"><path d="M175,63c3,2,3,4,0,6a11,11,0,0,1-10,0c-3-2-3-4,0-6A11,11,0,0,1,175,63Z" fill="#78aa36"/><g style="isolation:isolate"><g clip-path="url(#clip-path-25)"><g style="isolation:isolate"><path d="M176,64l-7-9,5,8h1" fill="#4d6d23"/></g></g></g><g style="isolation:isolate"><g clip-path="url(#clip-path-26)"><g style="isolation:isolate"><path d="M175,63l-5-8-7,9h2a11,11,0,0,1,10,0" fill="#4d6d23"/></g></g></g><g style="isolation:isolate"><g clip-path="url(#clip-path-27)"><g style="isolation:isolate"><path d="M163,64l7-9-6,13a3,3,0,0,1-1-4" fill="#4d6d23"/><path d="M163,68l6-13-5,14h-1" fill="#547726"/><path d="M164,69l5-14-4,14h-1" fill="#5b8129"/><path d="M165,69l4-14-3,14h-1" fill="#628b2c"/><path d="M166,70l3-14-2,15h-1" fill="#69952f"/><path d="M168,70l2-15V70h-1" fill="#709e32"/><path d="M169,70v0h-1" fill="#77a836"/><path d="M170,70V55l2,15h-2" fill="#7eb239"/><path d="M172,70l-2-15,6,13h-4" fill="#85bc3c"/><path d="M176,68l-6-13,7,12h-1" fill="#7eb239"/><path d="M176,67l-7-12,7,11h0" fill="#77a836"/><path d="M177,66l-7-11,7,10h0" fill="#709e32"/><path d="M177,66l-7-10,7,10h0" fill="#69952f"/><path d="M177,65l-7-10,7,9h0" fill="#628b2c"/><path d="M176,64l-7-9,7,9h0" fill="#5b8129"/></g></g></g></g></g><g clip-path="url(#clip-path-28)"><path d="M173,63a9,9,0,0,1-8,0c-2-1-2-3,0-5a9,9,0,0,1,8,0C176,59,176,61,173,63Z" opacity="0.3"/></g><g style="isolation:isolate"><path d="M173,57c2,1,2,3,0,4a8,8,0,0,1-7,0c-2-1-2-3,0-4A8,8,0,0,1,173,57Z" fill="#78aa36"/><g style="isolation:isolate"><g clip-path="url(#clip-path-29)"><g style="isolation:isolate"><path d="M173,57l-4-7-5,8h1a8,8,0,0,1,7,0" fill="#4d6d23"/></g></g></g><g style="isolation:isolate"><g clip-path="url(#clip-path-30)"><g style="isolation:isolate"><path d="M165,59l5-8-4,11a2,2,0,0,1-1-3" fill="#4d6d23"/><path d="M166,61l4-11-3,11h-1" fill="#547726"/><path d="M166,62l3-11-2,12h-1" fill="#5b8129"/><path d="M167,62l2-12-2,12h-1" fill="#628b2c"/><path d="M168,62l2-12V62h-1" fill="#69952f"/><path d="M169,62v0h-1" fill="#709e32"/><path d="M169,62v0h-1" fill="#77a836"/><path d="M170,62V50l3,12h-2" fill="#7eb239"/><path d="M172,62l-3-12,4,11h-1" fill="#85bc3c"/><path d="M173,62l-4-11,5,10h-1" fill="#7eb239"/><path d="M174,61l-5-10,5,10h0" fill="#77a836"/><path d="M174,60l-5-10,5,9h0" fill="#709e32"/><path d="M174,60l-5-9,5,9a2,2,0,0,1,0,0" fill="#69952f"/><path d="M174,59l-5-9,5,8h0" fill="#628b2c"/><path d="M174,59l-5-8,5,8h0" fill="#5b8129"/></g></g></g><g style="isolation:isolate"><g clip-path="url(#clip-path-31)"><g style="isolation:isolate"><path d="M174,59l-5-8,4,7h1" fill="#4d6d23"/></g></g></g></g></g></g></g></svg>