<svg xmlns="http://www.w3.org/2000/svg" xmlns:xlink="http://www.w3.org/1999/xlink" width="200" height="200" viewBox="0 0 200 200"><defs><clipPath id="clip-path"><path id="_Clipping_Path_" data-name="&lt;Clipping Path&gt;" d="M420.4,90.7,341,136.4a12.3,12.3,0,0,1-11.1,0L250.4,89.9a4.6,4.6,0,0,1-2.1-2.2L263.8,146a65.1,65.1,0,0,0,49.9,43.5,123.8,123.8,0,0,0,41.4.5,65.4,65.4,0,0,0,51.9-44l15.7-57.6A4.4,4.4,0,0,1,420.4,90.7Z" fill="#a07a5c"/></clipPath><clipPath id="clip-path-3"><path id="_Clipping_Path_3" data-name="&lt;Clipping Path&gt;" d="M185,81.6l-79.2,46a12.3,12.3,0,0,1-11.1,0l-79.7-46A4.6,4.6,0,0,1,13,79.4l15.7,58.2a65.1,65.1,0,0,0,50,43.3,123.8,123.8,0,0,0,41.4.3A65.4,65.4,0,0,0,171.7,137l15.5-57.7A4.4,4.4,0,0,1,185,81.6Z" fill="#a07a5c"/></clipPath><clipPath id="clip-path-4"><path d="M12.6,79V75.7a3.9,3.9,0,0,0,2.3,3.2v3.3A3.9,3.9,0,0,1,12.6,79Z" fill="none"/></clipPath><clipPath id="clip-path-5"><path d="M187,75.8v3.3a3.9,3.9,0,0,1-2.3,3.2V79A3.9,3.9,0,0,0,187,75.8Z" fill="none"/></clipPath><clipPath id="clip-path-6"><path d="M105.6,125v3.3a12.2,12.2,0,0,1-11.1,0V125A12.2,12.2,0,0,0,105.6,125Z" fill="none"/></clipPath><clipPath id="clip-path-7"><path d="M129,56.5l5.3,3.1a3.4,3.4,0,0,0-3.4.3l-5.3-3.1A3.4,3.4,0,0,1,129,56.5Z" fill="none"/></clipPath><clipPath id="clip-path-8"><path d="M127.5,71.2l-5.3-3.1a3.3,3.3,0,0,1-1.4-3.1,10.5,10.5,0,0,1,4.7-8.2l5.3,3.1a10.5,10.5,0,0,0-4.7,8.2A3.3,3.3,0,0,0,127.5,71.2Z" fill="none"/></clipPath><clipPath id="clip-path-9"><path d="M84.1,82.3l5.3,3.1a3.4,3.4,0,0,0-3.4.3l-5.3-3.1A3.4,3.4,0,0,1,84.1,82.3Z" fill="none"/></clipPath><clipPath id="clip-path-10"><path d="M82.6,96.9l-5.3-3.1a3.3,3.3,0,0,1-1.4-3.1,10.5,10.5,0,0,1,4.7-8.2l5.3,3.1a10.5,10.5,0,0,0-4.7,8.2A3.3,3.3,0,0,0,82.6,96.9Z" fill="none"/></clipPath><clipPath id="clip-path-11"><path id="_Clipping_Path_4" data-name="&lt;Clipping Path&gt;" d="M67.5,84.3,54.4,76.5a1.7,1.7,0,0,1-.8-1.9L56,65.7a1.7,1.7,0,0,1,2.5-1l13.1,7.7a1.7,1.7,0,0,1,.8,1.9L70,83.3A1.7,1.7,0,0,1,67.5,84.3Z" fill="#89dbef"/></clipPath><clipPath id="clip-path-12"><path d="M156.7,65.7v12a1.8,1.8,0,0,1-1.1,1.5,5.7,5.7,0,0,1-5.2,0,1.9,1.9,0,0,1-1.1-1.5v-12a1.9,1.9,0,0,0,1.1,1.5,5.7,5.7,0,0,0,5.2,0A1.8,1.8,0,0,0,156.7,65.7Z" fill="none"/></clipPath><clipPath id="clip-path-13"><path d="M156.7,68v6a1.8,1.8,0,0,1-1.1,1.5,5.7,5.7,0,0,1-5.2,0,1.9,1.9,0,0,1-1.1-1.5V68a1.9,1.9,0,0,0,1.1,1.5,5.7,5.7,0,0,0,5.2,0A1.8,1.8,0,0,0,156.7,68Z" fill="none"/></clipPath><clipPath id="clip-path-14"><path d="M152.9,52.1l7.7,11.4c-4.1-2.5-10.8-2.5-15.1-.2a7.5,7.5,0,0,0-2.4,2Z" fill="none"/></clipPath><clipPath id="clip-path-15"><path d="M143.2,65.4l9.8-13.2,9.8,13.2c1.7,2.3.9,5.1-2.4,6.9s-11,2.3-15.1-.2S141.5,67.6,143.2,65.4Z" fill="none"/></clipPath><clipPath id="clip-path-16"><polygon points="153 51.8 144.9 62.9 147.1 68.1 158.9 68.1 161.9 64.4 153 51.8" fill="none"/></clipPath><clipPath id="clip-path-17"><path d="M152.9,45l5.4,10.6a11.5,11.5,0,0,0-10.4-.1,4.8,4.8,0,0,0-1.9,1.7Z" fill="none"/></clipPath><clipPath id="clip-path-18"><path d="M146,57.3l7-12.2,7,12.2c.9,1.5.2,3.3-1.9,4.5a11.5,11.5,0,0,1-10.4-.1C145.7,60.4,145.1,58.7,146,57.3Z" fill="none"/></clipPath><clipPath id="clip-path-19"><path d="M160,57.2a4.7,4.7,0,0,0-1.7-1.6L152.9,45Z" fill="none"/></clipPath><clipPath id="clip-path-20"><path d="M172,64.3v8.2a1.2,1.2,0,0,1-.7,1,3.9,3.9,0,0,1-3.5,0,1.3,1.3,0,0,1-.7-1V64.3a1.3,1.3,0,0,0,.7,1,3.9,3.9,0,0,0,3.5,0A1.2,1.2,0,0,0,172,64.3Z" fill="none"/></clipPath><clipPath id="clip-path-21"><path d="M172,65.9V70a1.2,1.2,0,0,1-.7,1,3.9,3.9,0,0,1-3.5,0,1.3,1.3,0,0,1-.7-1V65.9a1.3,1.3,0,0,0,.7,1,3.9,3.9,0,0,0,3.5,0A1.2,1.2,0,0,0,172,65.9Z" fill="none"/></clipPath><clipPath id="clip-path-22"><path d="M176.1,64a4.9,4.9,0,0,0-1.4-1.2l-5.2-7.7Z" fill="none"/></clipPath><clipPath id="clip-path-23"><path d="M169.4,55.1l5.2,7.7a11.3,11.3,0,0,0-10.2-.1,5.1,5.1,0,0,0-1.6,1.4Z" fill="none"/></clipPath><clipPath id="clip-path-24"><path d="M162.8,64.1l6.6-9,6.7,8.9c1.2,1.6.6,3.4-1.6,4.7a11.3,11.3,0,0,1-10.2-.1C162.2,67.4,161.7,65.6,162.8,64.1Z" fill="none"/></clipPath><clipPath id="clip-path-25"><polygon points="169.5 54.9 164 62.4 165.5 65.9 173.5 65.9 175.5 63.4 169.5 54.9" fill="none"/></clipPath><clipPath id="clip-path-26"><path d="M169.4,50.3l3.6,7.2a7.8,7.8,0,0,0-7.1-.1,3.3,3.3,0,0,0-1.3,1.2Z" fill="none"/></clipPath><clipPath id="clip-path-27"><path d="M164.7,58.6l4.7-8.3,4.8,8.2c.6,1,.2,2.2-1.3,3a7.8,7.8,0,0,1-7.1-.1C164.5,60.7,164.2,59.6,164.7,58.6Z" fill="none"/></clipPath><clipPath id="clip-path-28"><path d="M174.2,58.6a3.2,3.2,0,0,0-1.1-1.1l-3.6-7.2Z" fill="none"/></clipPath></defs><title>truck</title><g style="isolation:isolate"><g id="Boat-2" data-name="Boat"><g id="water_and_cork" data-name="water and cork"><path id="_Clipping_Path_5" data-name="&lt;Clipping Path&gt;" d="M420.4,90.7,341,136.4a12.3,12.3,0,0,1-11.1,0L250.4,89.9a4.6,4.6,0,0,1-2.1-2.2L263.8,146a65.1,65.1,0,0,0,49.9,43.5,123.8,123.8,0,0,0,41.4.5,65.4,65.4,0,0,0,51.9-44l15.7-57.6A4.4,4.4,0,0,1,420.4,90.7Z" fill="#a07a5c"/><g clip-path="url(#clip-path)"><path d="M471.9,84.4c4.9,2.8,4.9,7.4.1,10.3L345,168.4c-4.9,2.8-12.9,2.8-17.7,0L199.6,94.7c-4.9-2.8-4.9-7.5-.1-10.3L326.4,10.7c4.9-2.8,12.9-2.8,17.7,0Z" fill="#36949e"/></g><path id="_Clipping_Path_6" data-name="&lt;Clipping Path&gt;" d="M420.4,90.7,341,136.4a12.3,12.3,0,0,1-11.1,0L250.4,89.9a4.6,4.6,0,0,1-2.1-2.2L263.8,146a65.1,65.1,0,0,0,49.9,43.5,123.8,123.8,0,0,0,41.4.5,65.4,65.4,0,0,0,51.9-44l15.7-57.6A4.4,4.4,0,0,1,420.4,90.7Z" fill="#a07a5c"/><g clip-path="url(#clip-path)"><path d="M471.9,84.4c4.9,2.8,4.9,7.4.1,10.3L345,168.4c-4.9,2.8-12.9,2.8-17.7,0L199.6,94.7c-4.9-2.8-4.9-7.5-.1-10.3L326.4,10.7c4.9-2.8,12.9-2.8,17.7,0Z" fill="#36949e"/></g></g></g><g id="Truck"><g id="cork_bottom" data-name="cork bottom"><path d="M12.8,78.6h0Z" fill="#b5885e"/><path id="_Clipping_Path_7" data-name="&lt;Clipping Path&gt;" d="M185,81.6l-79.2,46a12.3,12.3,0,0,1-11.1,0l-79.7-46A4.6,4.6,0,0,1,13,79.4l15.7,58.2a65.1,65.1,0,0,0,50,43.3,123.8,123.8,0,0,0,41.4.3A65.4,65.4,0,0,0,171.7,137l15.5-57.7A4.4,4.4,0,0,1,185,81.6Z" fill="#a07a5c"/><g clip-path="url(#clip-path-3)"><path d="M140.1,161.3C115.4,174.7,99,165,99,155V94.6L199.2,41.2l-14.1,50C185.1,113.6,164.9,147.8,140.1,161.3Z" fill="#ceac91" opacity="0.2"/><path d="M190.1,46.4l-9.4,45.8c0,20.9-16.6,49.4-38.3,61.2-6.8,3.7-20.3,8.8-24.9,8.8-8.9-.1-15.6-4.9-15.6-11.5V94.3Z" fill="#ceac91" opacity="0.3"/><path d="M181,51.6l-4.7,41.6c0,19.4-13,42.1-31.7,52.4-3.4,1.9-21.8,11.3-24,11.1-7.9,2.4-15.6-2.9-15.6-10.3V94.1Z" fill="#ceac91" opacity="0.4"/><path d="M146.8,137.7l-23.2,13.4a10.5,10.5,0,0,1-15.7-9.1V93.8l64-37V94.2A50.2,50.2,0,0,1,146.8,137.7Z" fill="#ceac91" opacity="0.5"/></g><path d="M187.2,79.2h0Z" fill="#b5885e"/><polygon points="26.5 88.3 27.4 88.9 28.4 89.4 28 97.6 27.7 105.9 27.1 97.1 26.5 88.3" fill="#584434"/><polygon points="133.1 109.9 133.8 109.6 134.5 109.4 134.3 120.7 134 132 133.6 120.9 133.1 109.9" fill="#584434" opacity="0.3"/><polygon points="123.8 116.8 124.2 116.7 124.7 116.5 124.5 123.3 124.3 130 124.1 123.4 123.8 116.8" fill="#584434" opacity="0.5"/><polygon points="126.3 115 126.6 114.9 127 114.7 126.9 120.5 126.7 126.4 126.5 120.7 126.3 115" fill="#584434"/><polygon points="89.6 122.9 91.4 123.9 93.2 124.9 92.5 140 91.8 155.1 90.7 139 89.6 122.9" fill="#765b46" opacity="0.2"/><path d="M49.7,160.8c.4,1.3-.3,2-1.6,1.7a4.6,4.6,0,0,1-3-2.8c-.4-1.3.3-2,1.6-1.7A4.6,4.6,0,0,1,49.7,160.8Z" fill="#8b6a52" opacity="0.67"/><path d="M87.4,176.6a4.6,4.6,0,0,1-4.1,0,1.3,1.3,0,0,1,0-2.4,4.6,4.6,0,0,1,4.1,0A1.3,1.3,0,0,1,87.4,176.6Z" fill="#8b6a52"/><path d="M125.9,172.5c1.1,0,1.7.6,1.3,1.3a3,3,0,0,1-2.6,1.2c-1.1,0-1.7-.6-1.3-1.3A3,3,0,0,1,125.9,172.5Z" fill="#939393" opacity="0.5" style="mix-blend-mode:multiply"/><path d="M153.6,137a4.9,4.9,0,0,1-1.3,4.2c-1.1,1.1-2.3,1-2.6-.2a4.9,4.9,0,0,1,1.3-4.2C152.1,135.7,153.3,135.8,153.6,137Z" fill="#8b6a52" opacity="0.4"/><path d="M175.7,96.4a4.9,4.9,0,0,1-1.3,4.2c-1.1,1.1-2.3,1-2.6-.2a4.9,4.9,0,0,1,1.3-4.2C174.2,95.1,175.3,95.2,175.7,96.4Z" fill="#584434" opacity="0.3"/><path d="M164.3,105.1a2.4,2.4,0,0,1-.6,2.1c-.5.6-1.1.5-1.3-.1a2.4,2.4,0,0,1,.6-2.1C163.5,104.4,164.1,104.4,164.3,105.1Z" fill="#584434" opacity="0.5"/><path d="M119.8,137a4.9,4.9,0,0,1-1.3,4.2c-1.1,1.1-2.3,1-2.6-.2a4.9,4.9,0,0,1,1.3-4.2C118.2,135.7,119.4,135.8,119.8,137Z" fill="#765b46" opacity="0.78"/><path d="M57.6,146.3c0,3.6-2.5,5-5.6,3.2a12.4,12.4,0,0,1-5.6-9.7c0-3.6,2.5-5,5.6-3.2A12.4,12.4,0,0,1,57.6,146.3Z" fill="#8b6a52"/><path d="M89,126.2c0,3.6-2.5,5-5.6,3.2a12.4,12.4,0,0,1-5.6-9.7c0-3.6,2.5-5,5.6-3.2A12.4,12.4,0,0,1,89,126.2Z" fill="#765b46" opacity="0.3"/><path d="M40.1,123.4c0,2.3-1.6,3.2-3.6,2.1a7.9,7.9,0,0,1-3.6-6.2c0-2.3,1.6-3.2,3.6-2.1A7.9,7.9,0,0,1,40.1,123.4Z" fill="#765b46"/><path d="M156.5,151.8c0,4.2-2.5,9-5.7,10.8s-5.7-.1-5.7-4.3,2.5-9,5.7-10.8S156.5,147.6,156.5,151.8Z" fill="#8b6a52" opacity="0.81"/><path d="M59.4,145.8c0,1.3-.9,1.8-2.1,1.2a4.6,4.6,0,0,1-2.1-3.6c0-1.3.9-1.8,2.1-1.2A4.6,4.6,0,0,1,59.4,145.8Z" fill="#765b46"/></g><g id="grass_and_road" data-name="grass and road"><g style="isolation:isolate"><polygon points="89 29.4 89 32.7 79.8 38 79.9 34.8 89 29.4" fill="#6c9931"/><polygon points="111.7 42.5 111.7 45.8 89 32.7 89 29.4 111.7 42.5" fill="#4b6a22"/><polygon points="122.3 36.4 122.3 39.7 111.7 45.8 111.7 42.5 122.3 36.4" fill="#6c9931"/><polygon points="69.5 40.8 69.5 44 60.3 49.4 60.4 46.1 69.5 40.8" fill="#6c9931"/><polygon points="111.7 42.5 102.6 47.9 79.9 34.8 89 29.4 111.7 42.5" fill="#6f9730"/><polygon points="102.6 47.9 102.5 51.1 79.8 38 79.9 34.8 102.6 47.9" fill="#455e1e"/><polygon points="111.7 42.5 111.7 45.8 102.5 51.1 102.6 47.9 111.7 42.5" fill="#64872b"/><polygon points="102.6 47.9 102.5 51.1 92.2 57.1 92.2 53.9 102.6 47.9" fill="#6c9931"/><polygon points="92.2 53.9 92.2 57.1 69.5 44 69.5 40.8 92.2 53.9" fill="#4b6a22"/><polygon points="50 52.1 50 55.4 40.8 60.7 40.9 57.4 50 52.1" fill="#6c9931"/><polygon points="83.1 59.2 83 62.5 60.3 49.4 60.4 46.1 83.1 59.2" fill="#455e1e"/><polygon points="92.2 53.9 83.1 59.2 60.4 46.1 69.5 40.8 92.2 53.9" fill="#6f9730"/><polygon points="92.2 53.9 92.2 57.1 83 62.5 83.1 59.2 92.2 53.9" fill="#64872b"/><polygon points="72.7 65.2 72.7 68.5 50 55.4 50 52.1 72.7 65.2" fill="#4b6a22"/><polygon points="83.1 59.2 83 62.5 72.7 68.5 72.7 65.2 83.1 59.2" fill="#6c9931"/><polygon points="30.5 63.4 30.5 66.7 21.3 72 21.4 68.8 30.5 63.4" fill="#6c9931"/><polygon points="63.6 70.5 63.5 73.8 40.8 60.7 40.9 57.4 63.6 70.5" fill="#455e1e"/><g style="isolation:isolate"><g clip-path="url(#clip-path-4)"><g style="isolation:isolate"><path d="M14.9,78.9v3.3A3.9,3.9,0,0,1,12.6,79V75.7a3.9,3.9,0,0,0,2.3,3.2" fill="#4d6d23"/></g></g></g><polygon points="44.1 81.9 44 85.1 21.3 72 21.4 68.8 44.1 81.9" fill="#455e1e"/><path d="M122.3,36.4l-10.6,6.1L89,29.4l-9.2,5.3,22.7,13.1-10.3,6L69.5,40.8l-9.2,5.3L83.1,59.2l-10.3,6L50,52.1l-9.2,5.3L63.6,70.5l-10.3,6L30.5,63.4l-9.2,5.3L44.1,81.9l-12,7L14.9,78.9c-3.1-1.8-3.1-4.7,0-6.4l79.2-46a12.3,12.3,0,0,1,11.1,0Z" fill="#79ab36"/><polygon points="72.7 65.2 63.6 70.5 40.9 57.4 50 52.1 72.7 65.2" fill="#6f9730"/><polygon points="72.7 65.2 72.7 68.5 63.5 73.8 63.6 70.5 72.7 65.2" fill="#64872b"/><polygon points="63.6 70.5 63.5 73.8 53.2 79.8 53.2 76.5 63.6 70.5" fill="#6c9931"/><polygon points="53.2 76.5 53.2 79.8 30.5 66.7 30.5 63.4 53.2 76.5" fill="#4b6a22"/><polygon points="53.2 76.5 53.2 79.8 44 85.1 44.1 81.9 53.2 76.5" fill="#64872b"/><polygon points="53.2 76.5 44.1 81.9 21.4 68.8 30.5 63.4 53.2 76.5" fill="#6f9730"/><polygon points="32.1 88.8 32.1 92.1 14.9 82.2 14.9 78.9 32.1 88.8" fill="#4b6a22"/><polygon points="44.1 81.9 44 85.1 32.1 92.1 32.1 88.8 44.1 81.9" fill="#6c9931"/></g><g style="isolation:isolate"><polygon points="127.2 40.9 127.2 42.5 37 95 37 93.3 127.2 40.9" fill="#585858"/><polygon points="128.6 41.7 38.4 94.2 37 93.3 127.2 40.9 128.6 41.7" fill="#dcdcdc"/><polygon points="38.4 94.2 38.4 95.8 37 95 37 93.3 38.4 94.2" fill="#898989"/><polygon points="128.6 41.7 128.6 43.4 38.4 95.8 38.4 94.2 128.6 41.7" fill="#c5c5c5"/><polygon points="161.3 60.6 161.2 62.2 71 114.6 71 113 161.3 60.6" fill="#585858"/><polygon points="72.5 113.8 72.4 115.5 71 114.6 71 113 72.5 113.8" fill="#898989"/><polygon points="162.7 61.4 162.7 63 72.4 115.5 72.5 113.8 162.7 61.4" fill="#c5c5c5"/><polygon points="77.4 116.7 77.4 118.3 32 92.1 32 90.5 77.4 116.7" fill="#3d3d3d"/><polygon points="167.6 64.3 77.4 116.7 32 90.5 122.2 38 127.2 40.9 37 93.3 38.4 94.2 128.6 41.7 161.3 60.6 71 113 72.5 113.8 162.7 61.4 167.6 64.3" fill="#626262"/><polygon points="162.7 61.4 72.5 113.8 71 113 161.3 60.6 162.7 61.4" fill="#dcdcdc"/><polygon points="167.6 64.3 167.6 65.9 77.4 118.3 77.4 116.7 167.6 64.3" fill="#585858"/></g><g style="isolation:isolate"><polygon points="157 68.8 157 72.1 147.8 77.4 147.8 74.2 157 68.8" fill="#6c9931"/><g style="isolation:isolate"><g clip-path="url(#clip-path-5)"><g style="isolation:isolate"><path d="M187,75.8v3.3a2.7,2.7,0,0,1-.1.5V76.4a2.7,2.7,0,0,0,.1-.5" fill="#547726"/><path d="M187,76.4v3.3a3.1,3.1,0,0,1-.5,1.1V77.5a3.1,3.1,0,0,0,.5-1.1" fill="#5b8129"/><path d="M186.5,77.5v3.3a5.1,5.1,0,0,1-1.6,1.5V79a5.1,5.1,0,0,0,1.6-1.5" fill="#628b2c"/><path d="M184.9,79v3.3h-.1V79h.1" fill="#69952f"/></g></g></g><polygon points="184.8 79 184.8 82.3 179.7 85.2 179.7 82 184.8 79" fill="#6c9931"/><polygon points="179.7 82 179.7 85.2 157 72.1 157 68.8 179.7 82" fill="#4b6a22"/><polygon points="137.5 80.2 137.5 83.4 128.3 88.8 128.3 85.5 137.5 80.2" fill="#6c9931"/><polygon points="179.7 82 170.6 87.3 147.8 74.2 157 68.8 179.7 82" fill="#6f9730"/><polygon points="170.6 87.3 170.5 90.5 147.8 77.4 147.8 74.2 170.6 87.3" fill="#455e1e"/><polygon points="179.7 82 179.7 85.2 170.5 90.5 170.6 87.3 179.7 82" fill="#64872b"/><polygon points="170.6 87.3 170.5 90.5 160.2 96.6 160.2 93.3 170.6 87.3" fill="#6c9931"/><polygon points="160.2 93.3 160.2 96.6 137.5 83.4 137.5 80.2 160.2 93.3" fill="#4b6a22"/><polygon points="118 91.5 118 94.8 108.8 100.1 108.9 96.8 118 91.5" fill="#6c9931"/><polygon points="160.2 93.3 160.2 96.6 151 101.9 151.1 98.6 160.2 93.3" fill="#64872b"/><polygon points="151.1 98.6 151 101.9 128.3 88.8 128.3 85.5 151.1 98.6" fill="#455e1e"/><polygon points="160.2 93.3 151.1 98.6 128.3 85.5 137.5 80.2 160.2 93.3" fill="#6f9730"/><polygon points="140.7 104.6 140.7 107.9 118 94.8 118 91.5 140.7 104.6" fill="#4b6a22"/><polygon points="151.1 98.6 151 101.9 140.7 107.9 140.7 104.6 151.1 98.6" fill="#6c9931"/><polygon points="98.5 102.8 98.5 106.1 89.3 111.4 89.4 108.2 98.5 102.8" fill="#6c9931"/><polygon points="131.6 109.9 131.5 113.2 108.8 100.1 108.9 96.8 131.6 109.9" fill="#455e1e"/><polygon points="140.7 104.6 131.6 109.9 108.9 96.8 118 91.5 140.7 104.6" fill="#6f9730"/><polygon points="140.7 104.6 140.7 107.9 131.5 113.2 131.6 109.9 140.7 104.6" fill="#64872b"/><polygon points="121.2 116 121.2 119.2 98.5 106.1 98.5 102.8 121.2 116" fill="#4b6a22"/><polygon points="131.6 109.9 131.5 113.2 121.2 119.2 121.2 116 131.6 109.9" fill="#6c9931"/><polygon points="112.1 121.3 112 124.5 89.3 111.4 89.4 108.2 112.1 121.3" fill="#455e1e"/><polygon points="121.2 116 112.1 121.3 89.4 108.2 98.5 102.8 121.2 116" fill="#6f9730"/><polygon points="121.2 116 121.2 119.2 112 124.5 112.1 121.3 121.2 116" fill="#64872b"/><polygon points="112.1 121.3 112 124.5 105.6 128.3 105.6 125 112.1 121.3" fill="#6c9931"/><polygon points="94.5 125 94.5 128.3 77.4 118.4 77.4 115.1 94.5 125" fill="#4b6a22"/><g style="isolation:isolate"><g clip-path="url(#clip-path-6)"><g style="isolation:isolate"><path d="M105.6,125v3.3l-1.7.7v-3.3l1.7-.7" fill="#69952f"/><path d="M103.9,125.8V129a12.2,12.2,0,0,1-2.9.5v-3.3a12.2,12.2,0,0,0,2.9-.5" fill="#628b2c"/><path d="M101,126.3v3.3h-2v-3.3h2" fill="#5b8129"/><path d="M98.9,126.3v3.3l-1.9-.3V126l1.9.3" fill="#547726"/><path d="M97,126v3.3a9.5,9.5,0,0,1-2.5-1V125a9.5,9.5,0,0,0,2.5,1" fill="#4d6d23"/></g></g></g><path d="M184.7,72.6c3.1,1.8,3.1,4.6,0,6.4l-5,2.9L157,68.8l-9.2,5.3,22.7,13.1-10.3,6L137.5,80.2l-9.2,5.3,22.7,13.1-10.3,6L118,91.5l-9.2,5.3,22.7,13.1-10.3,6L98.5,102.8l-9.2,5.3,22.7,13.1-6.5,3.8a12.2,12.2,0,0,1-11.1,0l-17.1-9.9,90.2-52.4Z" fill="#79ab36"/></g></g><g id="truck-2" data-name="truck"><path d="M73.2,106.4,53,94.7c-.8-.5-.7-1.3.2-1.9l68.2-39.5a3.6,3.6,0,0,1,3.2-.1L144.9,65c.8.5.7,1.3-.2,1.9L76.5,106.3A3.6,3.6,0,0,1,73.2,106.4Z" fill="#454545"/><g style="isolation:isolate"><g style="isolation:isolate"><g clip-path="url(#clip-path-7)"><g style="isolation:isolate"><path d="M130.9,59.9l-5.3-3.1,1.4-.6,5.3,3.1-1.4.6" fill="#313131"/><path d="M132.3,59.3,127,56.3h.9l5.3,3.1h-.9" fill="#2e2e2e"/><path d="M133.2,59.3l-5.3-3.1h.7l5.3,3.1h-.7" fill="#2b2b2b"/><path d="M133.9,59.4l-5.3-3.1.4.2,5.3,3.1-.4-.2" fill="#282828"/></g></g></g><g style="isolation:isolate"><g clip-path="url(#clip-path-8)"><g style="isolation:isolate"><path d="M127.5,71.2l-5.3-3.1a3.3,3.3,0,0,1-1.4-3.1,7.8,7.8,0,0,1,.2-1.9l5.3,3.1a7.8,7.8,0,0,0-.2,1.9,3.3,3.3,0,0,0,1.4,3.1" fill="#222"/><path d="M126.3,66.3l-5.3-3.1.4-1.2,5.3,3.1-.4,1.2" fill="#252525"/><path d="M126.7,65.1,121.5,62l.5-1,5.3,3.1-.5,1" fill="#282828"/><path d="M127.2,64,121.9,61l.6-1,5.3,3.1-.6,1" fill="#2b2b2b"/><path d="M127.8,63,122.5,60l.8-1.1,5.3,3.1-.8,1.1" fill="#2e2e2e"/><path d="M128.5,61.9l-5.3-3.1a8.7,8.7,0,0,1,2.3-2l5.3,3.1a8.7,8.7,0,0,0-2.3,2" fill="#313131"/></g></g></g><path d="M130.9,59.9c2.6-1.5,4.8-.3,4.8,2.7a10.5,10.5,0,0,1-4.7,8.2c-2.6,1.5-4.8.3-4.8-2.7A10.5,10.5,0,0,1,130.9,59.9Z" fill="#2f2f2f"/></g><path d="M133.6,63.9c0-2-1.2-2.9-2.7-2.1a6.6,6.6,0,0,0-2.7,5.2c0,2,1.2,2.9,2.7,2.1A6.6,6.6,0,0,0,133.6,63.9Z" fill="#898989"/><g style="isolation:isolate"><polygon points="90.7 55.6 90.6 84.2 65.7 69.8 65.8 41.3 90.7 55.6" fill="#c2c2c2"/><polygon points="90.7 55.6 140.1 26.9 140 55.5 90.6 84.2 90.7 55.6" fill="#dbdbdb"/><polygon points="65.8 41.3 115.2 12.5 140.1 26.9 90.7 55.6 65.8 41.3" fill="#e5e5e5"/></g><g id="cork_logo" data-name="cork logo"><g style="isolation:isolate"><path d="M73.4,50.3q-3.1-1.8-4.4-1t-1.3,4.7a13.2,13.2,0,0,0,1.2,6.2,11.3,11.3,0,0,0,4.5,4.2A15.9,15.9,0,0,0,77.6,66V61.3l-3.3-1.7a2.5,2.5,0,0,1-1-1,3.6,3.6,0,0,1-.3-1.6c0-.7.1-1.1.3-1.3s.6-.1,1.1.2l3.2,2,.2-4.6-.6-.5a24.4,24.4,0,0,0-3.5-2.6" fill="#582e77"/><path d="M84.4,56.6q-3.1-1.8-4.6-1t-1.5,4.5a11.8,11.8,0,0,0,1.5,6.2,12.5,12.5,0,0,0,4.6,4.3c2.1,1.2,3.6,1.5,4.6,1s1.5-2,1.5-4.5A11.9,11.9,0,0,0,89,60.9a12.5,12.5,0,0,0-4.6-4.3" fill="#582e77"/></g><g opacity="0.6" style="isolation:isolate"><path d="M99.4,54.3a8.9,8.9,0,0,0-2.4,3V56l-5.1,3V72.3l5.1-3V62.1l.4-.5a9.2,9.2,0,0,1,2-1.9V54.3" fill="#582e77"/><polyline points="105.3 46.7 100.2 49.7 100.2 67.5 105.3 64.5 105.3 60.6 106 60.2 107.1 63.5 112.2 60.5 110.4 54.6 112.1 47.2 107 50.2 106 55 105.3 55.4 105.3 46.7" fill="#582e77"/></g><g opacity="0.4" style="isolation:isolate"><polyline points="90 37.8 84.8 40.8 100.5 49.9 105.7 46.9 90 37.8" fill="#582e77"/></g></g><g id="labels" opacity="0.17"><path d="M89.2,59.6,83,56a.9.9,0,0,1-.4-.7V55c0-.3.2-.4.4-.3l6.3,3.6a.9.9,0,0,1,.4.7v.3C89.6,59.6,89.4,59.7,89.2,59.6Z" fill="#fff"/><path d="M89.2,61.4l-3.5-2a.9.9,0,0,1-.4-.7h0c0-.3.2-.4.4-.3l3.5,2a.9.9,0,0,1,.4.7h0C89.6,61.4,89.4,61.5,89.2,61.4Z" fill="#fff"/><path d="M89.2,63.1l-3.5-2a.9.9,0,0,1-.4-.7h0c0-.3.2-.4.4-.3l3.5,2a.9.9,0,0,1,.4.7h0C89.6,63.1,89.4,63.2,89.2,63.1Z" fill="#fff"/><path d="M89.2,67.8l-3.5-2a.9.9,0,0,1-.4-.7h0c0-.3.2-.4.4-.3l3.5,2a.9.9,0,0,1,.4.7h0C89.6,67.8,89.4,67.9,89.2,67.8Z" fill="#fff"/><path d="M89.2,69.5l-3.5-2a.9.9,0,0,1-.4-.7h0c0-.3.2-.4.4-.3l3.5,2a.9.9,0,0,1,.4.7h0C89.6,69.5,89.4,69.6,89.2,69.5Z" fill="#fff"/><path d="M89.2,79.5l-3.5-2a.9.9,0,0,1-.4-.7h0c0-.3.2-.4.4-.3l3.5,2a.9.9,0,0,1,.4.7h0C89.6,79.5,89.4,79.6,89.2,79.5Z" fill="#fff"/><path d="M89.2,81.2l-3.5-2a.9.9,0,0,1-.4-.7h0c0-.3.2-.4.4-.3l3.5,2a.9.9,0,0,1,.4.7h0C89.6,81.2,89.4,81.3,89.2,81.2Z" fill="#fff"/><path d="M73.1,56.4l-4.7-2.7a1.4,1.4,0,0,1-.6-1.1V47.5c0-.4.3-.6.6-.4l4.7,2.7a1.4,1.4,0,0,1,.6,1.1v5.1C73.7,56.3,73.4,56.5,73.1,56.4Z" fill="#fff"/></g><g id="door_locks" data-name="door locks"><line x1="75.1" y1="48.7" x2="75.1" y2="73.2" fill="none" stroke="#f2f2f2" stroke-miterlimit="10" stroke-width="0.38"/><line x1="75.9" y1="49.5" x2="75.9" y2="74" fill="none" stroke="#000" stroke-miterlimit="10" stroke-width="0.38" opacity="0.1"/><line x1="75.2" y1="50.7" x2="76.2" y2="51.2" fill="none" stroke="#fff" stroke-miterlimit="10" stroke-width="0.32"/><line x1="75.2" y1="71" x2="76.2" y2="71.6" fill="none" stroke="#fff" stroke-miterlimit="10" stroke-width="0.32"/><line x1="69.8" y1="45.9" x2="69.8" y2="70.4" fill="none" stroke="#f2f2f2" stroke-miterlimit="10" stroke-width="0.38"/><line x1="70.6" y1="46.6" x2="70.6" y2="71.2" fill="none" stroke="#000" stroke-miterlimit="10" stroke-width="0.38" opacity="0.1"/><line x1="69.9" y1="47.8" x2="70.9" y2="48.4" fill="none" stroke="#fff" stroke-miterlimit="10" stroke-width="0.32"/><line x1="69.9" y1="68.2" x2="70.9" y2="68.8" fill="none" stroke="#fff" stroke-miterlimit="10" stroke-width="0.32"/><line x1="86.4" y1="55.7" x2="86.4" y2="80.2" fill="none" stroke="#f2f2f2" stroke-miterlimit="10" stroke-width="0.38"/><line x1="87.2" y1="56.4" x2="87.2" y2="81" fill="none" stroke="#000" stroke-miterlimit="10" stroke-width="0.38" opacity="0.1"/><line x1="86.5" y1="57.6" x2="87.5" y2="58.2" fill="none" stroke="#fff" stroke-miterlimit="10" stroke-width="0.32"/><line x1="86.5" y1="78" x2="87.5" y2="78.6" fill="none" stroke="#fff" stroke-miterlimit="10" stroke-width="0.32"/><line x1="80" y1="51.9" x2="80" y2="76.4" fill="none" stroke="#f2f2f2" stroke-miterlimit="10" stroke-width="0.38"/><line x1="80.8" y1="52.7" x2="80.8" y2="77.2" fill="none" stroke="#000" stroke-miterlimit="10" stroke-width="0.38" opacity="0.1"/><line x1="80.1" y1="53.9" x2="81.1" y2="54.4" fill="none" stroke="#fff" stroke-miterlimit="10" stroke-width="0.32"/><line x1="80.1" y1="74.2" x2="81.1" y2="74.8" fill="none" stroke="#fff" stroke-miterlimit="10" stroke-width="0.32"/></g><polygon points="90.6 86.2 72.5 75.7 72.5 73.5 90.6 83.9 90.6 86.2" fill="#3a3a3a"/><polygon points="140.1 57.6 90.6 86.2 90.6 84 140.1 55.4 140.1 57.6" fill="#686868"/><g style="isolation:isolate"><g style="isolation:isolate"><g clip-path="url(#clip-path-9)"><g style="isolation:isolate"><path d="M85.9,85.6l-5.3-3.1,1.4-.6,5.3,3.1-1.4.6" fill="#363636"/><path d="M87.4,85.1,82.1,82H83L88.3,85h-.9" fill="#333332"/><path d="M88.3,85,83,81.9h.7l5.3,3.1h-.7" fill="#30302f"/><path d="M88.9,85.1l-5.3-3.1.4.2,5.3,3.1-.4-.2" fill="#2c2c2c"/></g></g></g><g style="isolation:isolate"><g clip-path="url(#clip-path-10)"><g style="isolation:isolate"><path d="M82.6,96.9l-5.3-3.1a3.3,3.3,0,0,1-1.4-3.1,7.8,7.8,0,0,1,.2-1.9L81.4,92a7.8,7.8,0,0,0-.2,1.9,3.3,3.3,0,0,0,1.4,3.1" fill="#252525"/><path d="M81.4,92l-5.3-3.1.4-1.2,5.3,3.1L81.4,92" fill="#292928"/><path d="M81.8,90.8l-5.3-3.1.5-1,5.3,3.1-.5,1" fill="#2c2c2c"/><path d="M82.3,89.7,77,86.7l.6-1,5.3,3.1-.6,1" fill="#30302f"/><path d="M82.9,88.7l-5.3-3.1.8-1.1,5.3,3.1-.8,1.1" fill="#333332"/><path d="M83.6,87.7l-5.3-3.1a8.6,8.6,0,0,1,2.3-2l5.3,3.1a8.6,8.6,0,0,0-2.3,2" fill="#363636"/></g></g></g><path d="M85.9,85.6c2.6-1.5,4.8-.3,4.8,2.7A10.5,10.5,0,0,1,86,96.6c-2.6,1.5-4.8.3-4.8-2.7A10.5,10.5,0,0,1,85.9,85.6Z" fill="#353534"/></g><path d="M88.7,89.6c0-2-1.2-2.9-2.7-2.1a6.6,6.6,0,0,0-2.7,5.2c0,2,1.2,2.9,2.7,2.1A6.6,6.6,0,0,0,88.7,89.6Z" fill="#898989"/><path d="M52.5,76.3l1.1.7c.6.3,1.1,0,1.1-.8V72.5a2.6,2.6,0,0,0-1.1-2.1l-1.1-.7c-.6-.3-1.1,0-1.1.8v3.6A2.6,2.6,0,0,0,52.5,76.3Z" fill="#3a3a3a"/><polygon points="55.6 73.8 54.7 73.3 54.7 72.3 55.6 72.8 55.6 73.8" fill="#3a3a3a"/><polygon points="55.6 76.6 54.7 76.1 54.7 75.2 55.6 75.7 55.6 76.6" fill="#3a3a3a"/><g style="isolation:isolate"><polygon points="70.1 98.8 51.9 88.2 51.9 76.2 70 86.8 70.1 98.8" fill="#71390f"/><path d="M85.8,65.7V84.1l-2.6,1.5a8.9,8.9,0,0,0-4,6.9v.8h0l-9.1,5.3v-12l4-14.3Z" fill="#a35216"/><polygon points="70 86.8 51.9 76.2 55.9 61.9 74 72.4 70 86.8" fill="#854312"/><polygon points="74 72.4 55.9 61.9 67.6 55.1 85.8 65.7 74 72.4" fill="#b65b18"/></g><path d="M75.6,88.3l-1.1-.6a2.5,2.5,0,0,1-1.1-2V82.1c0-.8.5-1.1,1.1-.8l1.1.6a2.5,2.5,0,0,1,1.1,2v3.5C76.7,88.3,76.2,88.6,75.6,88.3Z" fill="#3a3a3a"/><polygon points="72.7 82.5 73.5 82.9 73.5 82 72.7 81.5 72.7 82.5" fill="#3a3a3a"/><polygon points="72.7 85.2 73.5 85.7 73.5 84.8 72.7 84.3 72.7 85.2" fill="#3a3a3a"/><polygon points="70 98.9 51.9 88.5 51.9 86.2 70 96.6 70 98.9" fill="#3a3a3a"/><g style="isolation:isolate"><path id="_Clipping_Path_8" data-name="&lt;Clipping Path&gt;" d="M67.5,84.3,54.4,76.5a1.7,1.7,0,0,1-.8-1.9L56,65.7a1.7,1.7,0,0,1,2.5-1l13.1,7.7a1.7,1.7,0,0,1,.8,1.9L70,83.3A1.7,1.7,0,0,1,67.5,84.3Z" fill="#89dbef"/><g clip-path="url(#clip-path-11)"><path d="M85,70.5c2.3,6.7-3.8,10.6-13.7,8.7s-19.7-9-22-15.7S53.1,52.9,63,54.8,82.7,63.8,85,70.5Z" fill="#fffdae" opacity="0.28"/></g></g><path d="M55.9,87.3l-1.6-.9a2.1,2.1,0,0,1-.9-1.6V83.2c0-.6.4-.9.9-.7l1.6.9a2.1,2.1,0,0,1,.9,1.6v1.5C56.8,87.3,56.4,87.6,55.9,87.3Z" fill="#fffdae"/><path d="M68.2,94.3l-1.6-.9a2.1,2.1,0,0,1-.9-1.6V90.2c0-.6.4-.9.9-.7l1.6.9a2.1,2.1,0,0,1,.9,1.6v1.5C69.1,94.3,68.7,94.6,68.2,94.3Z" fill="#fffdae"/></g><g id="Trees"><path d="M160.7,84.3c4.2-2.4,4.2-6.4,0-8.8a16.9,16.9,0,0,0-15.3,0c-4.2,2.4-4.2,6.4,0,8.8A16.9,16.9,0,0,0,160.7,84.3Z" fill="#56772c" opacity="0.85"/><g style="isolation:isolate"><g style="isolation:isolate"><g clip-path="url(#clip-path-12)"><g style="isolation:isolate"><path d="M156.7,65.7v12h0v-12h0" fill="#735a3f"/><path d="M156.7,65.8v0" fill="#775e41"/><path d="M156.7,66v0" fill="#7b6144"/><path d="M156.6,66.2v0" fill="#7f6446"/><path d="M156.5,66.4v0" fill="#836748"/><path d="M156.4,66.6v12l-.2.2v-12l.2-.2" fill="#876a4a"/><path d="M156.1,66.9v12l-.5.3v-12l.5-.3" fill="#8b6d4c"/><path d="M155.7,67.2v12h0l-.8.4v-12l.8-.4h0" fill="#8f704e"/><path d="M154.8,67.6v12l-.7.2v-12l.7-.2" fill="#8b6d4c"/><path d="M154.1,67.8v12h-.5v-12h.5" fill="#876a4a"/><path d="M153.7,67.8v12h-.4v-12h.4" fill="#836748"/><path d="M153.2,67.9v12h-.4v-12h.4" fill="#7f6446"/><path d="M152.9,67.9v12h-.4v-12h.4" fill="#7b6144"/><path d="M152.5,67.9v12h-.4v-12h.4" fill="#775e41"/><path d="M152.1,67.8v12h-.4v-12h.4" fill="#735a3f"/><path d="M151.8,67.8v12h-.4v-12h.4" fill="#6f573d"/><path d="M151.4,67.7v12l-.4-.2v-12l.4.2" fill="#6b543b"/><path d="M150.9,67.5v12l-.5-.3a1.9,1.9,0,0,1-1.1-1.5v-12a1.9,1.9,0,0,0,1.1,1.5l.5.3" fill="#675139"/></g></g></g><path d="M155.6,64.2c1.4.8,1.5,2.2,0,3a5.7,5.7,0,0,1-5.2,0c-1.4-.8-1.5-2.2,0-3A5.8,5.8,0,0,1,155.6,64.2Z" fill="#ab865e"/></g><g opacity="0.3"><g style="isolation:isolate"><g style="isolation:isolate"><g clip-path="url(#clip-path-13)"><g style="isolation:isolate"><path d="M156.7,68v6h0v-6h0"/><path d="M156.7,68.1v0"/><path d="M156.7,68.3v0"/><path d="M156.6,68.5v0"/><path d="M156.5,68.7v0"/><path d="M156.4,68.9v6l-.2.2v-6l.2-.2"/><path d="M156.1,69.2v6l-.5.3v-6l.5-.3"/><path d="M155.7,69.5v6h0l-.8.4v-6l.8-.4h0"/><path d="M154.8,69.9v6l-.7.2v-6l.7-.2"/><path d="M154.1,70.1v6h-.5v-6h.5"/><path d="M153.6,70.1v6h-.4v-6h.4"/><path d="M153.2,70.2v6h-.4v-6h.4"/><path d="M152.9,70.2v6h-.4v-6h.4"/><path d="M152.5,70.1v6h-.4v-6h.4"/><path d="M152.1,70.1v6h-.4V70h.4"/><path d="M151.8,70v6h-.4v-6h.4"/><path d="M151.4,69.9v6l-.4-.2v-6l.4.2"/><path d="M150.9,69.8v6l-.5-.3a1.9,1.9,0,0,1-1.1-1.5V68a1.9,1.9,0,0,0,1.1,1.5l.5.3"/></g></g></g><path d="M155.6,66.5c1.4.8,1.5,2.2,0,3a5.7,5.7,0,0,1-5.2,0c-1.4-.8-1.5-2.2,0-3A5.8,5.8,0,0,1,155.6,66.5Z"/></g></g><g id="_Group_" data-name="&lt;Group&gt;"><g style="isolation:isolate"><path d="M160.7,63.5c4.1,2.5,3.9,6.4-.3,8.7s-11,2.3-15.1-.2-3.9-6.4.3-8.7S156.6,61,160.7,63.5Z" fill="#78aa36"/><g style="isolation:isolate"><g clip-path="url(#clip-path-14)"><g style="isolation:isolate"><path d="M160.7,63.5l-7.7-11.4-9.8,13.2a7.5,7.5,0,0,1,2.4-2c4.3-2.4,11-2.3,15.1.2" fill="#4d6d23"/></g></g></g><g style="isolation:isolate"><g clip-path="url(#clip-path-15)"><g style="isolation:isolate"><path d="M143.2,65.4l9.8-13.2-9,19c-1.9-1.7-2.1-3.9-.8-5.7" fill="#4d6d23"/><path d="M143.9,71.1l9-19-7.4,20.1h-.2l-1.3-1" fill="#547726"/><path d="M145.5,72.2l7.4-20.1L147,72.9l-1.5-.7" fill="#5b8129"/><path d="M147,72.9l5.9-20.8-4.4,21.3-1.5-.5" fill="#628b2c"/><path d="M148.6,73.4l4.4-21.3-2.8,21.6-1.6-.3" fill="#69952f"/><path d="M150.1,73.7l2.8-21.6-1.1,21.8-1.7-.2" fill="#709e32"/><path d="M151.8,73.9l1.1-21.8.8,21.8h-1.9" fill="#77a836"/><path d="M153.7,73.9l-.8-21.8L156,73.7l-2.3.2" fill="#7eb239"/><path d="M156,73.7l-3.1-21.6,9.2,18.8a8.4,8.4,0,0,1-1.8,1.3,13.8,13.8,0,0,1-4.4,1.5" fill="#85bc3c"/><path d="M162.2,70.9l-9.2-18.8,10.2,17.5a5.5,5.5,0,0,1-1,1.2" fill="#7eb239"/><path d="M163.1,69.7,152.9,52.1l10.6,16.5a4.1,4.1,0,0,1-.4,1.1" fill="#77a836"/><path d="M163.6,68.6,152.9,52.1l10.7,15.5a3.7,3.7,0,0,1-.1,1" fill="#709e32"/><path d="M163.7,67.6,152.9,52.1l10.5,14.5a3.7,3.7,0,0,1,.2,1" fill="#69952f"/><path d="M163.5,66.6,152.9,52.1,163,65.7a4.3,4.3,0,0,1,.5,1" fill="#628b2c"/><path d="M163,65.7,152.9,52.1l9.8,13.2.2.4" fill="#5b8129"/></g></g></g></g></g><g clip-path="url(#clip-path-16)"><path d="M158.6,63a13.2,13.2,0,0,1-12,0c-3.3-1.9-3.3-5,0-6.9a13.2,13.2,0,0,1,12,0C161.9,58,161.9,61.1,158.6,63Z" opacity="0.3"/></g><g style="isolation:isolate"><path d="M158.3,55.6c2.8,1.7,2.7,4.4-.2,6.1a11.5,11.5,0,0,1-10.4-.1c-2.8-1.7-2.7-4.4.2-6.1A11.5,11.5,0,0,1,158.3,55.6Z" fill="#78aa36"/><g style="isolation:isolate"><g clip-path="url(#clip-path-17)"><g style="isolation:isolate"><path d="M158.3,55.6,152.9,45l-7,12.2a4.8,4.8,0,0,1,1.9-1.7,11.5,11.5,0,0,1,10.4.1" fill="#4d6d23"/></g></g></g><g style="isolation:isolate"><g clip-path="url(#clip-path-18)"><g style="isolation:isolate"><path d="M146,57.3l7-12.2-5.8,16.2c-1.6-1.2-2-2.7-1.2-4" fill="#4d6d23"/><path d="M147.2,61.3,152.9,45l-4.6,16.9-.7-.4-.5-.3" fill="#547726"/><path d="M148.4,61.9,152.9,45l-3.5,17.3-1.1-.4" fill="#5b8129"/><path d="M149.5,62.4,152.9,45l-2.4,17.6-1.1-.3" fill="#628b2c"/><path d="M150.6,62.6,152.9,45l-1.2,17.8-1.2-.2" fill="#69952f"/><path d="M151.7,62.8,152.9,45V62.9h-1.3" fill="#709e32"/><path d="M153,62.9V45l1.5,17.7H153" fill="#77a836"/><path d="M154.5,62.8,152.9,45l4,17.2-2.4.6" fill="#7eb239"/><path d="M156.9,62.2l-4-17.2,5.2,16.6h0l-1.2.5" fill="#85bc3c"/><path d="M158.1,61.7,152.9,45l6.7,15.4a5.4,5.4,0,0,1-1.5,1.2" fill="#7eb239"/><path d="M159.6,60.4,152.9,45l7.2,14.6-.5.8" fill="#77a836"/><path d="M160.1,59.6,152.9,45l7.4,13.9a2.7,2.7,0,0,1-.2.7" fill="#709e32"/><path d="M160.3,58.9,152.9,45l7.4,13.2a2.5,2.5,0,0,1,0,.7" fill="#69952f"/><path d="M160.3,58.2,152.9,45l7.2,12.5a2.7,2.7,0,0,1,.2.7" fill="#628b2c"/><path d="M160.1,57.5,152.9,45l7,12.2.2.3" fill="#5b8129"/></g></g></g><g style="isolation:isolate"><g clip-path="url(#clip-path-19)"><g style="isolation:isolate"><path d="M160,57.2l-7-12.2,5.4,10.6a4.7,4.7,0,0,1,1.7,1.6" fill="#4d6d23"/></g></g></g></g><path d="M174.7,76.9c2.9-1.6,2.8-4.3,0-6a11.4,11.4,0,0,0-10.4,0c-2.9,1.6-2.8,4.3,0,6A11.4,11.4,0,0,0,174.7,76.9Z" fill="#56772c" opacity="0.86"/><g style="isolation:isolate"><g style="isolation:isolate"><g clip-path="url(#clip-path-20)"><g style="isolation:isolate"><path d="M172,64.3v8.2h0V64.4h0" fill="#735a3f"/><path d="M172,64.4v8.2h0V64.5h0" fill="#775e41"/><path d="M172,64.5v8.2h0V64.7h0" fill="#7b6144"/><path d="M172,64.7v8.2h-.1V64.8h.1" fill="#7f6446"/><path d="M171.9,64.8v8.2h-.1V64.9h.1" fill="#836748"/><path d="M171.8,64.9v8.2l-.2.2V65.1l.2-.2" fill="#876a4a"/><path d="M171.6,65.1v8.2l-.3.2V65.3l.3-.2" fill="#8b6d4c"/><path d="M171.3,65.3v8.2h0l-.5.2V65.6l.5-.2h0" fill="#8f704e"/><path d="M170.7,65.6v8.2h-.5V65.7h.5" fill="#8b6d4c"/><path d="M170.3,65.7v8.2h-.3V65.8h.3" fill="#876a4a"/><path d="M170,65.8v8.2h-.3V65.8h.3" fill="#836748"/><path d="M169.7,65.8v8.2h-.3V65.8h.3" fill="#7f6446"/><path d="M169.4,65.8v8.2h-.2V65.8h.2" fill="#7b6144"/><path d="M169.2,65.8v8.2h-.2V65.7h.2" fill="#775e41"/><path d="M168.9,65.7v8.2h-.2V65.7h.2" fill="#735a3f"/><path d="M168.7,65.7v8.2h-.3V65.6h.3" fill="#6f573d"/><path d="M168.4,65.6v8.2h-.3V65.5h.3" fill="#6b543b"/><path d="M168.1,65.5v8.2l-.4-.2a1.3,1.3,0,0,1-.7-1V64.3a1.3,1.3,0,0,0,.7,1l.4.2" fill="#675139"/></g></g></g><path d="M171.3,63.3a1.1,1.1,0,0,1,0,2,3.9,3.9,0,0,1-3.5,0,1.1,1.1,0,0,1,0-2A3.9,3.9,0,0,1,171.3,63.3Z" fill="#ab865e"/></g><g opacity="0.3"><g style="isolation:isolate"><g style="isolation:isolate"><g clip-path="url(#clip-path-21)"><g style="isolation:isolate"><path d="M172,65.9V70h0V65.9h0"/><path d="M172,65.9V70h0V66.1h0"/><path d="M172,66.1v4.1h0V66.2h0"/><path d="M171.9,66.2v4.1h-.1V66.3h.1"/><path d="M171.9,66.3v4.1h-.1V66.5h.1"/><path d="M171.8,66.5v4.1l-.2.2V66.7l.2-.2"/><path d="M171.6,66.7v4.1l-.3.2V66.9l.3-.2"/><path d="M171.3,66.9V71h0l-.5.2V67.1l.5-.2h0"/><path d="M170.7,67.1v4.1h-.5V67.3h.5"/><path d="M170.3,67.3v4.1h-.3V67.3h.3"/><path d="M169.9,67.3v4.1h-.3V67.3h.3"/><path d="M169.7,67.3v4.1h-.3V67.3h.3"/><path d="M169.4,67.3v4.1h-.2V67.3h.2"/><path d="M169.2,67.3v4.1h-.2V67.3h.2"/><path d="M168.9,67.3v4.1h-.2V67.2h.2"/><path d="M168.7,67.2v4.1h-.3V67.2h.3"/><path d="M168.4,67.2v4.1h-.3V67.1h.3"/><path d="M168.1,67.1v4.1l-.4-.2a1.3,1.3,0,0,1-.7-1V65.9a1.3,1.3,0,0,0,.7,1l.4.2"/></g></g></g><path d="M171.3,64.9a1.1,1.1,0,0,1,0,2,3.9,3.9,0,0,1-3.5,0,1.1,1.1,0,0,1,0-2A3.9,3.9,0,0,1,171.3,64.9Z"/></g></g><g id="_Group_2" data-name="&lt;Group&gt;"><g style="isolation:isolate"><path d="M174.7,62.8c2.8,1.7,2.7,4.3-.2,5.9a11.3,11.3,0,0,1-10.2-.1c-2.8-1.7-2.7-4.3.2-5.9A11.3,11.3,0,0,1,174.7,62.8Z" fill="#78aa36"/><g style="isolation:isolate"><g clip-path="url(#clip-path-22)"><g style="isolation:isolate"><path d="M176.1,64l-6.7-8.9,5.2,7.7a4.9,4.9,0,0,1,1.4,1.2" fill="#4d6d23"/></g></g></g><g style="isolation:isolate"><g clip-path="url(#clip-path-23)"><g style="isolation:isolate"><path d="M174.7,62.8l-5.2-7.7-6.6,9a5.1,5.1,0,0,1,1.6-1.4,11.3,11.3,0,0,1,10.2.1" fill="#4d6d23"/></g></g></g><g style="isolation:isolate"><g clip-path="url(#clip-path-24)"><g style="isolation:isolate"><path d="M162.8,64.1l6.6-9-6.1,12.8a2.7,2.7,0,0,1-.5-3.9" fill="#4d6d23"/><path d="M163.3,67.9l6.1-12.8-5,13.6h-.2l-.9-.7" fill="#547726"/><path d="M164.4,68.7l5-13.6-4,14.1-1-.5" fill="#5b8129"/><path d="M165.5,69.2l4-14.1-3,14.4-1-.3" fill="#628b2c"/><path d="M166.5,69.5l3-14.4-1.9,14.6-1.1-.2" fill="#69952f"/><path d="M167.5,69.8l1.9-14.6-.8,14.8h-1.1" fill="#709e32"/><path d="M168.7,69.9l.8-14.8.5,14.8h-1.3" fill="#77a836"/><path d="M170,69.9l-.5-14.8,2.1,14.6-1.6.2" fill="#7eb239"/><path d="M171.5,69.7l-2.1-14.6,6.3,12.7-1.2.9a9.4,9.4,0,0,1-2.9,1" fill="#85bc3c"/><path d="M175.7,67.8l-6.3-12.7L176.3,67l-.7.8" fill="#7eb239"/><path d="M176.3,67l-6.9-11.9,7.2,11.2-.3.7" fill="#77a836"/><path d="M176.6,66.3l-7.2-11.2,7.3,10.5a2.5,2.5,0,0,1-.1.7" fill="#709e32"/><path d="M176.7,65.6l-7.3-10.5,7.1,9.8a2.5,2.5,0,0,1,.1.7" fill="#69952f"/><path d="M176.6,64.9l-7.1-9.8,6.8,9.2.3.7" fill="#628b2c"/><path d="M176.3,64.3l-6.8-9.2,6.7,8.9.2.2" fill="#5b8129"/></g></g></g></g></g><g clip-path="url(#clip-path-25)"><path d="M173.3,62.5a9,9,0,0,1-8.1,0c-2.2-1.3-2.3-3.4,0-4.7a9,9,0,0,1,8.1,0C175.5,59.1,175.5,61.2,173.3,62.5Z" opacity="0.3"/></g><g style="isolation:isolate"><path d="M173.1,57.5c1.9,1.2,1.8,3-.1,4.1a7.8,7.8,0,0,1-7.1-.1c-1.9-1.2-1.8-3,.1-4.1A7.8,7.8,0,0,1,173.1,57.5Z" fill="#78aa36"/><g style="isolation:isolate"><g clip-path="url(#clip-path-26)"><g style="isolation:isolate"><path d="M173.1,57.5l-3.6-7.2-4.7,8.3a3.3,3.3,0,0,1,1.3-1.2,7.8,7.8,0,0,1,7.1.1" fill="#4d6d23"/></g></g></g><g style="isolation:isolate"><g clip-path="url(#clip-path-27)"><g style="isolation:isolate"><path d="M164.7,58.6l4.7-8.3-3.9,11a2,2,0,0,1-.8-2.7" fill="#4d6d23"/><path d="M165.5,61.3l3.9-11-3.1,11.4-.5-.3-.3-.2" fill="#547726"/><path d="M166.3,61.8l3.1-11.4-2.3,11.7-.8-.3" fill="#5b8129"/><path d="M167.1,62.1l2.3-11.7-1.6,11.9-.7-.2" fill="#628b2c"/><path d="M167.8,62.2l1.6-11.9-.8,12h-.8" fill="#69952f"/><path d="M168.6,62.4l.8-12V62.4h-.9" fill="#709e32"/><path d="M169.5,62.4V50.3l1,12h-1" fill="#77a836"/><path d="M170.5,62.3l-1-12L172.1,62l-1.6.4" fill="#7eb239"/><path d="M172.1,62l-2.7-11.6L173,61.6h0l-.8.4" fill="#85bc3c"/><path d="M173,61.6l-3.5-11.2L174,60.7a3.6,3.6,0,0,1-1,.8" fill="#7eb239"/><path d="M174,60.7l-4.5-10.4,4.9,9.9-.3.5" fill="#77a836"/><path d="M174.3,60.2l-4.9-9.9,5,9.4v.5" fill="#709e32"/><path d="M174.5,59.7l-5-9.4,5,8.9a1.7,1.7,0,0,1,0,.5" fill="#69952f"/><path d="M174.5,59.2l-5-8.9,4.9,8.4v.5" fill="#628b2c"/><path d="M174.3,58.8l-4.9-8.4,4.8,8.2v.2" fill="#5b8129"/></g></g></g><g style="isolation:isolate"><g clip-path="url(#clip-path-28)"><g style="isolation:isolate"><path d="M174.2,58.6l-4.8-8.2,3.6,7.2a3.2,3.2,0,0,1,1.1,1.1" fill="#4d6d23"/></g></g></g></g></g></g></g></svg>