<svg id="Layer_1" data-name="Layer 1" xmlns="http://www.w3.org/2000/svg" width="447" height="240" viewBox="0 0 447 240"><title>logo 02</title><path d="M58,117a154,154,0,0,1,35,5h6l-2,41-32-2q-8,0-11,4t-3,13,3,13,10,3l33-2,2,41a152,152,0,0,1-42,6q-33,0-46-14T0,178q0-34,13-48T58,117Z" fill="#fff"/><path d="M122,132q15-14,46-14t46,14q15,14,15,47t-15,47q-15,14-46,14t-46-14q-15-14-15-47T122,132Z" fill="#fff"/><path d="M292,237H240V120h52v11q15-14,25-14v48q-8,0-20,6l-4,2Z" fill="#fff"/><path d="M377,237H325V0h52V154h7l10-34h51l-17,57,18,60H395l-11-34h-7Z" fill="#fff"/></svg>